G04 EAGLE Gerber RS-274X export*
G75*
%MOMM*%
%FSLAX34Y34*%
%LPD*%
%INTop Copper*%
%IPPOS*%
%AMOC8*
5,1,8,0,0,1.08239X$1,22.5*%
G01*
%ADD10R,1.244600X1.244600*%
%ADD11C,1.244600*%
%ADD12R,1.200000X1.200000*%
%ADD13C,1.200000*%
%ADD14C,1.879600*%
%ADD15C,1.016000*%
%ADD16C,4.445000*%
%ADD17R,1.270000X1.143000*%
%ADD18R,1.524000X1.524000*%
%ADD19P,1.649562X8X112.500000*%
%ADD20C,1.400000*%
%ADD21C,0.609600*%
%ADD22C,0.127000*%
%ADD23C,0.508000*%
%ADD24C,0.254000*%

G36*
X730368Y462296D02*
X730368Y462296D01*
X730487Y462303D01*
X730525Y462316D01*
X730566Y462321D01*
X730676Y462364D01*
X730789Y462401D01*
X730824Y462423D01*
X730861Y462438D01*
X730957Y462508D01*
X731058Y462571D01*
X731086Y462601D01*
X731119Y462624D01*
X731195Y462716D01*
X731276Y462803D01*
X731296Y462838D01*
X731321Y462869D01*
X731372Y462977D01*
X731430Y463081D01*
X731440Y463121D01*
X731457Y463157D01*
X731479Y463274D01*
X731509Y463389D01*
X731513Y463450D01*
X731517Y463470D01*
X731515Y463490D01*
X731519Y463550D01*
X731519Y487680D01*
X731504Y487798D01*
X731497Y487917D01*
X731484Y487955D01*
X731479Y487996D01*
X731436Y488106D01*
X731399Y488219D01*
X731377Y488254D01*
X731362Y488291D01*
X731293Y488387D01*
X731229Y488488D01*
X731199Y488516D01*
X731176Y488549D01*
X731084Y488625D01*
X730997Y488706D01*
X730962Y488726D01*
X730931Y488751D01*
X730823Y488802D01*
X730719Y488860D01*
X730679Y488870D01*
X730643Y488887D01*
X730526Y488909D01*
X730411Y488939D01*
X730351Y488943D01*
X730331Y488947D01*
X730310Y488945D01*
X730250Y488949D01*
X721360Y488949D01*
X721359Y488949D01*
X712470Y488949D01*
X712352Y488934D01*
X712233Y488927D01*
X712195Y488914D01*
X712155Y488909D01*
X712044Y488865D01*
X711931Y488829D01*
X711896Y488807D01*
X711859Y488792D01*
X711763Y488722D01*
X711662Y488659D01*
X711634Y488629D01*
X711602Y488605D01*
X711526Y488514D01*
X711444Y488427D01*
X711425Y488392D01*
X711399Y488360D01*
X711348Y488253D01*
X711291Y488149D01*
X711280Y488109D01*
X711263Y488073D01*
X711241Y487956D01*
X711211Y487841D01*
X711207Y487780D01*
X711203Y487760D01*
X711204Y487750D01*
X711203Y487746D01*
X711204Y487733D01*
X711201Y487680D01*
X711201Y486409D01*
X711199Y486409D01*
X711199Y487680D01*
X711184Y487798D01*
X711177Y487917D01*
X711164Y487955D01*
X711159Y487995D01*
X711115Y488106D01*
X711079Y488219D01*
X711057Y488254D01*
X711042Y488291D01*
X710972Y488387D01*
X710909Y488488D01*
X710879Y488516D01*
X710855Y488548D01*
X710764Y488624D01*
X710677Y488706D01*
X710642Y488725D01*
X710610Y488751D01*
X710503Y488802D01*
X710399Y488859D01*
X710359Y488870D01*
X710323Y488887D01*
X710206Y488909D01*
X710091Y488939D01*
X710030Y488943D01*
X710010Y488947D01*
X709990Y488945D01*
X709930Y488949D01*
X701041Y488949D01*
X701040Y488949D01*
X692150Y488949D01*
X692032Y488934D01*
X691913Y488927D01*
X691875Y488914D01*
X691834Y488909D01*
X691724Y488866D01*
X691611Y488829D01*
X691576Y488807D01*
X691539Y488792D01*
X691443Y488723D01*
X691342Y488659D01*
X691314Y488629D01*
X691281Y488606D01*
X691206Y488514D01*
X691124Y488427D01*
X691104Y488392D01*
X691079Y488361D01*
X691028Y488253D01*
X690970Y488149D01*
X690960Y488109D01*
X690943Y488073D01*
X690921Y487956D01*
X690891Y487841D01*
X690887Y487781D01*
X690883Y487761D01*
X690884Y487750D01*
X690883Y487746D01*
X690884Y487733D01*
X690881Y487680D01*
X690881Y463550D01*
X690896Y463432D01*
X690903Y463313D01*
X690916Y463275D01*
X690921Y463234D01*
X690964Y463124D01*
X691001Y463011D01*
X691023Y462976D01*
X691038Y462939D01*
X691108Y462843D01*
X691171Y462742D01*
X691201Y462714D01*
X691224Y462681D01*
X691316Y462606D01*
X691403Y462524D01*
X691438Y462504D01*
X691469Y462479D01*
X691577Y462428D01*
X691681Y462370D01*
X691721Y462360D01*
X691757Y462343D01*
X691874Y462321D01*
X691989Y462291D01*
X692050Y462287D01*
X692070Y462283D01*
X692090Y462285D01*
X692150Y462281D01*
X730250Y462281D01*
X730368Y462296D01*
G37*
%LPC*%
G36*
X713739Y478154D02*
X713739Y478154D01*
X713739Y483871D01*
X720091Y483871D01*
X720091Y480361D01*
X719918Y479714D01*
X719583Y479135D01*
X719110Y478662D01*
X718531Y478327D01*
X717884Y478154D01*
X713739Y478154D01*
G37*
%LPD*%
%LPC*%
G36*
X704516Y478154D02*
X704516Y478154D01*
X703869Y478327D01*
X703290Y478662D01*
X702817Y479135D01*
X702482Y479714D01*
X702309Y480361D01*
X702309Y483871D01*
X708661Y483871D01*
X708661Y478154D01*
X704516Y478154D01*
G37*
%LPD*%
D10*
X63500Y508000D03*
D11*
X63500Y482600D03*
X63500Y457200D03*
X63500Y431800D03*
X63500Y406400D03*
X63500Y381000D03*
X63500Y355600D03*
X63500Y330200D03*
X190500Y330200D03*
X190500Y355600D03*
X190500Y381000D03*
X190500Y406400D03*
X190500Y431800D03*
X190500Y457200D03*
X190500Y482600D03*
X190500Y508000D03*
D12*
X144500Y476250D03*
D13*
X109500Y476250D03*
D14*
X88900Y292100D03*
X114300Y292100D03*
X139700Y292100D03*
X165100Y292100D03*
X101600Y330200D03*
X101600Y355600D03*
X127000Y330200D03*
X127000Y355600D03*
X152400Y330200D03*
X152400Y355600D03*
D10*
X241300Y508000D03*
D11*
X241300Y482600D03*
X241300Y457200D03*
X241300Y431800D03*
X241300Y406400D03*
X241300Y381000D03*
X241300Y355600D03*
X241300Y330200D03*
X368300Y330200D03*
X368300Y355600D03*
X368300Y381000D03*
X368300Y406400D03*
X368300Y431800D03*
X368300Y457200D03*
X368300Y482600D03*
X368300Y508000D03*
D12*
X322300Y476250D03*
D13*
X287300Y476250D03*
D14*
X266700Y292100D03*
X292100Y292100D03*
X317500Y292100D03*
X342900Y292100D03*
X279400Y330200D03*
X279400Y355600D03*
X304800Y330200D03*
X304800Y355600D03*
X330200Y330200D03*
X330200Y355600D03*
D10*
X63500Y254000D03*
D11*
X63500Y228600D03*
X63500Y203200D03*
X63500Y177800D03*
X63500Y152400D03*
X63500Y127000D03*
X63500Y101600D03*
X63500Y76200D03*
X190500Y76200D03*
X190500Y101600D03*
X190500Y127000D03*
X190500Y152400D03*
X190500Y177800D03*
X190500Y203200D03*
X190500Y228600D03*
X190500Y254000D03*
D12*
X144500Y222250D03*
D13*
X109500Y222250D03*
D14*
X88900Y38100D03*
X114300Y38100D03*
X139700Y38100D03*
X165100Y38100D03*
X101600Y76200D03*
X101600Y101600D03*
X127000Y76200D03*
X127000Y101600D03*
X152400Y76200D03*
X152400Y101600D03*
D10*
X241300Y254000D03*
D11*
X241300Y228600D03*
X241300Y203200D03*
X241300Y177800D03*
X241300Y152400D03*
X241300Y127000D03*
X241300Y101600D03*
X241300Y76200D03*
X368300Y76200D03*
X368300Y101600D03*
X368300Y127000D03*
X368300Y152400D03*
X368300Y177800D03*
X368300Y203200D03*
X368300Y228600D03*
X368300Y254000D03*
D12*
X322300Y222250D03*
D13*
X287300Y222250D03*
D14*
X266700Y38100D03*
X292100Y38100D03*
X317500Y38100D03*
X342900Y38100D03*
X279400Y76200D03*
X279400Y101600D03*
X304800Y76200D03*
X304800Y101600D03*
X330200Y76200D03*
X330200Y101600D03*
X520700Y381000D03*
X495300Y381000D03*
X520700Y355600D03*
X495300Y355600D03*
X520700Y330200D03*
X495300Y330200D03*
X520700Y304800D03*
X495300Y304800D03*
X520700Y279400D03*
X495300Y279400D03*
X520700Y254000D03*
X495300Y254000D03*
X520700Y228600D03*
X495300Y228600D03*
X520700Y203200D03*
X495300Y203200D03*
X520700Y177800D03*
X495300Y177800D03*
X520700Y152400D03*
X495300Y152400D03*
X417830Y127000D03*
X443230Y127000D03*
X417830Y101600D03*
X443230Y101600D03*
X417830Y76200D03*
X443230Y76200D03*
X417830Y50800D03*
X443230Y50800D03*
X495300Y50800D03*
X469900Y50800D03*
X495300Y76200D03*
X469900Y76200D03*
X495300Y101600D03*
X469900Y101600D03*
X495300Y127000D03*
X469900Y127000D03*
D15*
X711200Y406400D03*
X711200Y76200D03*
X38100Y76200D03*
D16*
X25400Y533400D03*
X25400Y25400D03*
X863600Y25400D03*
X863600Y533400D03*
D17*
X711200Y486410D03*
X711200Y504190D03*
D18*
X853700Y59100D03*
D19*
X828300Y59100D03*
X853700Y84500D03*
X828300Y84500D03*
X853700Y109900D03*
X828300Y109900D03*
X853700Y135300D03*
X828300Y135300D03*
X853700Y160700D03*
X828300Y160700D03*
X853700Y186100D03*
X828300Y186100D03*
X853700Y211500D03*
X828300Y211500D03*
X853700Y236900D03*
X828300Y236900D03*
X853700Y262300D03*
X828300Y262300D03*
X853700Y287700D03*
X828300Y287700D03*
X853700Y313100D03*
X828300Y313100D03*
X853700Y338500D03*
X828300Y338500D03*
X853700Y363900D03*
X828300Y363900D03*
X853700Y389300D03*
X828300Y389300D03*
X853700Y414700D03*
X828300Y414700D03*
X853700Y440100D03*
X828300Y440100D03*
X853700Y465500D03*
X828300Y465500D03*
X853700Y490900D03*
X828300Y490900D03*
D18*
X599700Y59100D03*
D19*
X574300Y59100D03*
X599700Y84500D03*
X574300Y84500D03*
X599700Y109900D03*
X574300Y109900D03*
X599700Y135300D03*
X574300Y135300D03*
X599700Y160700D03*
X574300Y160700D03*
X599700Y186100D03*
X574300Y186100D03*
X599700Y211500D03*
X574300Y211500D03*
X599700Y236900D03*
X574300Y236900D03*
X599700Y262300D03*
X574300Y262300D03*
X599700Y287700D03*
X574300Y287700D03*
X599700Y313100D03*
X574300Y313100D03*
X599700Y338500D03*
X574300Y338500D03*
X599700Y363900D03*
X574300Y363900D03*
X599700Y389300D03*
X574300Y389300D03*
X599700Y414700D03*
X574300Y414700D03*
X599700Y440100D03*
X574300Y440100D03*
X599700Y465500D03*
X574300Y465500D03*
X599700Y490900D03*
X574300Y490900D03*
D20*
X487060Y418870D02*
X473060Y418870D01*
X473060Y478870D02*
X487060Y478870D01*
X433060Y455870D02*
X433060Y441870D01*
D21*
X698500Y469900D03*
X711200Y469900D03*
X723900Y469900D03*
D22*
X190500Y431800D02*
X172720Y414020D01*
X172720Y321310D02*
X161290Y309880D01*
X127000Y309880D01*
X114300Y297180D01*
X114300Y292100D01*
X172720Y321310D02*
X172720Y414020D01*
X170180Y436880D02*
X190500Y457200D01*
X170180Y436880D02*
X170180Y323850D01*
X158750Y312420D01*
X125948Y312420D01*
X118328Y304800D02*
X96520Y304800D01*
X118328Y304800D02*
X125948Y312420D01*
X96520Y304800D02*
X88900Y297180D01*
X88900Y292100D01*
D23*
X336550Y476250D02*
X368300Y508000D01*
X336550Y476250D02*
X322300Y476250D01*
X368300Y254000D02*
X336550Y222250D01*
X322300Y222250D01*
X190500Y254000D02*
X158750Y222250D01*
X144500Y222250D01*
X158750Y476250D02*
X190500Y508000D01*
X158750Y476250D02*
X144500Y476250D01*
D22*
X63500Y406400D02*
X63500Y381000D01*
X417830Y265557D02*
X417830Y127000D01*
X417830Y265557D02*
X408940Y274447D01*
X85180Y274447D01*
X54102Y305525D01*
X54102Y346202D02*
X63500Y355600D01*
X54102Y346202D02*
X54102Y305525D01*
X480060Y142240D02*
X495300Y127000D01*
X480060Y142240D02*
X480060Y270510D01*
X473583Y276987D01*
X76327Y317373D02*
X63500Y330200D01*
X76327Y317373D02*
X76327Y286892D01*
X86232Y276987D01*
X473583Y276987D01*
X58555Y419862D02*
X51562Y426855D01*
X58555Y419862D02*
X68036Y419862D01*
X63500Y470491D02*
X63500Y482600D01*
X63500Y470491D02*
X51562Y458553D01*
X51562Y426855D01*
X101600Y386298D02*
X101600Y355600D01*
X101600Y386298D02*
X68036Y419862D01*
X54102Y427907D02*
X54102Y435693D01*
X54102Y427907D02*
X59607Y422402D01*
X63500Y445091D02*
X63500Y457200D01*
X69088Y422402D02*
X127000Y364490D01*
X54102Y435693D02*
X63500Y445091D01*
X59607Y422402D02*
X69088Y422402D01*
X127000Y364490D02*
X127000Y355600D01*
X127000Y368300D02*
X63500Y431800D01*
X127000Y368300D02*
X143510Y368300D01*
X152400Y359410D01*
X152400Y355600D01*
X495300Y101600D02*
X510540Y116840D01*
X490092Y139827D02*
X482727Y147192D01*
X482727Y148463D01*
X482600Y148590D01*
X500254Y139827D02*
X510540Y129541D01*
X500254Y139827D02*
X490092Y139827D01*
X482600Y148590D02*
X482600Y271780D01*
X261492Y279527D02*
X254127Y286892D01*
X474853Y279527D02*
X482600Y271780D01*
X474853Y279527D02*
X261492Y279527D01*
X254127Y317373D02*
X241300Y330200D01*
X254127Y317373D02*
X254127Y286892D01*
X510540Y129541D02*
X510540Y116840D01*
X495300Y76200D02*
X495300Y68581D01*
X507873Y56008D01*
X507873Y32893D01*
X488950Y13970D01*
X87630Y13970D01*
X63500Y38100D01*
X63500Y76200D01*
X350520Y414020D02*
X368300Y431800D01*
X332740Y304800D02*
X302260Y304800D01*
X292100Y294640D01*
X292100Y292100D01*
X350520Y322580D02*
X350520Y414020D01*
X350520Y322580D02*
X332740Y304800D01*
X347980Y436880D02*
X368300Y457200D01*
X347980Y323632D02*
X331688Y307340D01*
X281940Y307340D02*
X266700Y292100D01*
X347980Y323632D02*
X347980Y436880D01*
X331688Y307340D02*
X281940Y307340D01*
X241300Y381000D02*
X241300Y406400D01*
X236355Y419862D02*
X229362Y426855D01*
X236355Y419862D02*
X243840Y419862D01*
X244348Y419862D01*
X241300Y470491D02*
X241300Y482600D01*
X241300Y470491D02*
X229362Y458553D01*
X229362Y426855D01*
X244348Y419862D02*
X245618Y419862D01*
X279400Y386080D01*
X279400Y355600D01*
X231902Y427907D02*
X231902Y435693D01*
X231902Y427907D02*
X237407Y422402D01*
X241300Y445091D02*
X241300Y457200D01*
X241300Y445091D02*
X231902Y435693D01*
X237407Y422402D02*
X245110Y422402D01*
X245618Y422402D01*
X304800Y363220D02*
X304800Y359410D01*
X304800Y355600D01*
X247106Y422402D02*
X245618Y422402D01*
X304800Y364708D02*
X304800Y363220D01*
X304800Y364708D02*
X247106Y422402D01*
X241300Y431800D02*
X304800Y368300D01*
X321310Y368300D01*
X330200Y359410D01*
X330200Y355600D01*
X190500Y177800D02*
X175260Y162560D01*
X175260Y67092D02*
X161508Y53340D01*
X123190Y53340D01*
X114300Y44450D01*
X114300Y38100D01*
X175260Y67092D02*
X175260Y162560D01*
X172720Y185420D02*
X190500Y203200D01*
X172720Y68144D02*
X160456Y55880D01*
X122138Y55880D01*
X116931Y50673D01*
X101473Y50673D02*
X88900Y38100D01*
X172720Y68144D02*
X172720Y185420D01*
X116931Y50673D02*
X101473Y50673D01*
X63500Y127000D02*
X63500Y152400D01*
X58555Y165862D02*
X51562Y172855D01*
X58555Y165862D02*
X68254Y165862D01*
X63500Y216491D02*
X63500Y228600D01*
X63500Y216491D02*
X51562Y204553D01*
X51562Y172855D01*
X101600Y132516D02*
X101600Y101600D01*
X101600Y132516D02*
X68254Y165862D01*
X54102Y173907D02*
X54102Y181693D01*
X54102Y173907D02*
X59607Y168402D01*
X63500Y191091D02*
X63500Y203200D01*
X63500Y191091D02*
X54102Y181693D01*
X59607Y168402D02*
X69306Y168402D01*
X127000Y110708D02*
X127000Y101600D01*
X127000Y110708D02*
X69306Y168402D01*
X63500Y177800D02*
X127000Y114300D01*
X142240Y114300D01*
X152400Y104140D01*
X152400Y101600D01*
X353060Y162560D02*
X368300Y177800D01*
X353060Y65913D02*
X340360Y53213D01*
X299719Y38100D02*
X292100Y38100D01*
X314832Y53213D02*
X340360Y53213D01*
X314832Y53213D02*
X299719Y38100D01*
X353060Y65913D02*
X353060Y162560D01*
X350520Y185420D02*
X368300Y203200D01*
X350520Y185420D02*
X350520Y67310D01*
X339090Y55880D01*
X276860Y55880D02*
X266700Y45720D01*
X266700Y38100D01*
X276860Y55880D02*
X339090Y55880D01*
X241300Y127000D02*
X241300Y152400D01*
X236355Y165862D02*
X229362Y172855D01*
X236355Y165862D02*
X245836Y165862D01*
X241300Y216491D02*
X241300Y228600D01*
X241300Y216491D02*
X229362Y204553D01*
X229362Y172855D01*
X279400Y132298D02*
X279400Y101600D01*
X279400Y132298D02*
X245836Y165862D01*
X231902Y173907D02*
X231902Y181693D01*
X231902Y173907D02*
X237407Y168402D01*
X241300Y191091D02*
X241300Y203200D01*
X241300Y191091D02*
X231902Y181693D01*
X237407Y168402D02*
X246888Y168402D01*
X304800Y110490D02*
X304800Y101600D01*
X304800Y110490D02*
X246888Y168402D01*
X241300Y177800D02*
X304800Y114300D01*
X321310Y114300D01*
X330200Y105410D01*
X330200Y101600D01*
X443230Y76200D02*
X443230Y50800D01*
X443230Y76200D02*
X443230Y101600D01*
X443230Y127000D01*
X443230Y50800D02*
X429260Y36830D01*
X261492Y25527D02*
X254127Y32892D01*
X348108Y25527D02*
X359411Y36830D01*
X348108Y25527D02*
X261492Y25527D01*
X254127Y88773D02*
X241300Y101600D01*
X254127Y88773D02*
X254127Y32892D01*
X359411Y36830D02*
X429260Y36830D01*
X469900Y101600D02*
X469900Y127000D01*
X469900Y101600D02*
X469900Y76200D01*
X469900Y50800D01*
X453390Y34290D01*
X360463Y34290D01*
X251587Y41783D02*
X251460Y41910D01*
X260440Y22987D02*
X349160Y22987D01*
X260440Y22987D02*
X251587Y31840D01*
X251587Y41783D01*
X251460Y66040D02*
X241300Y76200D01*
X349160Y22987D02*
X360463Y34290D01*
X251460Y41910D02*
X251460Y66040D01*
X520700Y355600D02*
X520700Y381000D01*
X520700Y355600D02*
X508000Y342900D01*
X508000Y247650D01*
X526959Y241173D02*
X549910Y218222D01*
X514477Y241173D02*
X508000Y247650D01*
X514477Y241173D02*
X526959Y241173D01*
X578771Y146095D02*
X585095Y139771D01*
X585095Y99105D02*
X599700Y84500D01*
X573639Y146095D02*
X549910Y169824D01*
X573639Y146095D02*
X578771Y146095D01*
X585095Y139771D02*
X585095Y99105D01*
X549910Y169824D02*
X549910Y218222D01*
X520700Y304800D02*
X520700Y330200D01*
X537210Y330200D01*
X542290Y325120D01*
X795020Y325120D01*
X802640Y332740D01*
X814750Y465500D02*
X828300Y465500D01*
X802640Y453390D02*
X802640Y332740D01*
X802640Y453390D02*
X814750Y465500D01*
X520700Y279400D02*
X520700Y254000D01*
X538480Y276860D02*
X535940Y279400D01*
X538480Y276860D02*
X589280Y276860D01*
X599700Y287280D01*
X599700Y287700D01*
X535940Y279400D02*
X520700Y279400D01*
X520700Y228600D02*
X535940Y228600D01*
X547370Y217170D01*
X556850Y135300D02*
X574300Y135300D01*
X547370Y144780D02*
X547370Y217170D01*
X547370Y144780D02*
X556850Y135300D01*
X534670Y203200D02*
X520700Y203200D01*
X534670Y203200D02*
X544830Y193040D01*
X555580Y109900D02*
X574300Y109900D01*
X544830Y120650D02*
X544830Y193040D01*
X544830Y120650D02*
X555580Y109900D01*
X534670Y177800D02*
X520700Y177800D01*
X534670Y177800D02*
X542290Y170180D01*
X554310Y84500D02*
X574300Y84500D01*
X542290Y96520D02*
X542290Y170180D01*
X542290Y96520D02*
X554310Y84500D01*
X534670Y152400D02*
X520700Y152400D01*
X534670Y152400D02*
X539750Y147320D01*
X539750Y73660D02*
X554310Y59100D01*
X574300Y59100D01*
X539750Y73660D02*
X539750Y147320D01*
D23*
X882650Y514350D02*
X863600Y533400D01*
X882650Y44450D02*
X863600Y25400D01*
X882650Y44450D02*
X882650Y514350D01*
X863600Y25400D02*
X844550Y6350D01*
X44450Y6350D02*
X25400Y25400D01*
X44450Y6350D02*
X844550Y6350D01*
X25400Y25400D02*
X6350Y44450D01*
X6350Y514350D02*
X25400Y533400D01*
X6350Y514350D02*
X6350Y44450D01*
X25400Y533400D02*
X44450Y552450D01*
X844550Y552450D02*
X863600Y533400D01*
X701040Y552450D02*
X44450Y552450D01*
X702310Y552450D02*
X711200Y552450D01*
X720090Y552450D01*
X844550Y552450D01*
X711200Y543560D02*
X711200Y504190D01*
X711200Y543560D02*
X711200Y552450D01*
X711200Y543560D02*
X720090Y552450D01*
X711200Y543560D02*
X702310Y552450D01*
X701040Y552450D01*
X701130Y211500D02*
X599700Y211500D01*
D24*
X828130Y338500D02*
X828300Y338500D01*
D23*
X828130Y338500D02*
X701130Y211500D01*
D22*
X241300Y508000D02*
X209550Y539750D01*
X77470Y539750D01*
X45720Y508000D01*
X12700Y85090D02*
X86360Y11430D01*
X631190Y11430D02*
X660400Y40640D01*
X660400Y123190D01*
X584434Y160700D02*
X574300Y160700D01*
X584434Y160700D02*
X595229Y149905D01*
X633685Y149905D01*
X12700Y247650D02*
X12700Y474980D01*
X12700Y203200D02*
X12700Y85090D01*
X86360Y11430D02*
X631190Y11430D01*
X660400Y123190D02*
X633685Y149905D01*
X63500Y508000D02*
X45720Y508000D01*
X12700Y474980D01*
X63500Y254000D02*
X12700Y203200D01*
X12700Y247650D01*
X223520Y271780D02*
X241300Y254000D01*
X36830Y271780D02*
X12700Y247650D01*
X36830Y271780D02*
X223520Y271780D01*
X177800Y368300D02*
X190500Y381000D01*
X165100Y306506D02*
X165100Y292100D01*
X177800Y319206D02*
X177800Y368300D01*
X177800Y319206D02*
X165100Y306506D01*
X175260Y391160D02*
X190500Y406400D01*
X175260Y320258D02*
X162342Y307340D01*
X143510Y307340D01*
X139700Y303530D01*
X139700Y292100D01*
X175260Y320258D02*
X175260Y391160D01*
X190500Y127000D02*
X180340Y116840D01*
X165100Y49530D02*
X165100Y38100D01*
X180340Y64770D02*
X180340Y116840D01*
X180340Y64770D02*
X165100Y49530D01*
X177800Y139700D02*
X190500Y152400D01*
X162560Y50800D02*
X146050Y50800D01*
X139700Y44450D01*
X139700Y38100D01*
X177800Y66040D02*
X177800Y139700D01*
X177800Y66040D02*
X162560Y50800D01*
X358140Y116840D02*
X368300Y127000D01*
X342900Y48260D02*
X342900Y38100D01*
X358140Y63500D02*
X358140Y116840D01*
X358140Y63500D02*
X342900Y48260D01*
X355600Y139700D02*
X368300Y152400D01*
X317500Y44450D02*
X317500Y38100D01*
X355600Y64770D02*
X355600Y139700D01*
X355600Y64770D02*
X341503Y50673D01*
X323723Y50673D01*
X317500Y44450D01*
X355600Y368300D02*
X368300Y381000D01*
X355600Y368300D02*
X355600Y320476D01*
X342900Y307776D02*
X342900Y292100D01*
X342900Y307776D02*
X355600Y320476D01*
X353060Y391160D02*
X368300Y406400D01*
X353060Y321528D02*
X333792Y302260D01*
X323850Y302260D01*
X317500Y295910D01*
X317500Y292100D01*
X353060Y321528D02*
X353060Y391160D01*
M02*
