G04 EAGLE Gerber RS-274X export*
G75*
%MOMM*%
%FSLAX34Y34*%
%LPD*%
%INCopper Layer 15*%
%IPPOS*%
%AMOC8*
5,1,8,0,0,1.08239X$1,22.5*%
G01*
%ADD10C,1.244600*%
%ADD11C,1.190000*%
%ADD12C,1.422400*%
%ADD13C,4.191000*%
%ADD14C,1.400000*%
%ADD15C,0.508000*%

G36*
X851078Y2549D02*
X851078Y2549D01*
X851148Y2548D01*
X851235Y2569D01*
X851324Y2581D01*
X851389Y2606D01*
X851457Y2623D01*
X851537Y2665D01*
X851620Y2698D01*
X851677Y2739D01*
X851738Y2771D01*
X851805Y2832D01*
X851878Y2884D01*
X851922Y2938D01*
X851974Y2985D01*
X852023Y3060D01*
X852080Y3129D01*
X852110Y3193D01*
X852148Y3251D01*
X852178Y3336D01*
X852216Y3417D01*
X852229Y3486D01*
X852252Y3552D01*
X852259Y3641D01*
X852276Y3729D01*
X852271Y3799D01*
X852277Y3869D01*
X852261Y3957D01*
X852256Y4047D01*
X852234Y4113D01*
X852222Y4182D01*
X852186Y4264D01*
X852158Y4349D01*
X852121Y4408D01*
X852092Y4472D01*
X852036Y4542D01*
X851988Y4618D01*
X851937Y4666D01*
X851893Y4720D01*
X851821Y4775D01*
X851756Y4836D01*
X851695Y4870D01*
X851639Y4912D01*
X851495Y4983D01*
X850291Y5481D01*
X843681Y12091D01*
X840104Y20726D01*
X840104Y30074D01*
X843681Y38709D01*
X850291Y45319D01*
X858926Y48896D01*
X868274Y48896D01*
X876909Y45319D01*
X883519Y38709D01*
X884017Y37505D01*
X884052Y37445D01*
X884078Y37380D01*
X884130Y37307D01*
X884175Y37229D01*
X884223Y37179D01*
X884264Y37122D01*
X884334Y37065D01*
X884396Y37001D01*
X884456Y36964D01*
X884509Y36920D01*
X884591Y36881D01*
X884667Y36834D01*
X884734Y36814D01*
X884797Y36784D01*
X884885Y36767D01*
X884971Y36741D01*
X885041Y36737D01*
X885110Y36724D01*
X885199Y36730D01*
X885289Y36726D01*
X885357Y36740D01*
X885427Y36744D01*
X885512Y36772D01*
X885600Y36790D01*
X885663Y36821D01*
X885729Y36842D01*
X885805Y36890D01*
X885886Y36930D01*
X885939Y36975D01*
X885998Y37012D01*
X886060Y37078D01*
X886128Y37136D01*
X886168Y37193D01*
X886216Y37244D01*
X886259Y37323D01*
X886311Y37396D01*
X886336Y37461D01*
X886370Y37522D01*
X886392Y37609D01*
X886424Y37693D01*
X886432Y37763D01*
X886449Y37830D01*
X886459Y37991D01*
X886459Y520809D01*
X886451Y520878D01*
X886452Y520948D01*
X886431Y521035D01*
X886419Y521124D01*
X886394Y521189D01*
X886377Y521257D01*
X886335Y521337D01*
X886302Y521420D01*
X886261Y521477D01*
X886229Y521538D01*
X886168Y521605D01*
X886116Y521678D01*
X886062Y521722D01*
X886015Y521774D01*
X885940Y521823D01*
X885871Y521880D01*
X885807Y521910D01*
X885749Y521948D01*
X885664Y521978D01*
X885583Y522016D01*
X885514Y522029D01*
X885448Y522052D01*
X885359Y522059D01*
X885271Y522076D01*
X885201Y522071D01*
X885131Y522077D01*
X885043Y522061D01*
X884953Y522056D01*
X884887Y522034D01*
X884818Y522022D01*
X884736Y521986D01*
X884651Y521958D01*
X884592Y521921D01*
X884528Y521892D01*
X884458Y521836D01*
X884382Y521788D01*
X884334Y521737D01*
X884280Y521693D01*
X884225Y521621D01*
X884164Y521556D01*
X884130Y521495D01*
X884088Y521439D01*
X884017Y521295D01*
X883519Y520091D01*
X876909Y513481D01*
X868274Y509904D01*
X858926Y509904D01*
X850291Y513481D01*
X843681Y520091D01*
X840104Y528726D01*
X840104Y538074D01*
X843681Y546709D01*
X850291Y553319D01*
X851495Y553817D01*
X851555Y553852D01*
X851620Y553878D01*
X851693Y553930D01*
X851771Y553975D01*
X851821Y554023D01*
X851878Y554064D01*
X851935Y554134D01*
X851999Y554196D01*
X852036Y554256D01*
X852080Y554309D01*
X852119Y554391D01*
X852166Y554467D01*
X852186Y554534D01*
X852216Y554597D01*
X852233Y554685D01*
X852259Y554771D01*
X852263Y554841D01*
X852276Y554910D01*
X852270Y554999D01*
X852274Y555089D01*
X852260Y555157D01*
X852256Y555227D01*
X852228Y555312D01*
X852210Y555400D01*
X852179Y555463D01*
X852158Y555529D01*
X852110Y555605D01*
X852070Y555686D01*
X852025Y555739D01*
X851988Y555798D01*
X851922Y555860D01*
X851864Y555928D01*
X851807Y555968D01*
X851756Y556016D01*
X851677Y556059D01*
X851604Y556111D01*
X851539Y556136D01*
X851478Y556170D01*
X851391Y556192D01*
X851307Y556224D01*
X851237Y556232D01*
X851170Y556249D01*
X851009Y556259D01*
X37991Y556259D01*
X37922Y556251D01*
X37852Y556252D01*
X37765Y556231D01*
X37676Y556219D01*
X37611Y556194D01*
X37543Y556177D01*
X37463Y556135D01*
X37380Y556102D01*
X37323Y556061D01*
X37262Y556029D01*
X37195Y555968D01*
X37122Y555916D01*
X37078Y555862D01*
X37026Y555815D01*
X36977Y555740D01*
X36920Y555671D01*
X36890Y555607D01*
X36852Y555549D01*
X36822Y555464D01*
X36784Y555383D01*
X36771Y555314D01*
X36748Y555248D01*
X36741Y555159D01*
X36724Y555071D01*
X36729Y555001D01*
X36723Y554931D01*
X36739Y554843D01*
X36744Y554753D01*
X36766Y554687D01*
X36778Y554618D01*
X36814Y554536D01*
X36842Y554451D01*
X36879Y554392D01*
X36908Y554328D01*
X36964Y554258D01*
X37012Y554182D01*
X37063Y554134D01*
X37107Y554080D01*
X37179Y554025D01*
X37244Y553964D01*
X37305Y553930D01*
X37361Y553888D01*
X37505Y553817D01*
X38709Y553319D01*
X45319Y546709D01*
X48896Y538074D01*
X48896Y528726D01*
X45319Y520091D01*
X38709Y513481D01*
X30074Y509904D01*
X20726Y509904D01*
X12091Y513481D01*
X5481Y520091D01*
X4983Y521295D01*
X4948Y521355D01*
X4922Y521420D01*
X4870Y521493D01*
X4825Y521571D01*
X4777Y521621D01*
X4736Y521678D01*
X4666Y521735D01*
X4604Y521799D01*
X4544Y521836D01*
X4491Y521880D01*
X4409Y521919D01*
X4333Y521966D01*
X4266Y521986D01*
X4203Y522016D01*
X4115Y522033D01*
X4029Y522059D01*
X3959Y522063D01*
X3890Y522076D01*
X3801Y522070D01*
X3711Y522074D01*
X3643Y522060D01*
X3573Y522056D01*
X3488Y522028D01*
X3400Y522010D01*
X3337Y521979D01*
X3271Y521958D01*
X3195Y521910D01*
X3114Y521870D01*
X3061Y521825D01*
X3002Y521788D01*
X2940Y521722D01*
X2872Y521664D01*
X2832Y521607D01*
X2784Y521556D01*
X2741Y521477D01*
X2689Y521404D01*
X2664Y521339D01*
X2630Y521278D01*
X2608Y521191D01*
X2576Y521107D01*
X2568Y521037D01*
X2551Y520970D01*
X2541Y520809D01*
X2541Y37991D01*
X2549Y37922D01*
X2548Y37852D01*
X2569Y37765D01*
X2581Y37676D01*
X2606Y37611D01*
X2623Y37543D01*
X2665Y37463D01*
X2698Y37380D01*
X2739Y37323D01*
X2771Y37262D01*
X2832Y37195D01*
X2884Y37122D01*
X2938Y37078D01*
X2985Y37026D01*
X3060Y36977D01*
X3129Y36920D01*
X3193Y36890D01*
X3251Y36852D01*
X3336Y36822D01*
X3417Y36784D01*
X3486Y36771D01*
X3552Y36748D01*
X3641Y36741D01*
X3729Y36724D01*
X3799Y36729D01*
X3869Y36723D01*
X3957Y36739D01*
X4047Y36744D01*
X4113Y36766D01*
X4182Y36778D01*
X4264Y36814D01*
X4349Y36842D01*
X4408Y36879D01*
X4472Y36908D01*
X4542Y36964D01*
X4618Y37012D01*
X4666Y37063D01*
X4720Y37107D01*
X4775Y37179D01*
X4836Y37244D01*
X4870Y37305D01*
X4912Y37361D01*
X4983Y37505D01*
X5481Y38709D01*
X12091Y45319D01*
X20726Y48896D01*
X30074Y48896D01*
X38709Y45319D01*
X45319Y38709D01*
X48896Y30074D01*
X48896Y20726D01*
X45319Y12091D01*
X38709Y5481D01*
X37505Y4983D01*
X37445Y4948D01*
X37380Y4922D01*
X37307Y4870D01*
X37229Y4825D01*
X37179Y4777D01*
X37122Y4736D01*
X37065Y4666D01*
X37001Y4604D01*
X36964Y4544D01*
X36920Y4491D01*
X36881Y4409D01*
X36834Y4333D01*
X36814Y4266D01*
X36784Y4203D01*
X36767Y4115D01*
X36741Y4029D01*
X36737Y3959D01*
X36724Y3890D01*
X36730Y3801D01*
X36726Y3711D01*
X36740Y3643D01*
X36744Y3573D01*
X36772Y3488D01*
X36790Y3400D01*
X36821Y3337D01*
X36842Y3271D01*
X36890Y3195D01*
X36930Y3114D01*
X36975Y3061D01*
X37012Y3002D01*
X37078Y2940D01*
X37136Y2872D01*
X37193Y2832D01*
X37244Y2784D01*
X37323Y2741D01*
X37396Y2689D01*
X37461Y2664D01*
X37522Y2630D01*
X37609Y2608D01*
X37693Y2576D01*
X37763Y2568D01*
X37830Y2551D01*
X37991Y2541D01*
X851009Y2541D01*
X851078Y2549D01*
G37*
%LPC*%
G36*
X125080Y345947D02*
X125080Y345947D01*
X121532Y347417D01*
X118817Y350132D01*
X117347Y353680D01*
X117347Y357520D01*
X118817Y361068D01*
X121532Y363783D01*
X125080Y365253D01*
X128920Y365253D01*
X132468Y363783D01*
X135183Y361068D01*
X136653Y357520D01*
X136653Y353680D01*
X135183Y350132D01*
X132468Y347417D01*
X128920Y345947D01*
X125080Y345947D01*
G37*
%LPD*%
%LPC*%
G36*
X290180Y282447D02*
X290180Y282447D01*
X286632Y283917D01*
X283917Y286632D01*
X282447Y290180D01*
X282447Y294020D01*
X283917Y297568D01*
X286632Y300283D01*
X290180Y301753D01*
X294020Y301753D01*
X297568Y300283D01*
X300283Y297568D01*
X301753Y294020D01*
X301753Y290180D01*
X300283Y286632D01*
X297568Y283917D01*
X294020Y282447D01*
X290180Y282447D01*
G37*
%LPD*%
%LPC*%
G36*
X264780Y282447D02*
X264780Y282447D01*
X261232Y283917D01*
X258517Y286632D01*
X257047Y290180D01*
X257047Y294020D01*
X258517Y297568D01*
X261232Y300283D01*
X264780Y301753D01*
X268620Y301753D01*
X272168Y300283D01*
X274883Y297568D01*
X276353Y294020D01*
X276353Y290180D01*
X274883Y286632D01*
X272168Y283917D01*
X268620Y282447D01*
X264780Y282447D01*
G37*
%LPD*%
%LPC*%
G36*
X518780Y269747D02*
X518780Y269747D01*
X515232Y271217D01*
X512517Y273932D01*
X511047Y277480D01*
X511047Y281320D01*
X512517Y284868D01*
X515232Y287583D01*
X518780Y289053D01*
X522620Y289053D01*
X526168Y287583D01*
X528883Y284868D01*
X530353Y281320D01*
X530353Y277480D01*
X528883Y273932D01*
X526168Y271217D01*
X522620Y269747D01*
X518780Y269747D01*
G37*
%LPD*%
%LPC*%
G36*
X493380Y269747D02*
X493380Y269747D01*
X489832Y271217D01*
X487117Y273932D01*
X485647Y277480D01*
X485647Y281320D01*
X487117Y284868D01*
X489832Y287583D01*
X493380Y289053D01*
X497220Y289053D01*
X500768Y287583D01*
X503483Y284868D01*
X504953Y281320D01*
X504953Y277480D01*
X503483Y273932D01*
X500768Y271217D01*
X497220Y269747D01*
X493380Y269747D01*
G37*
%LPD*%
%LPC*%
G36*
X518780Y295147D02*
X518780Y295147D01*
X515232Y296617D01*
X512517Y299332D01*
X511047Y302880D01*
X511047Y306720D01*
X512517Y310268D01*
X515232Y312983D01*
X518780Y314453D01*
X522620Y314453D01*
X526168Y312983D01*
X528883Y310268D01*
X530353Y306720D01*
X530353Y302880D01*
X528883Y299332D01*
X526168Y296617D01*
X522620Y295147D01*
X518780Y295147D01*
G37*
%LPD*%
%LPC*%
G36*
X163180Y28447D02*
X163180Y28447D01*
X159632Y29917D01*
X156917Y32632D01*
X155447Y36180D01*
X155447Y40020D01*
X156917Y43568D01*
X159632Y46283D01*
X163180Y47753D01*
X167020Y47753D01*
X170568Y46283D01*
X173283Y43568D01*
X174753Y40020D01*
X174753Y36180D01*
X173283Y32632D01*
X170568Y29917D01*
X167020Y28447D01*
X163180Y28447D01*
G37*
%LPD*%
%LPC*%
G36*
X264780Y28447D02*
X264780Y28447D01*
X261232Y29917D01*
X258517Y32632D01*
X257047Y36180D01*
X257047Y40020D01*
X258517Y43568D01*
X261232Y46283D01*
X264780Y47753D01*
X268620Y47753D01*
X272168Y46283D01*
X274883Y43568D01*
X276353Y40020D01*
X276353Y36180D01*
X274883Y32632D01*
X272168Y29917D01*
X268620Y28447D01*
X264780Y28447D01*
G37*
%LPD*%
%LPC*%
G36*
X290180Y28447D02*
X290180Y28447D01*
X286632Y29917D01*
X283917Y32632D01*
X282447Y36180D01*
X282447Y40020D01*
X283917Y43568D01*
X286632Y46283D01*
X290180Y47753D01*
X294020Y47753D01*
X297568Y46283D01*
X300283Y43568D01*
X301753Y40020D01*
X301753Y36180D01*
X300283Y32632D01*
X297568Y29917D01*
X294020Y28447D01*
X290180Y28447D01*
G37*
%LPD*%
%LPC*%
G36*
X315580Y28447D02*
X315580Y28447D01*
X312032Y29917D01*
X309317Y32632D01*
X307847Y36180D01*
X307847Y40020D01*
X309317Y43568D01*
X312032Y46283D01*
X315580Y47753D01*
X319420Y47753D01*
X322968Y46283D01*
X325683Y43568D01*
X327153Y40020D01*
X327153Y36180D01*
X325683Y32632D01*
X322968Y29917D01*
X319420Y28447D01*
X315580Y28447D01*
G37*
%LPD*%
%LPC*%
G36*
X340980Y28447D02*
X340980Y28447D01*
X337432Y29917D01*
X334717Y32632D01*
X333247Y36180D01*
X333247Y40020D01*
X334717Y43568D01*
X337432Y46283D01*
X340980Y47753D01*
X344820Y47753D01*
X348368Y46283D01*
X351083Y43568D01*
X352553Y40020D01*
X352553Y36180D01*
X351083Y32632D01*
X348368Y29917D01*
X344820Y28447D01*
X340980Y28447D01*
G37*
%LPD*%
%LPC*%
G36*
X493380Y295147D02*
X493380Y295147D01*
X489832Y296617D01*
X487117Y299332D01*
X485647Y302880D01*
X485647Y306720D01*
X487117Y310268D01*
X489832Y312983D01*
X493380Y314453D01*
X497220Y314453D01*
X500768Y312983D01*
X503483Y310268D01*
X504953Y306720D01*
X504953Y302880D01*
X503483Y299332D01*
X500768Y296617D01*
X497220Y295147D01*
X493380Y295147D01*
G37*
%LPD*%
%LPC*%
G36*
X277480Y345947D02*
X277480Y345947D01*
X273932Y347417D01*
X271217Y350132D01*
X269747Y353680D01*
X269747Y357520D01*
X271217Y361068D01*
X273932Y363783D01*
X277480Y365253D01*
X281320Y365253D01*
X284868Y363783D01*
X287583Y361068D01*
X289053Y357520D01*
X289053Y353680D01*
X287583Y350132D01*
X284868Y347417D01*
X281320Y345947D01*
X277480Y345947D01*
G37*
%LPD*%
%LPC*%
G36*
X137780Y282447D02*
X137780Y282447D01*
X134232Y283917D01*
X131517Y286632D01*
X130047Y290180D01*
X130047Y294020D01*
X131517Y297568D01*
X134232Y300283D01*
X137780Y301753D01*
X141620Y301753D01*
X145168Y300283D01*
X147883Y297568D01*
X149353Y294020D01*
X149353Y290180D01*
X147883Y286632D01*
X145168Y283917D01*
X141620Y282447D01*
X137780Y282447D01*
G37*
%LPD*%
%LPC*%
G36*
X163180Y282447D02*
X163180Y282447D01*
X159632Y283917D01*
X156917Y286632D01*
X155447Y290180D01*
X155447Y294020D01*
X156917Y297568D01*
X159632Y300283D01*
X163180Y301753D01*
X167020Y301753D01*
X170568Y300283D01*
X173283Y297568D01*
X174753Y294020D01*
X174753Y290180D01*
X173283Y286632D01*
X170568Y283917D01*
X167020Y282447D01*
X163180Y282447D01*
G37*
%LPD*%
%LPC*%
G36*
X86980Y28447D02*
X86980Y28447D01*
X83432Y29917D01*
X80717Y32632D01*
X79247Y36180D01*
X79247Y40020D01*
X80717Y43568D01*
X83432Y46283D01*
X86980Y47753D01*
X90820Y47753D01*
X94368Y46283D01*
X97083Y43568D01*
X98553Y40020D01*
X98553Y36180D01*
X97083Y32632D01*
X94368Y29917D01*
X90820Y28447D01*
X86980Y28447D01*
G37*
%LPD*%
%LPC*%
G36*
X112380Y28447D02*
X112380Y28447D01*
X108832Y29917D01*
X106117Y32632D01*
X104647Y36180D01*
X104647Y40020D01*
X106117Y43568D01*
X108832Y46283D01*
X112380Y47753D01*
X116220Y47753D01*
X119768Y46283D01*
X122483Y43568D01*
X123953Y40020D01*
X123953Y36180D01*
X122483Y32632D01*
X119768Y29917D01*
X116220Y28447D01*
X112380Y28447D01*
G37*
%LPD*%
%LPC*%
G36*
X518780Y320547D02*
X518780Y320547D01*
X515232Y322017D01*
X512517Y324732D01*
X511047Y328280D01*
X511047Y332120D01*
X512517Y335668D01*
X515232Y338383D01*
X518780Y339853D01*
X522620Y339853D01*
X526168Y338383D01*
X528883Y335668D01*
X530353Y332120D01*
X530353Y328280D01*
X528883Y324732D01*
X526168Y322017D01*
X522620Y320547D01*
X518780Y320547D01*
G37*
%LPD*%
%LPC*%
G36*
X493380Y320547D02*
X493380Y320547D01*
X489832Y322017D01*
X487117Y324732D01*
X485647Y328280D01*
X485647Y332120D01*
X487117Y335668D01*
X489832Y338383D01*
X493380Y339853D01*
X497220Y339853D01*
X500768Y338383D01*
X503483Y335668D01*
X504953Y332120D01*
X504953Y328280D01*
X503483Y324732D01*
X500768Y322017D01*
X497220Y320547D01*
X493380Y320547D01*
G37*
%LPD*%
%LPC*%
G36*
X415910Y41147D02*
X415910Y41147D01*
X412362Y42617D01*
X409647Y45332D01*
X408177Y48880D01*
X408177Y52720D01*
X409647Y56268D01*
X412362Y58983D01*
X415910Y60453D01*
X419750Y60453D01*
X423298Y58983D01*
X426013Y56268D01*
X427483Y52720D01*
X427483Y48880D01*
X426013Y45332D01*
X423298Y42617D01*
X419750Y41147D01*
X415910Y41147D01*
G37*
%LPD*%
%LPC*%
G36*
X441310Y41147D02*
X441310Y41147D01*
X437762Y42617D01*
X435047Y45332D01*
X433577Y48880D01*
X433577Y52720D01*
X435047Y56268D01*
X437762Y58983D01*
X441310Y60453D01*
X445150Y60453D01*
X448698Y58983D01*
X451413Y56268D01*
X452883Y52720D01*
X452883Y48880D01*
X451413Y45332D01*
X448698Y42617D01*
X445150Y41147D01*
X441310Y41147D01*
G37*
%LPD*%
%LPC*%
G36*
X467980Y41147D02*
X467980Y41147D01*
X464432Y42617D01*
X461717Y45332D01*
X460247Y48880D01*
X460247Y52720D01*
X461717Y56268D01*
X464432Y58983D01*
X467980Y60453D01*
X471820Y60453D01*
X475368Y58983D01*
X478083Y56268D01*
X479553Y52720D01*
X479553Y48880D01*
X478083Y45332D01*
X475368Y42617D01*
X471820Y41147D01*
X467980Y41147D01*
G37*
%LPD*%
%LPC*%
G36*
X493380Y41147D02*
X493380Y41147D01*
X489832Y42617D01*
X487117Y45332D01*
X485647Y48880D01*
X485647Y52720D01*
X487117Y56268D01*
X489832Y58983D01*
X493380Y60453D01*
X497220Y60453D01*
X500768Y58983D01*
X503483Y56268D01*
X504953Y52720D01*
X504953Y48880D01*
X503483Y45332D01*
X500768Y42617D01*
X497220Y41147D01*
X493380Y41147D01*
G37*
%LPD*%
%LPC*%
G36*
X415910Y66547D02*
X415910Y66547D01*
X412362Y68017D01*
X409647Y70732D01*
X408177Y74280D01*
X408177Y78120D01*
X409647Y81668D01*
X412362Y84383D01*
X415910Y85853D01*
X419750Y85853D01*
X423298Y84383D01*
X426013Y81668D01*
X427483Y78120D01*
X427483Y74280D01*
X426013Y70732D01*
X423298Y68017D01*
X419750Y66547D01*
X415910Y66547D01*
G37*
%LPD*%
%LPC*%
G36*
X441310Y66547D02*
X441310Y66547D01*
X437762Y68017D01*
X435047Y70732D01*
X433577Y74280D01*
X433577Y78120D01*
X435047Y81668D01*
X437762Y84383D01*
X441310Y85853D01*
X445150Y85853D01*
X448698Y84383D01*
X451413Y81668D01*
X452883Y78120D01*
X452883Y74280D01*
X451413Y70732D01*
X448698Y68017D01*
X445150Y66547D01*
X441310Y66547D01*
G37*
%LPD*%
%LPC*%
G36*
X467980Y66547D02*
X467980Y66547D01*
X464432Y68017D01*
X461717Y70732D01*
X460247Y74280D01*
X460247Y78120D01*
X461717Y81668D01*
X464432Y84383D01*
X467980Y85853D01*
X471820Y85853D01*
X475368Y84383D01*
X478083Y81668D01*
X479553Y78120D01*
X479553Y74280D01*
X478083Y70732D01*
X475368Y68017D01*
X471820Y66547D01*
X467980Y66547D01*
G37*
%LPD*%
%LPC*%
G36*
X493380Y66547D02*
X493380Y66547D01*
X489832Y68017D01*
X487117Y70732D01*
X485647Y74280D01*
X485647Y78120D01*
X487117Y81668D01*
X489832Y84383D01*
X493380Y85853D01*
X497220Y85853D01*
X500768Y84383D01*
X503483Y81668D01*
X504953Y78120D01*
X504953Y74280D01*
X503483Y70732D01*
X500768Y68017D01*
X497220Y66547D01*
X493380Y66547D01*
G37*
%LPD*%
%LPC*%
G36*
X99680Y91947D02*
X99680Y91947D01*
X96132Y93417D01*
X93417Y96132D01*
X91947Y99680D01*
X91947Y103520D01*
X93417Y107068D01*
X96132Y109783D01*
X99680Y111253D01*
X103520Y111253D01*
X107068Y109783D01*
X109783Y107068D01*
X111253Y103520D01*
X111253Y99680D01*
X109783Y96132D01*
X107068Y93417D01*
X103520Y91947D01*
X99680Y91947D01*
G37*
%LPD*%
%LPC*%
G36*
X150480Y345947D02*
X150480Y345947D01*
X146932Y347417D01*
X144217Y350132D01*
X142747Y353680D01*
X142747Y357520D01*
X144217Y361068D01*
X146932Y363783D01*
X150480Y365253D01*
X154320Y365253D01*
X157868Y363783D01*
X160583Y361068D01*
X162053Y357520D01*
X162053Y353680D01*
X160583Y350132D01*
X157868Y347417D01*
X154320Y345947D01*
X150480Y345947D01*
G37*
%LPD*%
%LPC*%
G36*
X125080Y91947D02*
X125080Y91947D01*
X121532Y93417D01*
X118817Y96132D01*
X117347Y99680D01*
X117347Y103520D01*
X118817Y107068D01*
X121532Y109783D01*
X125080Y111253D01*
X128920Y111253D01*
X132468Y109783D01*
X135183Y107068D01*
X136653Y103520D01*
X136653Y99680D01*
X135183Y96132D01*
X132468Y93417D01*
X128920Y91947D01*
X125080Y91947D01*
G37*
%LPD*%
%LPC*%
G36*
X150480Y91947D02*
X150480Y91947D01*
X146932Y93417D01*
X144217Y96132D01*
X142747Y99680D01*
X142747Y103520D01*
X144217Y107068D01*
X146932Y109783D01*
X150480Y111253D01*
X154320Y111253D01*
X157868Y109783D01*
X160583Y107068D01*
X162053Y103520D01*
X162053Y99680D01*
X160583Y96132D01*
X157868Y93417D01*
X154320Y91947D01*
X150480Y91947D01*
G37*
%LPD*%
%LPC*%
G36*
X277480Y91947D02*
X277480Y91947D01*
X273932Y93417D01*
X271217Y96132D01*
X269747Y99680D01*
X269747Y103520D01*
X271217Y107068D01*
X273932Y109783D01*
X277480Y111253D01*
X281320Y111253D01*
X284868Y109783D01*
X287583Y107068D01*
X289053Y103520D01*
X289053Y99680D01*
X287583Y96132D01*
X284868Y93417D01*
X281320Y91947D01*
X277480Y91947D01*
G37*
%LPD*%
%LPC*%
G36*
X86980Y282447D02*
X86980Y282447D01*
X83432Y283917D01*
X80717Y286632D01*
X79247Y290180D01*
X79247Y294020D01*
X80717Y297568D01*
X83432Y300283D01*
X86980Y301753D01*
X90820Y301753D01*
X94368Y300283D01*
X97083Y297568D01*
X98553Y294020D01*
X98553Y290180D01*
X97083Y286632D01*
X94368Y283917D01*
X90820Y282447D01*
X86980Y282447D01*
G37*
%LPD*%
%LPC*%
G36*
X112380Y282447D02*
X112380Y282447D01*
X108832Y283917D01*
X106117Y286632D01*
X104647Y290180D01*
X104647Y294020D01*
X106117Y297568D01*
X108832Y300283D01*
X112380Y301753D01*
X116220Y301753D01*
X119768Y300283D01*
X122483Y297568D01*
X123953Y294020D01*
X123953Y290180D01*
X122483Y286632D01*
X119768Y283917D01*
X116220Y282447D01*
X112380Y282447D01*
G37*
%LPD*%
%LPC*%
G36*
X340980Y282447D02*
X340980Y282447D01*
X337432Y283917D01*
X334717Y286632D01*
X333247Y290180D01*
X333247Y294020D01*
X334717Y297568D01*
X337432Y300283D01*
X340980Y301753D01*
X344820Y301753D01*
X348368Y300283D01*
X351083Y297568D01*
X352553Y294020D01*
X352553Y290180D01*
X351083Y286632D01*
X348368Y283917D01*
X344820Y282447D01*
X340980Y282447D01*
G37*
%LPD*%
%LPC*%
G36*
X137780Y28447D02*
X137780Y28447D01*
X134232Y29917D01*
X131517Y32632D01*
X130047Y36180D01*
X130047Y40020D01*
X131517Y43568D01*
X134232Y46283D01*
X137780Y47753D01*
X141620Y47753D01*
X145168Y46283D01*
X147883Y43568D01*
X149353Y40020D01*
X149353Y36180D01*
X147883Y32632D01*
X145168Y29917D01*
X141620Y28447D01*
X137780Y28447D01*
G37*
%LPD*%
%LPC*%
G36*
X315580Y282447D02*
X315580Y282447D01*
X312032Y283917D01*
X309317Y286632D01*
X307847Y290180D01*
X307847Y294020D01*
X309317Y297568D01*
X312032Y300283D01*
X315580Y301753D01*
X319420Y301753D01*
X322968Y300283D01*
X325683Y297568D01*
X327153Y294020D01*
X327153Y290180D01*
X325683Y286632D01*
X322968Y283917D01*
X319420Y282447D01*
X315580Y282447D01*
G37*
%LPD*%
%LPC*%
G36*
X302880Y91947D02*
X302880Y91947D01*
X299332Y93417D01*
X296617Y96132D01*
X295147Y99680D01*
X295147Y103520D01*
X296617Y107068D01*
X299332Y109783D01*
X302880Y111253D01*
X306720Y111253D01*
X310268Y109783D01*
X312983Y107068D01*
X314453Y103520D01*
X314453Y99680D01*
X312983Y96132D01*
X310268Y93417D01*
X306720Y91947D01*
X302880Y91947D01*
G37*
%LPD*%
%LPC*%
G36*
X328280Y91947D02*
X328280Y91947D01*
X324732Y93417D01*
X322017Y96132D01*
X320547Y99680D01*
X320547Y103520D01*
X322017Y107068D01*
X324732Y109783D01*
X328280Y111253D01*
X332120Y111253D01*
X335668Y109783D01*
X338383Y107068D01*
X339853Y103520D01*
X339853Y99680D01*
X338383Y96132D01*
X335668Y93417D01*
X332120Y91947D01*
X328280Y91947D01*
G37*
%LPD*%
%LPC*%
G36*
X415910Y91947D02*
X415910Y91947D01*
X412362Y93417D01*
X409647Y96132D01*
X408177Y99680D01*
X408177Y103520D01*
X409647Y107068D01*
X412362Y109783D01*
X415910Y111253D01*
X419750Y111253D01*
X423298Y109783D01*
X426013Y107068D01*
X427483Y103520D01*
X427483Y99680D01*
X426013Y96132D01*
X423298Y93417D01*
X419750Y91947D01*
X415910Y91947D01*
G37*
%LPD*%
%LPC*%
G36*
X441310Y91947D02*
X441310Y91947D01*
X437762Y93417D01*
X435047Y96132D01*
X433577Y99680D01*
X433577Y103520D01*
X435047Y107068D01*
X437762Y109783D01*
X441310Y111253D01*
X445150Y111253D01*
X448698Y109783D01*
X451413Y107068D01*
X452883Y103520D01*
X452883Y99680D01*
X451413Y96132D01*
X448698Y93417D01*
X445150Y91947D01*
X441310Y91947D01*
G37*
%LPD*%
%LPC*%
G36*
X467980Y91947D02*
X467980Y91947D01*
X464432Y93417D01*
X461717Y96132D01*
X460247Y99680D01*
X460247Y103520D01*
X461717Y107068D01*
X464432Y109783D01*
X467980Y111253D01*
X471820Y111253D01*
X475368Y109783D01*
X478083Y107068D01*
X479553Y103520D01*
X479553Y99680D01*
X478083Y96132D01*
X475368Y93417D01*
X471820Y91947D01*
X467980Y91947D01*
G37*
%LPD*%
%LPC*%
G36*
X493380Y91947D02*
X493380Y91947D01*
X489832Y93417D01*
X487117Y96132D01*
X485647Y99680D01*
X485647Y103520D01*
X487117Y107068D01*
X489832Y109783D01*
X493380Y111253D01*
X497220Y111253D01*
X500768Y109783D01*
X503483Y107068D01*
X504953Y103520D01*
X504953Y99680D01*
X503483Y96132D01*
X500768Y93417D01*
X497220Y91947D01*
X493380Y91947D01*
G37*
%LPD*%
%LPC*%
G36*
X415910Y117347D02*
X415910Y117347D01*
X412362Y118817D01*
X409647Y121532D01*
X408177Y125080D01*
X408177Y128920D01*
X409647Y132468D01*
X412362Y135183D01*
X415910Y136653D01*
X419750Y136653D01*
X423298Y135183D01*
X426013Y132468D01*
X427483Y128920D01*
X427483Y125080D01*
X426013Y121532D01*
X423298Y118817D01*
X419750Y117347D01*
X415910Y117347D01*
G37*
%LPD*%
%LPC*%
G36*
X441310Y117347D02*
X441310Y117347D01*
X437762Y118817D01*
X435047Y121532D01*
X433577Y125080D01*
X433577Y128920D01*
X435047Y132468D01*
X437762Y135183D01*
X441310Y136653D01*
X445150Y136653D01*
X448698Y135183D01*
X451413Y132468D01*
X452883Y128920D01*
X452883Y125080D01*
X451413Y121532D01*
X448698Y118817D01*
X445150Y117347D01*
X441310Y117347D01*
G37*
%LPD*%
%LPC*%
G36*
X518780Y244347D02*
X518780Y244347D01*
X515232Y245817D01*
X512517Y248532D01*
X511047Y252080D01*
X511047Y255920D01*
X512517Y259468D01*
X515232Y262183D01*
X518780Y263653D01*
X522620Y263653D01*
X526168Y262183D01*
X528883Y259468D01*
X530353Y255920D01*
X530353Y252080D01*
X528883Y248532D01*
X526168Y245817D01*
X522620Y244347D01*
X518780Y244347D01*
G37*
%LPD*%
%LPC*%
G36*
X467980Y117347D02*
X467980Y117347D01*
X464432Y118817D01*
X461717Y121532D01*
X460247Y125080D01*
X460247Y128920D01*
X461717Y132468D01*
X464432Y135183D01*
X467980Y136653D01*
X471820Y136653D01*
X475368Y135183D01*
X478083Y132468D01*
X479553Y128920D01*
X479553Y125080D01*
X478083Y121532D01*
X475368Y118817D01*
X471820Y117347D01*
X467980Y117347D01*
G37*
%LPD*%
%LPC*%
G36*
X493380Y117347D02*
X493380Y117347D01*
X489832Y118817D01*
X487117Y121532D01*
X485647Y125080D01*
X485647Y128920D01*
X487117Y132468D01*
X489832Y135183D01*
X493380Y136653D01*
X497220Y136653D01*
X500768Y135183D01*
X503483Y132468D01*
X504953Y128920D01*
X504953Y125080D01*
X503483Y121532D01*
X500768Y118817D01*
X497220Y117347D01*
X493380Y117347D01*
G37*
%LPD*%
%LPC*%
G36*
X493380Y142747D02*
X493380Y142747D01*
X489832Y144217D01*
X487117Y146932D01*
X485647Y150480D01*
X485647Y154320D01*
X487117Y157868D01*
X489832Y160583D01*
X493380Y162053D01*
X497220Y162053D01*
X500768Y160583D01*
X503483Y157868D01*
X504953Y154320D01*
X504953Y150480D01*
X503483Y146932D01*
X500768Y144217D01*
X497220Y142747D01*
X493380Y142747D01*
G37*
%LPD*%
%LPC*%
G36*
X518780Y371347D02*
X518780Y371347D01*
X515232Y372817D01*
X512517Y375532D01*
X511047Y379080D01*
X511047Y382920D01*
X512517Y386468D01*
X515232Y389183D01*
X518780Y390653D01*
X522620Y390653D01*
X526168Y389183D01*
X528883Y386468D01*
X530353Y382920D01*
X530353Y379080D01*
X528883Y375532D01*
X526168Y372817D01*
X522620Y371347D01*
X518780Y371347D01*
G37*
%LPD*%
%LPC*%
G36*
X493380Y371347D02*
X493380Y371347D01*
X489832Y372817D01*
X487117Y375532D01*
X485647Y379080D01*
X485647Y382920D01*
X487117Y386468D01*
X489832Y389183D01*
X493380Y390653D01*
X497220Y390653D01*
X500768Y389183D01*
X503483Y386468D01*
X504953Y382920D01*
X504953Y379080D01*
X503483Y375532D01*
X500768Y372817D01*
X497220Y371347D01*
X493380Y371347D01*
G37*
%LPD*%
%LPC*%
G36*
X518780Y142747D02*
X518780Y142747D01*
X515232Y144217D01*
X512517Y146932D01*
X511047Y150480D01*
X511047Y154320D01*
X512517Y157868D01*
X515232Y160583D01*
X518780Y162053D01*
X522620Y162053D01*
X526168Y160583D01*
X528883Y157868D01*
X530353Y154320D01*
X530353Y150480D01*
X528883Y146932D01*
X526168Y144217D01*
X522620Y142747D01*
X518780Y142747D01*
G37*
%LPD*%
%LPC*%
G36*
X493380Y168147D02*
X493380Y168147D01*
X489832Y169617D01*
X487117Y172332D01*
X485647Y175880D01*
X485647Y179720D01*
X487117Y183268D01*
X489832Y185983D01*
X493380Y187453D01*
X497220Y187453D01*
X500768Y185983D01*
X503483Y183268D01*
X504953Y179720D01*
X504953Y175880D01*
X503483Y172332D01*
X500768Y169617D01*
X497220Y168147D01*
X493380Y168147D01*
G37*
%LPD*%
%LPC*%
G36*
X518780Y168147D02*
X518780Y168147D01*
X515232Y169617D01*
X512517Y172332D01*
X511047Y175880D01*
X511047Y179720D01*
X512517Y183268D01*
X515232Y185983D01*
X518780Y187453D01*
X522620Y187453D01*
X526168Y185983D01*
X528883Y183268D01*
X530353Y179720D01*
X530353Y175880D01*
X528883Y172332D01*
X526168Y169617D01*
X522620Y168147D01*
X518780Y168147D01*
G37*
%LPD*%
%LPC*%
G36*
X493380Y193547D02*
X493380Y193547D01*
X489832Y195017D01*
X487117Y197732D01*
X485647Y201280D01*
X485647Y205120D01*
X487117Y208668D01*
X489832Y211383D01*
X493380Y212853D01*
X497220Y212853D01*
X500768Y211383D01*
X503483Y208668D01*
X504953Y205120D01*
X504953Y201280D01*
X503483Y197732D01*
X500768Y195017D01*
X497220Y193547D01*
X493380Y193547D01*
G37*
%LPD*%
%LPC*%
G36*
X518780Y193547D02*
X518780Y193547D01*
X515232Y195017D01*
X512517Y197732D01*
X511047Y201280D01*
X511047Y205120D01*
X512517Y208668D01*
X515232Y211383D01*
X518780Y212853D01*
X522620Y212853D01*
X526168Y211383D01*
X528883Y208668D01*
X530353Y205120D01*
X530353Y201280D01*
X528883Y197732D01*
X526168Y195017D01*
X522620Y193547D01*
X518780Y193547D01*
G37*
%LPD*%
%LPC*%
G36*
X493380Y218947D02*
X493380Y218947D01*
X489832Y220417D01*
X487117Y223132D01*
X485647Y226680D01*
X485647Y230520D01*
X487117Y234068D01*
X489832Y236783D01*
X493380Y238253D01*
X497220Y238253D01*
X500768Y236783D01*
X503483Y234068D01*
X504953Y230520D01*
X504953Y226680D01*
X503483Y223132D01*
X500768Y220417D01*
X497220Y218947D01*
X493380Y218947D01*
G37*
%LPD*%
%LPC*%
G36*
X518780Y218947D02*
X518780Y218947D01*
X515232Y220417D01*
X512517Y223132D01*
X511047Y226680D01*
X511047Y230520D01*
X512517Y234068D01*
X515232Y236783D01*
X518780Y238253D01*
X522620Y238253D01*
X526168Y236783D01*
X528883Y234068D01*
X530353Y230520D01*
X530353Y226680D01*
X528883Y223132D01*
X526168Y220417D01*
X522620Y218947D01*
X518780Y218947D01*
G37*
%LPD*%
%LPC*%
G36*
X493380Y244347D02*
X493380Y244347D01*
X489832Y245817D01*
X487117Y248532D01*
X485647Y252080D01*
X485647Y255920D01*
X487117Y259468D01*
X489832Y262183D01*
X493380Y263653D01*
X497220Y263653D01*
X500768Y262183D01*
X503483Y259468D01*
X504953Y255920D01*
X504953Y252080D01*
X503483Y248532D01*
X500768Y245817D01*
X497220Y244347D01*
X493380Y244347D01*
G37*
%LPD*%
%LPC*%
G36*
X302880Y345947D02*
X302880Y345947D01*
X299332Y347417D01*
X296617Y350132D01*
X295147Y353680D01*
X295147Y357520D01*
X296617Y361068D01*
X299332Y363783D01*
X302880Y365253D01*
X306720Y365253D01*
X310268Y363783D01*
X312983Y361068D01*
X314453Y357520D01*
X314453Y353680D01*
X312983Y350132D01*
X310268Y347417D01*
X306720Y345947D01*
X302880Y345947D01*
G37*
%LPD*%
%LPC*%
G36*
X518780Y345947D02*
X518780Y345947D01*
X515232Y347417D01*
X512517Y350132D01*
X511047Y353680D01*
X511047Y357520D01*
X512517Y361068D01*
X515232Y363783D01*
X518780Y365253D01*
X522620Y365253D01*
X526168Y363783D01*
X528883Y361068D01*
X530353Y357520D01*
X530353Y353680D01*
X528883Y350132D01*
X526168Y347417D01*
X522620Y345947D01*
X518780Y345947D01*
G37*
%LPD*%
%LPC*%
G36*
X493380Y345947D02*
X493380Y345947D01*
X489832Y347417D01*
X487117Y350132D01*
X485647Y353680D01*
X485647Y357520D01*
X487117Y361068D01*
X489832Y363783D01*
X493380Y365253D01*
X497220Y365253D01*
X500768Y363783D01*
X503483Y361068D01*
X504953Y357520D01*
X504953Y353680D01*
X503483Y350132D01*
X500768Y347417D01*
X497220Y345947D01*
X493380Y345947D01*
G37*
%LPD*%
%LPC*%
G36*
X328280Y345947D02*
X328280Y345947D01*
X324732Y347417D01*
X322017Y350132D01*
X320547Y353680D01*
X320547Y357520D01*
X322017Y361068D01*
X324732Y363783D01*
X328280Y365253D01*
X332120Y365253D01*
X335668Y363783D01*
X338383Y361068D01*
X339853Y357520D01*
X339853Y353680D01*
X338383Y350132D01*
X335668Y347417D01*
X332120Y345947D01*
X328280Y345947D01*
G37*
%LPD*%
%LPC*%
G36*
X99680Y345947D02*
X99680Y345947D01*
X96132Y347417D01*
X93417Y350132D01*
X91947Y353680D01*
X91947Y357520D01*
X93417Y361068D01*
X96132Y363783D01*
X99680Y365253D01*
X103520Y365253D01*
X107068Y363783D01*
X109783Y361068D01*
X111253Y357520D01*
X111253Y353680D01*
X109783Y350132D01*
X107068Y347417D01*
X103520Y345947D01*
X99680Y345947D01*
G37*
%LPD*%
%LPC*%
G36*
X478162Y469329D02*
X478162Y469329D01*
X474656Y470782D01*
X471972Y473466D01*
X470519Y476972D01*
X470519Y480768D01*
X471972Y484274D01*
X474656Y486958D01*
X478162Y488411D01*
X481958Y488411D01*
X485464Y486958D01*
X488148Y484274D01*
X489601Y480768D01*
X489601Y476972D01*
X488148Y473466D01*
X485464Y470782D01*
X481958Y469329D01*
X478162Y469329D01*
G37*
%LPD*%
%LPC*%
G36*
X431162Y439329D02*
X431162Y439329D01*
X427656Y440782D01*
X424972Y443466D01*
X423519Y446972D01*
X423519Y450768D01*
X424972Y454274D01*
X427656Y456958D01*
X431162Y458411D01*
X434958Y458411D01*
X438464Y456958D01*
X441148Y454274D01*
X442601Y450768D01*
X442601Y446972D01*
X441148Y443466D01*
X438464Y440782D01*
X434958Y439329D01*
X431162Y439329D01*
G37*
%LPD*%
%LPC*%
G36*
X478162Y409329D02*
X478162Y409329D01*
X474656Y410782D01*
X471972Y413466D01*
X470519Y416972D01*
X470519Y420768D01*
X471972Y424274D01*
X474656Y426958D01*
X478162Y428411D01*
X481958Y428411D01*
X485464Y426958D01*
X488148Y424274D01*
X489601Y420768D01*
X489601Y416972D01*
X488148Y413466D01*
X485464Y410782D01*
X481958Y409329D01*
X478162Y409329D01*
G37*
%LPD*%
%LPC*%
G36*
X366557Y499236D02*
X366557Y499236D01*
X363336Y500570D01*
X360870Y503036D01*
X359536Y506257D01*
X359536Y509743D01*
X360870Y512964D01*
X363336Y515430D01*
X366557Y516764D01*
X370043Y516764D01*
X373264Y515430D01*
X375730Y512964D01*
X377064Y509743D01*
X377064Y506257D01*
X375730Y503036D01*
X373264Y500570D01*
X370043Y499236D01*
X366557Y499236D01*
G37*
%LPD*%
%LPC*%
G36*
X239557Y499236D02*
X239557Y499236D01*
X236336Y500570D01*
X233870Y503036D01*
X232536Y506257D01*
X232536Y509743D01*
X233870Y512964D01*
X236336Y515430D01*
X239557Y516764D01*
X243043Y516764D01*
X246264Y515430D01*
X248730Y512964D01*
X250064Y509743D01*
X250064Y506257D01*
X248730Y503036D01*
X246264Y500570D01*
X243043Y499236D01*
X239557Y499236D01*
G37*
%LPD*%
%LPC*%
G36*
X188757Y499236D02*
X188757Y499236D01*
X185536Y500570D01*
X183070Y503036D01*
X181736Y506257D01*
X181736Y509743D01*
X183070Y512964D01*
X185536Y515430D01*
X188757Y516764D01*
X192243Y516764D01*
X195464Y515430D01*
X197930Y512964D01*
X199264Y509743D01*
X199264Y506257D01*
X197930Y503036D01*
X195464Y500570D01*
X192243Y499236D01*
X188757Y499236D01*
G37*
%LPD*%
%LPC*%
G36*
X61757Y499236D02*
X61757Y499236D01*
X58536Y500570D01*
X56070Y503036D01*
X54736Y506257D01*
X54736Y509743D01*
X56070Y512964D01*
X58536Y515430D01*
X61757Y516764D01*
X65243Y516764D01*
X68464Y515430D01*
X70930Y512964D01*
X72264Y509743D01*
X72264Y506257D01*
X70930Y503036D01*
X68464Y500570D01*
X65243Y499236D01*
X61757Y499236D01*
G37*
%LPD*%
%LPC*%
G36*
X597957Y482136D02*
X597957Y482136D01*
X594736Y483470D01*
X592270Y485936D01*
X590936Y489157D01*
X590936Y492643D01*
X592270Y495864D01*
X594736Y498330D01*
X597957Y499664D01*
X601443Y499664D01*
X604664Y498330D01*
X607130Y495864D01*
X608464Y492643D01*
X608464Y489157D01*
X607130Y485936D01*
X604664Y483470D01*
X601443Y482136D01*
X597957Y482136D01*
G37*
%LPD*%
%LPC*%
G36*
X572557Y482136D02*
X572557Y482136D01*
X569336Y483470D01*
X566870Y485936D01*
X565536Y489157D01*
X565536Y492643D01*
X566870Y495864D01*
X569336Y498330D01*
X572557Y499664D01*
X576043Y499664D01*
X579264Y498330D01*
X581730Y495864D01*
X583064Y492643D01*
X583064Y489157D01*
X581730Y485936D01*
X579264Y483470D01*
X576043Y482136D01*
X572557Y482136D01*
G37*
%LPD*%
%LPC*%
G36*
X851957Y482136D02*
X851957Y482136D01*
X848736Y483470D01*
X846270Y485936D01*
X844936Y489157D01*
X844936Y492643D01*
X846270Y495864D01*
X848736Y498330D01*
X851957Y499664D01*
X855443Y499664D01*
X858664Y498330D01*
X861130Y495864D01*
X862464Y492643D01*
X862464Y489157D01*
X861130Y485936D01*
X858664Y483470D01*
X855443Y482136D01*
X851957Y482136D01*
G37*
%LPD*%
%LPC*%
G36*
X826557Y482136D02*
X826557Y482136D01*
X823336Y483470D01*
X820870Y485936D01*
X819536Y489157D01*
X819536Y492643D01*
X820870Y495864D01*
X823336Y498330D01*
X826557Y499664D01*
X830043Y499664D01*
X833264Y498330D01*
X835730Y495864D01*
X837064Y492643D01*
X837064Y489157D01*
X835730Y485936D01*
X833264Y483470D01*
X830043Y482136D01*
X826557Y482136D01*
G37*
%LPD*%
%LPC*%
G36*
X366557Y473836D02*
X366557Y473836D01*
X363336Y475170D01*
X360870Y477636D01*
X359536Y480857D01*
X359536Y484343D01*
X360870Y487564D01*
X363336Y490030D01*
X366557Y491364D01*
X370043Y491364D01*
X373264Y490030D01*
X375730Y487564D01*
X377064Y484343D01*
X377064Y480857D01*
X375730Y477636D01*
X373264Y475170D01*
X370043Y473836D01*
X366557Y473836D01*
G37*
%LPD*%
%LPC*%
G36*
X239557Y473836D02*
X239557Y473836D01*
X236336Y475170D01*
X233870Y477636D01*
X232536Y480857D01*
X232536Y484343D01*
X233870Y487564D01*
X236336Y490030D01*
X239557Y491364D01*
X243043Y491364D01*
X246264Y490030D01*
X248730Y487564D01*
X250064Y484343D01*
X250064Y480857D01*
X248730Y477636D01*
X246264Y475170D01*
X243043Y473836D01*
X239557Y473836D01*
G37*
%LPD*%
%LPC*%
G36*
X188757Y473836D02*
X188757Y473836D01*
X185536Y475170D01*
X183070Y477636D01*
X181736Y480857D01*
X181736Y484343D01*
X183070Y487564D01*
X185536Y490030D01*
X188757Y491364D01*
X192243Y491364D01*
X195464Y490030D01*
X197930Y487564D01*
X199264Y484343D01*
X199264Y480857D01*
X197930Y477636D01*
X195464Y475170D01*
X192243Y473836D01*
X188757Y473836D01*
G37*
%LPD*%
%LPC*%
G36*
X61757Y473836D02*
X61757Y473836D01*
X58536Y475170D01*
X56070Y477636D01*
X54736Y480857D01*
X54736Y484343D01*
X56070Y487564D01*
X58536Y490030D01*
X61757Y491364D01*
X65243Y491364D01*
X68464Y490030D01*
X70930Y487564D01*
X72264Y484343D01*
X72264Y480857D01*
X70930Y477636D01*
X68464Y475170D01*
X65243Y473836D01*
X61757Y473836D01*
G37*
%LPD*%
%LPC*%
G36*
X826557Y75736D02*
X826557Y75736D01*
X823336Y77070D01*
X820870Y79536D01*
X819536Y82757D01*
X819536Y86243D01*
X820870Y89464D01*
X823336Y91930D01*
X826557Y93264D01*
X830043Y93264D01*
X833264Y91930D01*
X835730Y89464D01*
X837064Y86243D01*
X837064Y82757D01*
X835730Y79536D01*
X833264Y77070D01*
X830043Y75736D01*
X826557Y75736D01*
G37*
%LPD*%
%LPC*%
G36*
X188757Y67436D02*
X188757Y67436D01*
X185536Y68770D01*
X183070Y71236D01*
X181736Y74457D01*
X181736Y77943D01*
X183070Y81164D01*
X185536Y83630D01*
X188757Y84964D01*
X192243Y84964D01*
X195464Y83630D01*
X197930Y81164D01*
X199264Y77943D01*
X199264Y74457D01*
X197930Y71236D01*
X195464Y68770D01*
X192243Y67436D01*
X188757Y67436D01*
G37*
%LPD*%
%LPC*%
G36*
X572557Y177336D02*
X572557Y177336D01*
X569336Y178670D01*
X566870Y181136D01*
X565536Y184357D01*
X565536Y187843D01*
X566870Y191064D01*
X569336Y193530D01*
X572557Y194864D01*
X576043Y194864D01*
X579264Y193530D01*
X581730Y191064D01*
X583064Y187843D01*
X583064Y184357D01*
X581730Y181136D01*
X579264Y178670D01*
X576043Y177336D01*
X572557Y177336D01*
G37*
%LPD*%
%LPC*%
G36*
X366557Y67436D02*
X366557Y67436D01*
X363336Y68770D01*
X360870Y71236D01*
X359536Y74457D01*
X359536Y77943D01*
X360870Y81164D01*
X363336Y83630D01*
X366557Y84964D01*
X370043Y84964D01*
X373264Y83630D01*
X375730Y81164D01*
X377064Y77943D01*
X377064Y74457D01*
X375730Y71236D01*
X373264Y68770D01*
X370043Y67436D01*
X366557Y67436D01*
G37*
%LPD*%
%LPC*%
G36*
X239557Y67436D02*
X239557Y67436D01*
X236336Y68770D01*
X233870Y71236D01*
X232536Y74457D01*
X232536Y77943D01*
X233870Y81164D01*
X236336Y83630D01*
X239557Y84964D01*
X243043Y84964D01*
X246264Y83630D01*
X248730Y81164D01*
X250064Y77943D01*
X250064Y74457D01*
X248730Y71236D01*
X246264Y68770D01*
X243043Y67436D01*
X239557Y67436D01*
G37*
%LPD*%
%LPC*%
G36*
X851957Y50336D02*
X851957Y50336D01*
X848736Y51670D01*
X846270Y54136D01*
X844936Y57357D01*
X844936Y60843D01*
X846270Y64064D01*
X848736Y66530D01*
X851957Y67864D01*
X855443Y67864D01*
X858664Y66530D01*
X861130Y64064D01*
X862464Y60843D01*
X862464Y57357D01*
X861130Y54136D01*
X858664Y51670D01*
X855443Y50336D01*
X851957Y50336D01*
G37*
%LPD*%
%LPC*%
G36*
X826557Y50336D02*
X826557Y50336D01*
X823336Y51670D01*
X820870Y54136D01*
X819536Y57357D01*
X819536Y60843D01*
X820870Y64064D01*
X823336Y66530D01*
X826557Y67864D01*
X830043Y67864D01*
X833264Y66530D01*
X835730Y64064D01*
X837064Y60843D01*
X837064Y57357D01*
X835730Y54136D01*
X833264Y51670D01*
X830043Y50336D01*
X826557Y50336D01*
G37*
%LPD*%
%LPC*%
G36*
X597957Y456736D02*
X597957Y456736D01*
X594736Y458070D01*
X592270Y460536D01*
X590936Y463757D01*
X590936Y467243D01*
X592270Y470464D01*
X594736Y472930D01*
X597957Y474264D01*
X601443Y474264D01*
X604664Y472930D01*
X607130Y470464D01*
X608464Y467243D01*
X608464Y463757D01*
X607130Y460536D01*
X604664Y458070D01*
X601443Y456736D01*
X597957Y456736D01*
G37*
%LPD*%
%LPC*%
G36*
X572557Y456736D02*
X572557Y456736D01*
X569336Y458070D01*
X566870Y460536D01*
X565536Y463757D01*
X565536Y467243D01*
X566870Y470464D01*
X569336Y472930D01*
X572557Y474264D01*
X576043Y474264D01*
X579264Y472930D01*
X581730Y470464D01*
X583064Y467243D01*
X583064Y463757D01*
X581730Y460536D01*
X579264Y458070D01*
X576043Y456736D01*
X572557Y456736D01*
G37*
%LPD*%
%LPC*%
G36*
X851957Y456736D02*
X851957Y456736D01*
X848736Y458070D01*
X846270Y460536D01*
X844936Y463757D01*
X844936Y467243D01*
X846270Y470464D01*
X848736Y472930D01*
X851957Y474264D01*
X855443Y474264D01*
X858664Y472930D01*
X861130Y470464D01*
X862464Y467243D01*
X862464Y463757D01*
X861130Y460536D01*
X858664Y458070D01*
X855443Y456736D01*
X851957Y456736D01*
G37*
%LPD*%
%LPC*%
G36*
X826557Y456736D02*
X826557Y456736D01*
X823336Y458070D01*
X820870Y460536D01*
X819536Y463757D01*
X819536Y467243D01*
X820870Y470464D01*
X823336Y472930D01*
X826557Y474264D01*
X830043Y474264D01*
X833264Y472930D01*
X835730Y470464D01*
X837064Y467243D01*
X837064Y463757D01*
X835730Y460536D01*
X833264Y458070D01*
X830043Y456736D01*
X826557Y456736D01*
G37*
%LPD*%
%LPC*%
G36*
X239557Y448436D02*
X239557Y448436D01*
X236336Y449770D01*
X233870Y452236D01*
X232536Y455457D01*
X232536Y458943D01*
X233870Y462164D01*
X236336Y464630D01*
X239557Y465964D01*
X243043Y465964D01*
X246264Y464630D01*
X248730Y462164D01*
X250064Y458943D01*
X250064Y455457D01*
X248730Y452236D01*
X246264Y449770D01*
X243043Y448436D01*
X239557Y448436D01*
G37*
%LPD*%
%LPC*%
G36*
X188757Y448436D02*
X188757Y448436D01*
X185536Y449770D01*
X183070Y452236D01*
X181736Y455457D01*
X181736Y458943D01*
X183070Y462164D01*
X185536Y464630D01*
X188757Y465964D01*
X192243Y465964D01*
X195464Y464630D01*
X197930Y462164D01*
X199264Y458943D01*
X199264Y455457D01*
X197930Y452236D01*
X195464Y449770D01*
X192243Y448436D01*
X188757Y448436D01*
G37*
%LPD*%
%LPC*%
G36*
X366557Y448436D02*
X366557Y448436D01*
X363336Y449770D01*
X360870Y452236D01*
X359536Y455457D01*
X359536Y458943D01*
X360870Y462164D01*
X363336Y464630D01*
X366557Y465964D01*
X370043Y465964D01*
X373264Y464630D01*
X375730Y462164D01*
X377064Y458943D01*
X377064Y455457D01*
X375730Y452236D01*
X373264Y449770D01*
X370043Y448436D01*
X366557Y448436D01*
G37*
%LPD*%
%LPC*%
G36*
X61757Y448436D02*
X61757Y448436D01*
X58536Y449770D01*
X56070Y452236D01*
X54736Y455457D01*
X54736Y458943D01*
X56070Y462164D01*
X58536Y464630D01*
X61757Y465964D01*
X65243Y465964D01*
X68464Y464630D01*
X70930Y462164D01*
X72264Y458943D01*
X72264Y455457D01*
X70930Y452236D01*
X68464Y449770D01*
X65243Y448436D01*
X61757Y448436D01*
G37*
%LPD*%
%LPC*%
G36*
X851957Y431336D02*
X851957Y431336D01*
X848736Y432670D01*
X846270Y435136D01*
X844936Y438357D01*
X844936Y441843D01*
X846270Y445064D01*
X848736Y447530D01*
X851957Y448864D01*
X855443Y448864D01*
X858664Y447530D01*
X861130Y445064D01*
X862464Y441843D01*
X862464Y438357D01*
X861130Y435136D01*
X858664Y432670D01*
X855443Y431336D01*
X851957Y431336D01*
G37*
%LPD*%
%LPC*%
G36*
X826557Y431336D02*
X826557Y431336D01*
X823336Y432670D01*
X820870Y435136D01*
X819536Y438357D01*
X819536Y441843D01*
X820870Y445064D01*
X823336Y447530D01*
X826557Y448864D01*
X830043Y448864D01*
X833264Y447530D01*
X835730Y445064D01*
X837064Y441843D01*
X837064Y438357D01*
X835730Y435136D01*
X833264Y432670D01*
X830043Y431336D01*
X826557Y431336D01*
G37*
%LPD*%
%LPC*%
G36*
X597957Y431336D02*
X597957Y431336D01*
X594736Y432670D01*
X592270Y435136D01*
X590936Y438357D01*
X590936Y441843D01*
X592270Y445064D01*
X594736Y447530D01*
X597957Y448864D01*
X601443Y448864D01*
X604664Y447530D01*
X607130Y445064D01*
X608464Y441843D01*
X608464Y438357D01*
X607130Y435136D01*
X604664Y432670D01*
X601443Y431336D01*
X597957Y431336D01*
G37*
%LPD*%
%LPC*%
G36*
X572557Y431336D02*
X572557Y431336D01*
X569336Y432670D01*
X566870Y435136D01*
X565536Y438357D01*
X565536Y441843D01*
X566870Y445064D01*
X569336Y447530D01*
X572557Y448864D01*
X576043Y448864D01*
X579264Y447530D01*
X581730Y445064D01*
X583064Y441843D01*
X583064Y438357D01*
X581730Y435136D01*
X579264Y432670D01*
X576043Y431336D01*
X572557Y431336D01*
G37*
%LPD*%
%LPC*%
G36*
X366557Y423036D02*
X366557Y423036D01*
X363336Y424370D01*
X360870Y426836D01*
X359536Y430057D01*
X359536Y433543D01*
X360870Y436764D01*
X363336Y439230D01*
X366557Y440564D01*
X370043Y440564D01*
X373264Y439230D01*
X375730Y436764D01*
X377064Y433543D01*
X377064Y430057D01*
X375730Y426836D01*
X373264Y424370D01*
X370043Y423036D01*
X366557Y423036D01*
G37*
%LPD*%
%LPC*%
G36*
X239557Y423036D02*
X239557Y423036D01*
X236336Y424370D01*
X233870Y426836D01*
X232536Y430057D01*
X232536Y433543D01*
X233870Y436764D01*
X236336Y439230D01*
X239557Y440564D01*
X243043Y440564D01*
X246264Y439230D01*
X248730Y436764D01*
X250064Y433543D01*
X250064Y430057D01*
X248730Y426836D01*
X246264Y424370D01*
X243043Y423036D01*
X239557Y423036D01*
G37*
%LPD*%
%LPC*%
G36*
X61757Y423036D02*
X61757Y423036D01*
X58536Y424370D01*
X56070Y426836D01*
X54736Y430057D01*
X54736Y433543D01*
X56070Y436764D01*
X58536Y439230D01*
X61757Y440564D01*
X65243Y440564D01*
X68464Y439230D01*
X70930Y436764D01*
X72264Y433543D01*
X72264Y430057D01*
X70930Y426836D01*
X68464Y424370D01*
X65243Y423036D01*
X61757Y423036D01*
G37*
%LPD*%
%LPC*%
G36*
X851957Y405936D02*
X851957Y405936D01*
X848736Y407270D01*
X846270Y409736D01*
X844936Y412957D01*
X844936Y416443D01*
X846270Y419664D01*
X848736Y422130D01*
X851957Y423464D01*
X855443Y423464D01*
X858664Y422130D01*
X861130Y419664D01*
X862464Y416443D01*
X862464Y412957D01*
X861130Y409736D01*
X858664Y407270D01*
X855443Y405936D01*
X851957Y405936D01*
G37*
%LPD*%
%LPC*%
G36*
X826557Y405936D02*
X826557Y405936D01*
X823336Y407270D01*
X820870Y409736D01*
X819536Y412957D01*
X819536Y416443D01*
X820870Y419664D01*
X823336Y422130D01*
X826557Y423464D01*
X830043Y423464D01*
X833264Y422130D01*
X835730Y419664D01*
X837064Y416443D01*
X837064Y412957D01*
X835730Y409736D01*
X833264Y407270D01*
X830043Y405936D01*
X826557Y405936D01*
G37*
%LPD*%
%LPC*%
G36*
X597957Y405936D02*
X597957Y405936D01*
X594736Y407270D01*
X592270Y409736D01*
X590936Y412957D01*
X590936Y416443D01*
X592270Y419664D01*
X594736Y422130D01*
X597957Y423464D01*
X601443Y423464D01*
X604664Y422130D01*
X607130Y419664D01*
X608464Y416443D01*
X608464Y412957D01*
X607130Y409736D01*
X604664Y407270D01*
X601443Y405936D01*
X597957Y405936D01*
G37*
%LPD*%
%LPC*%
G36*
X572557Y405936D02*
X572557Y405936D01*
X569336Y407270D01*
X566870Y409736D01*
X565536Y412957D01*
X565536Y416443D01*
X566870Y419664D01*
X569336Y422130D01*
X572557Y423464D01*
X576043Y423464D01*
X579264Y422130D01*
X581730Y419664D01*
X583064Y416443D01*
X583064Y412957D01*
X581730Y409736D01*
X579264Y407270D01*
X576043Y405936D01*
X572557Y405936D01*
G37*
%LPD*%
%LPC*%
G36*
X366557Y397636D02*
X366557Y397636D01*
X363336Y398970D01*
X360870Y401436D01*
X359536Y404657D01*
X359536Y408143D01*
X360870Y411364D01*
X363336Y413830D01*
X366557Y415164D01*
X370043Y415164D01*
X373264Y413830D01*
X375730Y411364D01*
X377064Y408143D01*
X377064Y404657D01*
X375730Y401436D01*
X373264Y398970D01*
X370043Y397636D01*
X366557Y397636D01*
G37*
%LPD*%
%LPC*%
G36*
X239557Y397636D02*
X239557Y397636D01*
X236336Y398970D01*
X233870Y401436D01*
X232536Y404657D01*
X232536Y408143D01*
X233870Y411364D01*
X236336Y413830D01*
X239557Y415164D01*
X243043Y415164D01*
X246264Y413830D01*
X248730Y411364D01*
X250064Y408143D01*
X250064Y404657D01*
X248730Y401436D01*
X246264Y398970D01*
X243043Y397636D01*
X239557Y397636D01*
G37*
%LPD*%
%LPC*%
G36*
X188757Y397636D02*
X188757Y397636D01*
X185536Y398970D01*
X183070Y401436D01*
X181736Y404657D01*
X181736Y408143D01*
X183070Y411364D01*
X185536Y413830D01*
X188757Y415164D01*
X192243Y415164D01*
X195464Y413830D01*
X197930Y411364D01*
X199264Y408143D01*
X199264Y404657D01*
X197930Y401436D01*
X195464Y398970D01*
X192243Y397636D01*
X188757Y397636D01*
G37*
%LPD*%
%LPC*%
G36*
X61757Y397636D02*
X61757Y397636D01*
X58536Y398970D01*
X56070Y401436D01*
X54736Y404657D01*
X54736Y408143D01*
X56070Y411364D01*
X58536Y413830D01*
X61757Y415164D01*
X65243Y415164D01*
X68464Y413830D01*
X70930Y411364D01*
X72264Y408143D01*
X72264Y404657D01*
X70930Y401436D01*
X68464Y398970D01*
X65243Y397636D01*
X61757Y397636D01*
G37*
%LPD*%
%LPC*%
G36*
X851957Y380536D02*
X851957Y380536D01*
X848736Y381870D01*
X846270Y384336D01*
X844936Y387557D01*
X844936Y391043D01*
X846270Y394264D01*
X848736Y396730D01*
X851957Y398064D01*
X855443Y398064D01*
X858664Y396730D01*
X861130Y394264D01*
X862464Y391043D01*
X862464Y387557D01*
X861130Y384336D01*
X858664Y381870D01*
X855443Y380536D01*
X851957Y380536D01*
G37*
%LPD*%
%LPC*%
G36*
X826557Y380536D02*
X826557Y380536D01*
X823336Y381870D01*
X820870Y384336D01*
X819536Y387557D01*
X819536Y391043D01*
X820870Y394264D01*
X823336Y396730D01*
X826557Y398064D01*
X830043Y398064D01*
X833264Y396730D01*
X835730Y394264D01*
X837064Y391043D01*
X837064Y387557D01*
X835730Y384336D01*
X833264Y381870D01*
X830043Y380536D01*
X826557Y380536D01*
G37*
%LPD*%
%LPC*%
G36*
X597957Y380536D02*
X597957Y380536D01*
X594736Y381870D01*
X592270Y384336D01*
X590936Y387557D01*
X590936Y391043D01*
X592270Y394264D01*
X594736Y396730D01*
X597957Y398064D01*
X601443Y398064D01*
X604664Y396730D01*
X607130Y394264D01*
X608464Y391043D01*
X608464Y387557D01*
X607130Y384336D01*
X604664Y381870D01*
X601443Y380536D01*
X597957Y380536D01*
G37*
%LPD*%
%LPC*%
G36*
X572557Y380536D02*
X572557Y380536D01*
X569336Y381870D01*
X566870Y384336D01*
X565536Y387557D01*
X565536Y391043D01*
X566870Y394264D01*
X569336Y396730D01*
X572557Y398064D01*
X576043Y398064D01*
X579264Y396730D01*
X581730Y394264D01*
X583064Y391043D01*
X583064Y387557D01*
X581730Y384336D01*
X579264Y381870D01*
X576043Y380536D01*
X572557Y380536D01*
G37*
%LPD*%
%LPC*%
G36*
X188757Y372236D02*
X188757Y372236D01*
X185536Y373570D01*
X183070Y376036D01*
X181736Y379257D01*
X181736Y382743D01*
X183070Y385964D01*
X185536Y388430D01*
X188757Y389764D01*
X192243Y389764D01*
X195464Y388430D01*
X197930Y385964D01*
X199264Y382743D01*
X199264Y379257D01*
X197930Y376036D01*
X195464Y373570D01*
X192243Y372236D01*
X188757Y372236D01*
G37*
%LPD*%
%LPC*%
G36*
X61757Y372236D02*
X61757Y372236D01*
X58536Y373570D01*
X56070Y376036D01*
X54736Y379257D01*
X54736Y382743D01*
X56070Y385964D01*
X58536Y388430D01*
X61757Y389764D01*
X65243Y389764D01*
X68464Y388430D01*
X70930Y385964D01*
X72264Y382743D01*
X72264Y379257D01*
X70930Y376036D01*
X68464Y373570D01*
X65243Y372236D01*
X61757Y372236D01*
G37*
%LPD*%
%LPC*%
G36*
X366557Y372236D02*
X366557Y372236D01*
X363336Y373570D01*
X360870Y376036D01*
X359536Y379257D01*
X359536Y382743D01*
X360870Y385964D01*
X363336Y388430D01*
X366557Y389764D01*
X370043Y389764D01*
X373264Y388430D01*
X375730Y385964D01*
X377064Y382743D01*
X377064Y379257D01*
X375730Y376036D01*
X373264Y373570D01*
X370043Y372236D01*
X366557Y372236D01*
G37*
%LPD*%
%LPC*%
G36*
X239557Y372236D02*
X239557Y372236D01*
X236336Y373570D01*
X233870Y376036D01*
X232536Y379257D01*
X232536Y382743D01*
X233870Y385964D01*
X236336Y388430D01*
X239557Y389764D01*
X243043Y389764D01*
X246264Y388430D01*
X248730Y385964D01*
X250064Y382743D01*
X250064Y379257D01*
X248730Y376036D01*
X246264Y373570D01*
X243043Y372236D01*
X239557Y372236D01*
G37*
%LPD*%
%LPC*%
G36*
X851957Y355136D02*
X851957Y355136D01*
X848736Y356470D01*
X846270Y358936D01*
X844936Y362157D01*
X844936Y365643D01*
X846270Y368864D01*
X848736Y371330D01*
X851957Y372664D01*
X855443Y372664D01*
X858664Y371330D01*
X861130Y368864D01*
X862464Y365643D01*
X862464Y362157D01*
X861130Y358936D01*
X858664Y356470D01*
X855443Y355136D01*
X851957Y355136D01*
G37*
%LPD*%
%LPC*%
G36*
X826557Y355136D02*
X826557Y355136D01*
X823336Y356470D01*
X820870Y358936D01*
X819536Y362157D01*
X819536Y365643D01*
X820870Y368864D01*
X823336Y371330D01*
X826557Y372664D01*
X830043Y372664D01*
X833264Y371330D01*
X835730Y368864D01*
X837064Y365643D01*
X837064Y362157D01*
X835730Y358936D01*
X833264Y356470D01*
X830043Y355136D01*
X826557Y355136D01*
G37*
%LPD*%
%LPC*%
G36*
X597957Y355136D02*
X597957Y355136D01*
X594736Y356470D01*
X592270Y358936D01*
X590936Y362157D01*
X590936Y365643D01*
X592270Y368864D01*
X594736Y371330D01*
X597957Y372664D01*
X601443Y372664D01*
X604664Y371330D01*
X607130Y368864D01*
X608464Y365643D01*
X608464Y362157D01*
X607130Y358936D01*
X604664Y356470D01*
X601443Y355136D01*
X597957Y355136D01*
G37*
%LPD*%
%LPC*%
G36*
X572557Y355136D02*
X572557Y355136D01*
X569336Y356470D01*
X566870Y358936D01*
X565536Y362157D01*
X565536Y365643D01*
X566870Y368864D01*
X569336Y371330D01*
X572557Y372664D01*
X576043Y372664D01*
X579264Y371330D01*
X581730Y368864D01*
X583064Y365643D01*
X583064Y362157D01*
X581730Y358936D01*
X579264Y356470D01*
X576043Y355136D01*
X572557Y355136D01*
G37*
%LPD*%
%LPC*%
G36*
X239557Y346836D02*
X239557Y346836D01*
X236336Y348170D01*
X233870Y350636D01*
X232536Y353857D01*
X232536Y357343D01*
X233870Y360564D01*
X236336Y363030D01*
X239557Y364364D01*
X243043Y364364D01*
X246264Y363030D01*
X248730Y360564D01*
X250064Y357343D01*
X250064Y353857D01*
X248730Y350636D01*
X246264Y348170D01*
X243043Y346836D01*
X239557Y346836D01*
G37*
%LPD*%
%LPC*%
G36*
X61757Y346836D02*
X61757Y346836D01*
X58536Y348170D01*
X56070Y350636D01*
X54736Y353857D01*
X54736Y357343D01*
X56070Y360564D01*
X58536Y363030D01*
X61757Y364364D01*
X65243Y364364D01*
X68464Y363030D01*
X70930Y360564D01*
X72264Y357343D01*
X72264Y353857D01*
X70930Y350636D01*
X68464Y348170D01*
X65243Y346836D01*
X61757Y346836D01*
G37*
%LPD*%
%LPC*%
G36*
X597957Y50336D02*
X597957Y50336D01*
X594736Y51670D01*
X592270Y54136D01*
X590936Y57357D01*
X590936Y60843D01*
X592270Y64064D01*
X594736Y66530D01*
X597957Y67864D01*
X601443Y67864D01*
X604664Y66530D01*
X607130Y64064D01*
X608464Y60843D01*
X608464Y57357D01*
X607130Y54136D01*
X604664Y51670D01*
X601443Y50336D01*
X597957Y50336D01*
G37*
%LPD*%
%LPC*%
G36*
X572557Y50336D02*
X572557Y50336D01*
X569336Y51670D01*
X566870Y54136D01*
X565536Y57357D01*
X565536Y60843D01*
X566870Y64064D01*
X569336Y66530D01*
X572557Y67864D01*
X576043Y67864D01*
X579264Y66530D01*
X581730Y64064D01*
X583064Y60843D01*
X583064Y57357D01*
X581730Y54136D01*
X579264Y51670D01*
X576043Y50336D01*
X572557Y50336D01*
G37*
%LPD*%
%LPC*%
G36*
X61757Y67436D02*
X61757Y67436D01*
X58536Y68770D01*
X56070Y71236D01*
X54736Y74457D01*
X54736Y77943D01*
X56070Y81164D01*
X58536Y83630D01*
X61757Y84964D01*
X65243Y84964D01*
X68464Y83630D01*
X70930Y81164D01*
X72264Y77943D01*
X72264Y74457D01*
X70930Y71236D01*
X68464Y68770D01*
X65243Y67436D01*
X61757Y67436D01*
G37*
%LPD*%
%LPC*%
G36*
X851957Y329736D02*
X851957Y329736D01*
X848736Y331070D01*
X846270Y333536D01*
X844936Y336757D01*
X844936Y340243D01*
X846270Y343464D01*
X848736Y345930D01*
X851957Y347264D01*
X855443Y347264D01*
X858664Y345930D01*
X861130Y343464D01*
X862464Y340243D01*
X862464Y336757D01*
X861130Y333536D01*
X858664Y331070D01*
X855443Y329736D01*
X851957Y329736D01*
G37*
%LPD*%
%LPC*%
G36*
X826557Y329736D02*
X826557Y329736D01*
X823336Y331070D01*
X820870Y333536D01*
X819536Y336757D01*
X819536Y340243D01*
X820870Y343464D01*
X823336Y345930D01*
X826557Y347264D01*
X830043Y347264D01*
X833264Y345930D01*
X835730Y343464D01*
X837064Y340243D01*
X837064Y336757D01*
X835730Y333536D01*
X833264Y331070D01*
X830043Y329736D01*
X826557Y329736D01*
G37*
%LPD*%
%LPC*%
G36*
X572557Y329736D02*
X572557Y329736D01*
X569336Y331070D01*
X566870Y333536D01*
X565536Y336757D01*
X565536Y340243D01*
X566870Y343464D01*
X569336Y345930D01*
X572557Y347264D01*
X576043Y347264D01*
X579264Y345930D01*
X581730Y343464D01*
X583064Y340243D01*
X583064Y336757D01*
X581730Y333536D01*
X579264Y331070D01*
X576043Y329736D01*
X572557Y329736D01*
G37*
%LPD*%
%LPC*%
G36*
X188757Y321436D02*
X188757Y321436D01*
X185536Y322770D01*
X183070Y325236D01*
X181736Y328457D01*
X181736Y331943D01*
X183070Y335164D01*
X185536Y337630D01*
X188757Y338964D01*
X192243Y338964D01*
X195464Y337630D01*
X197930Y335164D01*
X199264Y331943D01*
X199264Y328457D01*
X197930Y325236D01*
X195464Y322770D01*
X192243Y321436D01*
X188757Y321436D01*
G37*
%LPD*%
%LPC*%
G36*
X61757Y321436D02*
X61757Y321436D01*
X58536Y322770D01*
X56070Y325236D01*
X54736Y328457D01*
X54736Y331943D01*
X56070Y335164D01*
X58536Y337630D01*
X61757Y338964D01*
X65243Y338964D01*
X68464Y337630D01*
X70930Y335164D01*
X72264Y331943D01*
X72264Y328457D01*
X70930Y325236D01*
X68464Y322770D01*
X65243Y321436D01*
X61757Y321436D01*
G37*
%LPD*%
%LPC*%
G36*
X366557Y321436D02*
X366557Y321436D01*
X363336Y322770D01*
X360870Y325236D01*
X359536Y328457D01*
X359536Y331943D01*
X360870Y335164D01*
X363336Y337630D01*
X366557Y338964D01*
X370043Y338964D01*
X373264Y337630D01*
X375730Y335164D01*
X377064Y331943D01*
X377064Y328457D01*
X375730Y325236D01*
X373264Y322770D01*
X370043Y321436D01*
X366557Y321436D01*
G37*
%LPD*%
%LPC*%
G36*
X239557Y321436D02*
X239557Y321436D01*
X236336Y322770D01*
X233870Y325236D01*
X232536Y328457D01*
X232536Y331943D01*
X233870Y335164D01*
X236336Y337630D01*
X239557Y338964D01*
X243043Y338964D01*
X246264Y337630D01*
X248730Y335164D01*
X250064Y331943D01*
X250064Y328457D01*
X248730Y325236D01*
X246264Y322770D01*
X243043Y321436D01*
X239557Y321436D01*
G37*
%LPD*%
%LPC*%
G36*
X851957Y304336D02*
X851957Y304336D01*
X848736Y305670D01*
X846270Y308136D01*
X844936Y311357D01*
X844936Y314843D01*
X846270Y318064D01*
X848736Y320530D01*
X851957Y321864D01*
X855443Y321864D01*
X858664Y320530D01*
X861130Y318064D01*
X862464Y314843D01*
X862464Y311357D01*
X861130Y308136D01*
X858664Y305670D01*
X855443Y304336D01*
X851957Y304336D01*
G37*
%LPD*%
%LPC*%
G36*
X826557Y304336D02*
X826557Y304336D01*
X823336Y305670D01*
X820870Y308136D01*
X819536Y311357D01*
X819536Y314843D01*
X820870Y318064D01*
X823336Y320530D01*
X826557Y321864D01*
X830043Y321864D01*
X833264Y320530D01*
X835730Y318064D01*
X837064Y314843D01*
X837064Y311357D01*
X835730Y308136D01*
X833264Y305670D01*
X830043Y304336D01*
X826557Y304336D01*
G37*
%LPD*%
%LPC*%
G36*
X597957Y304336D02*
X597957Y304336D01*
X594736Y305670D01*
X592270Y308136D01*
X590936Y311357D01*
X590936Y314843D01*
X592270Y318064D01*
X594736Y320530D01*
X597957Y321864D01*
X601443Y321864D01*
X604664Y320530D01*
X607130Y318064D01*
X608464Y314843D01*
X608464Y311357D01*
X607130Y308136D01*
X604664Y305670D01*
X601443Y304336D01*
X597957Y304336D01*
G37*
%LPD*%
%LPC*%
G36*
X572557Y304336D02*
X572557Y304336D01*
X569336Y305670D01*
X566870Y308136D01*
X565536Y311357D01*
X565536Y314843D01*
X566870Y318064D01*
X569336Y320530D01*
X572557Y321864D01*
X576043Y321864D01*
X579264Y320530D01*
X581730Y318064D01*
X583064Y314843D01*
X583064Y311357D01*
X581730Y308136D01*
X579264Y305670D01*
X576043Y304336D01*
X572557Y304336D01*
G37*
%LPD*%
%LPC*%
G36*
X572557Y278936D02*
X572557Y278936D01*
X569336Y280270D01*
X566870Y282736D01*
X565536Y285957D01*
X565536Y289443D01*
X566870Y292664D01*
X569336Y295130D01*
X572557Y296464D01*
X576043Y296464D01*
X579264Y295130D01*
X581730Y292664D01*
X583064Y289443D01*
X583064Y285957D01*
X581730Y282736D01*
X579264Y280270D01*
X576043Y278936D01*
X572557Y278936D01*
G37*
%LPD*%
%LPC*%
G36*
X851957Y278936D02*
X851957Y278936D01*
X848736Y280270D01*
X846270Y282736D01*
X844936Y285957D01*
X844936Y289443D01*
X846270Y292664D01*
X848736Y295130D01*
X851957Y296464D01*
X855443Y296464D01*
X858664Y295130D01*
X861130Y292664D01*
X862464Y289443D01*
X862464Y285957D01*
X861130Y282736D01*
X858664Y280270D01*
X855443Y278936D01*
X851957Y278936D01*
G37*
%LPD*%
%LPC*%
G36*
X597957Y278936D02*
X597957Y278936D01*
X594736Y280270D01*
X592270Y282736D01*
X590936Y285957D01*
X590936Y289443D01*
X592270Y292664D01*
X594736Y295130D01*
X597957Y296464D01*
X601443Y296464D01*
X604664Y295130D01*
X607130Y292664D01*
X608464Y289443D01*
X608464Y285957D01*
X607130Y282736D01*
X604664Y280270D01*
X601443Y278936D01*
X597957Y278936D01*
G37*
%LPD*%
%LPC*%
G36*
X826557Y278936D02*
X826557Y278936D01*
X823336Y280270D01*
X820870Y282736D01*
X819536Y285957D01*
X819536Y289443D01*
X820870Y292664D01*
X823336Y295130D01*
X826557Y296464D01*
X830043Y296464D01*
X833264Y295130D01*
X835730Y292664D01*
X837064Y289443D01*
X837064Y285957D01*
X835730Y282736D01*
X833264Y280270D01*
X830043Y278936D01*
X826557Y278936D01*
G37*
%LPD*%
%LPC*%
G36*
X851957Y253536D02*
X851957Y253536D01*
X848736Y254870D01*
X846270Y257336D01*
X844936Y260557D01*
X844936Y264043D01*
X846270Y267264D01*
X848736Y269730D01*
X851957Y271064D01*
X855443Y271064D01*
X858664Y269730D01*
X861130Y267264D01*
X862464Y264043D01*
X862464Y260557D01*
X861130Y257336D01*
X858664Y254870D01*
X855443Y253536D01*
X851957Y253536D01*
G37*
%LPD*%
%LPC*%
G36*
X826557Y253536D02*
X826557Y253536D01*
X823336Y254870D01*
X820870Y257336D01*
X819536Y260557D01*
X819536Y264043D01*
X820870Y267264D01*
X823336Y269730D01*
X826557Y271064D01*
X830043Y271064D01*
X833264Y269730D01*
X835730Y267264D01*
X837064Y264043D01*
X837064Y260557D01*
X835730Y257336D01*
X833264Y254870D01*
X830043Y253536D01*
X826557Y253536D01*
G37*
%LPD*%
%LPC*%
G36*
X597957Y253536D02*
X597957Y253536D01*
X594736Y254870D01*
X592270Y257336D01*
X590936Y260557D01*
X590936Y264043D01*
X592270Y267264D01*
X594736Y269730D01*
X597957Y271064D01*
X601443Y271064D01*
X604664Y269730D01*
X607130Y267264D01*
X608464Y264043D01*
X608464Y260557D01*
X607130Y257336D01*
X604664Y254870D01*
X601443Y253536D01*
X597957Y253536D01*
G37*
%LPD*%
%LPC*%
G36*
X572557Y253536D02*
X572557Y253536D01*
X569336Y254870D01*
X566870Y257336D01*
X565536Y260557D01*
X565536Y264043D01*
X566870Y267264D01*
X569336Y269730D01*
X572557Y271064D01*
X576043Y271064D01*
X579264Y269730D01*
X581730Y267264D01*
X583064Y264043D01*
X583064Y260557D01*
X581730Y257336D01*
X579264Y254870D01*
X576043Y253536D01*
X572557Y253536D01*
G37*
%LPD*%
%LPC*%
G36*
X188757Y423036D02*
X188757Y423036D01*
X185536Y424370D01*
X183070Y426836D01*
X181736Y430057D01*
X181736Y433543D01*
X183070Y436764D01*
X185536Y439230D01*
X188757Y440564D01*
X192243Y440564D01*
X195464Y439230D01*
X197930Y436764D01*
X199264Y433543D01*
X199264Y430057D01*
X197930Y426836D01*
X195464Y424370D01*
X192243Y423036D01*
X188757Y423036D01*
G37*
%LPD*%
%LPC*%
G36*
X366557Y245236D02*
X366557Y245236D01*
X363336Y246570D01*
X360870Y249036D01*
X359536Y252257D01*
X359536Y255743D01*
X360870Y258964D01*
X363336Y261430D01*
X366557Y262764D01*
X370043Y262764D01*
X373264Y261430D01*
X375730Y258964D01*
X377064Y255743D01*
X377064Y252257D01*
X375730Y249036D01*
X373264Y246570D01*
X370043Y245236D01*
X366557Y245236D01*
G37*
%LPD*%
%LPC*%
G36*
X239557Y245236D02*
X239557Y245236D01*
X236336Y246570D01*
X233870Y249036D01*
X232536Y252257D01*
X232536Y255743D01*
X233870Y258964D01*
X236336Y261430D01*
X239557Y262764D01*
X243043Y262764D01*
X246264Y261430D01*
X248730Y258964D01*
X250064Y255743D01*
X250064Y252257D01*
X248730Y249036D01*
X246264Y246570D01*
X243043Y245236D01*
X239557Y245236D01*
G37*
%LPD*%
%LPC*%
G36*
X188757Y245236D02*
X188757Y245236D01*
X185536Y246570D01*
X183070Y249036D01*
X181736Y252257D01*
X181736Y255743D01*
X183070Y258964D01*
X185536Y261430D01*
X188757Y262764D01*
X192243Y262764D01*
X195464Y261430D01*
X197930Y258964D01*
X199264Y255743D01*
X199264Y252257D01*
X197930Y249036D01*
X195464Y246570D01*
X192243Y245236D01*
X188757Y245236D01*
G37*
%LPD*%
%LPC*%
G36*
X61757Y245236D02*
X61757Y245236D01*
X58536Y246570D01*
X56070Y249036D01*
X54736Y252257D01*
X54736Y255743D01*
X56070Y258964D01*
X58536Y261430D01*
X61757Y262764D01*
X65243Y262764D01*
X68464Y261430D01*
X70930Y258964D01*
X72264Y255743D01*
X72264Y252257D01*
X70930Y249036D01*
X68464Y246570D01*
X65243Y245236D01*
X61757Y245236D01*
G37*
%LPD*%
%LPC*%
G36*
X597957Y228136D02*
X597957Y228136D01*
X594736Y229470D01*
X592270Y231936D01*
X590936Y235157D01*
X590936Y238643D01*
X592270Y241864D01*
X594736Y244330D01*
X597957Y245664D01*
X601443Y245664D01*
X604664Y244330D01*
X607130Y241864D01*
X608464Y238643D01*
X608464Y235157D01*
X607130Y231936D01*
X604664Y229470D01*
X601443Y228136D01*
X597957Y228136D01*
G37*
%LPD*%
%LPC*%
G36*
X572557Y228136D02*
X572557Y228136D01*
X569336Y229470D01*
X566870Y231936D01*
X565536Y235157D01*
X565536Y238643D01*
X566870Y241864D01*
X569336Y244330D01*
X572557Y245664D01*
X576043Y245664D01*
X579264Y244330D01*
X581730Y241864D01*
X583064Y238643D01*
X583064Y235157D01*
X581730Y231936D01*
X579264Y229470D01*
X576043Y228136D01*
X572557Y228136D01*
G37*
%LPD*%
%LPC*%
G36*
X851957Y228136D02*
X851957Y228136D01*
X848736Y229470D01*
X846270Y231936D01*
X844936Y235157D01*
X844936Y238643D01*
X846270Y241864D01*
X848736Y244330D01*
X851957Y245664D01*
X855443Y245664D01*
X858664Y244330D01*
X861130Y241864D01*
X862464Y238643D01*
X862464Y235157D01*
X861130Y231936D01*
X858664Y229470D01*
X855443Y228136D01*
X851957Y228136D01*
G37*
%LPD*%
%LPC*%
G36*
X826557Y228136D02*
X826557Y228136D01*
X823336Y229470D01*
X820870Y231936D01*
X819536Y235157D01*
X819536Y238643D01*
X820870Y241864D01*
X823336Y244330D01*
X826557Y245664D01*
X830043Y245664D01*
X833264Y244330D01*
X835730Y241864D01*
X837064Y238643D01*
X837064Y235157D01*
X835730Y231936D01*
X833264Y229470D01*
X830043Y228136D01*
X826557Y228136D01*
G37*
%LPD*%
%LPC*%
G36*
X366557Y219836D02*
X366557Y219836D01*
X363336Y221170D01*
X360870Y223636D01*
X359536Y226857D01*
X359536Y230343D01*
X360870Y233564D01*
X363336Y236030D01*
X366557Y237364D01*
X370043Y237364D01*
X373264Y236030D01*
X375730Y233564D01*
X377064Y230343D01*
X377064Y226857D01*
X375730Y223636D01*
X373264Y221170D01*
X370043Y219836D01*
X366557Y219836D01*
G37*
%LPD*%
%LPC*%
G36*
X239557Y219836D02*
X239557Y219836D01*
X236336Y221170D01*
X233870Y223636D01*
X232536Y226857D01*
X232536Y230343D01*
X233870Y233564D01*
X236336Y236030D01*
X239557Y237364D01*
X243043Y237364D01*
X246264Y236030D01*
X248730Y233564D01*
X250064Y230343D01*
X250064Y226857D01*
X248730Y223636D01*
X246264Y221170D01*
X243043Y219836D01*
X239557Y219836D01*
G37*
%LPD*%
%LPC*%
G36*
X188757Y219836D02*
X188757Y219836D01*
X185536Y221170D01*
X183070Y223636D01*
X181736Y226857D01*
X181736Y230343D01*
X183070Y233564D01*
X185536Y236030D01*
X188757Y237364D01*
X192243Y237364D01*
X195464Y236030D01*
X197930Y233564D01*
X199264Y230343D01*
X199264Y226857D01*
X197930Y223636D01*
X195464Y221170D01*
X192243Y219836D01*
X188757Y219836D01*
G37*
%LPD*%
%LPC*%
G36*
X61757Y219836D02*
X61757Y219836D01*
X58536Y221170D01*
X56070Y223636D01*
X54736Y226857D01*
X54736Y230343D01*
X56070Y233564D01*
X58536Y236030D01*
X61757Y237364D01*
X65243Y237364D01*
X68464Y236030D01*
X70930Y233564D01*
X72264Y230343D01*
X72264Y226857D01*
X70930Y223636D01*
X68464Y221170D01*
X65243Y219836D01*
X61757Y219836D01*
G37*
%LPD*%
%LPC*%
G36*
X597957Y202736D02*
X597957Y202736D01*
X594736Y204070D01*
X592270Y206536D01*
X590936Y209757D01*
X590936Y213243D01*
X592270Y216464D01*
X594736Y218930D01*
X597957Y220264D01*
X601443Y220264D01*
X604664Y218930D01*
X607130Y216464D01*
X608464Y213243D01*
X608464Y209757D01*
X607130Y206536D01*
X604664Y204070D01*
X601443Y202736D01*
X597957Y202736D01*
G37*
%LPD*%
%LPC*%
G36*
X572557Y202736D02*
X572557Y202736D01*
X569336Y204070D01*
X566870Y206536D01*
X565536Y209757D01*
X565536Y213243D01*
X566870Y216464D01*
X569336Y218930D01*
X572557Y220264D01*
X576043Y220264D01*
X579264Y218930D01*
X581730Y216464D01*
X583064Y213243D01*
X583064Y209757D01*
X581730Y206536D01*
X579264Y204070D01*
X576043Y202736D01*
X572557Y202736D01*
G37*
%LPD*%
%LPC*%
G36*
X851957Y202736D02*
X851957Y202736D01*
X848736Y204070D01*
X846270Y206536D01*
X844936Y209757D01*
X844936Y213243D01*
X846270Y216464D01*
X848736Y218930D01*
X851957Y220264D01*
X855443Y220264D01*
X858664Y218930D01*
X861130Y216464D01*
X862464Y213243D01*
X862464Y209757D01*
X861130Y206536D01*
X858664Y204070D01*
X855443Y202736D01*
X851957Y202736D01*
G37*
%LPD*%
%LPC*%
G36*
X239557Y194436D02*
X239557Y194436D01*
X236336Y195770D01*
X233870Y198236D01*
X232536Y201457D01*
X232536Y204943D01*
X233870Y208164D01*
X236336Y210630D01*
X239557Y211964D01*
X243043Y211964D01*
X246264Y210630D01*
X248730Y208164D01*
X250064Y204943D01*
X250064Y201457D01*
X248730Y198236D01*
X246264Y195770D01*
X243043Y194436D01*
X239557Y194436D01*
G37*
%LPD*%
%LPC*%
G36*
X188757Y194436D02*
X188757Y194436D01*
X185536Y195770D01*
X183070Y198236D01*
X181736Y201457D01*
X181736Y204943D01*
X183070Y208164D01*
X185536Y210630D01*
X188757Y211964D01*
X192243Y211964D01*
X195464Y210630D01*
X197930Y208164D01*
X199264Y204943D01*
X199264Y201457D01*
X197930Y198236D01*
X195464Y195770D01*
X192243Y194436D01*
X188757Y194436D01*
G37*
%LPD*%
%LPC*%
G36*
X366557Y194436D02*
X366557Y194436D01*
X363336Y195770D01*
X360870Y198236D01*
X359536Y201457D01*
X359536Y204943D01*
X360870Y208164D01*
X363336Y210630D01*
X366557Y211964D01*
X370043Y211964D01*
X373264Y210630D01*
X375730Y208164D01*
X377064Y204943D01*
X377064Y201457D01*
X375730Y198236D01*
X373264Y195770D01*
X370043Y194436D01*
X366557Y194436D01*
G37*
%LPD*%
%LPC*%
G36*
X61757Y194436D02*
X61757Y194436D01*
X58536Y195770D01*
X56070Y198236D01*
X54736Y201457D01*
X54736Y204943D01*
X56070Y208164D01*
X58536Y210630D01*
X61757Y211964D01*
X65243Y211964D01*
X68464Y210630D01*
X70930Y208164D01*
X72264Y204943D01*
X72264Y201457D01*
X70930Y198236D01*
X68464Y195770D01*
X65243Y194436D01*
X61757Y194436D01*
G37*
%LPD*%
%LPC*%
G36*
X851957Y177336D02*
X851957Y177336D01*
X848736Y178670D01*
X846270Y181136D01*
X844936Y184357D01*
X844936Y187843D01*
X846270Y191064D01*
X848736Y193530D01*
X851957Y194864D01*
X855443Y194864D01*
X858664Y193530D01*
X861130Y191064D01*
X862464Y187843D01*
X862464Y184357D01*
X861130Y181136D01*
X858664Y178670D01*
X855443Y177336D01*
X851957Y177336D01*
G37*
%LPD*%
%LPC*%
G36*
X826557Y177336D02*
X826557Y177336D01*
X823336Y178670D01*
X820870Y181136D01*
X819536Y184357D01*
X819536Y187843D01*
X820870Y191064D01*
X823336Y193530D01*
X826557Y194864D01*
X830043Y194864D01*
X833264Y193530D01*
X835730Y191064D01*
X837064Y187843D01*
X837064Y184357D01*
X835730Y181136D01*
X833264Y178670D01*
X830043Y177336D01*
X826557Y177336D01*
G37*
%LPD*%
%LPC*%
G36*
X597957Y177336D02*
X597957Y177336D01*
X594736Y178670D01*
X592270Y181136D01*
X590936Y184357D01*
X590936Y187843D01*
X592270Y191064D01*
X594736Y193530D01*
X597957Y194864D01*
X601443Y194864D01*
X604664Y193530D01*
X607130Y191064D01*
X608464Y187843D01*
X608464Y184357D01*
X607130Y181136D01*
X604664Y178670D01*
X601443Y177336D01*
X597957Y177336D01*
G37*
%LPD*%
%LPC*%
G36*
X366557Y169036D02*
X366557Y169036D01*
X363336Y170370D01*
X360870Y172836D01*
X359536Y176057D01*
X359536Y179543D01*
X360870Y182764D01*
X363336Y185230D01*
X366557Y186564D01*
X370043Y186564D01*
X373264Y185230D01*
X375730Y182764D01*
X377064Y179543D01*
X377064Y176057D01*
X375730Y172836D01*
X373264Y170370D01*
X370043Y169036D01*
X366557Y169036D01*
G37*
%LPD*%
%LPC*%
G36*
X239557Y169036D02*
X239557Y169036D01*
X236336Y170370D01*
X233870Y172836D01*
X232536Y176057D01*
X232536Y179543D01*
X233870Y182764D01*
X236336Y185230D01*
X239557Y186564D01*
X243043Y186564D01*
X246264Y185230D01*
X248730Y182764D01*
X250064Y179543D01*
X250064Y176057D01*
X248730Y172836D01*
X246264Y170370D01*
X243043Y169036D01*
X239557Y169036D01*
G37*
%LPD*%
%LPC*%
G36*
X188757Y169036D02*
X188757Y169036D01*
X185536Y170370D01*
X183070Y172836D01*
X181736Y176057D01*
X181736Y179543D01*
X183070Y182764D01*
X185536Y185230D01*
X188757Y186564D01*
X192243Y186564D01*
X195464Y185230D01*
X197930Y182764D01*
X199264Y179543D01*
X199264Y176057D01*
X197930Y172836D01*
X195464Y170370D01*
X192243Y169036D01*
X188757Y169036D01*
G37*
%LPD*%
%LPC*%
G36*
X61757Y169036D02*
X61757Y169036D01*
X58536Y170370D01*
X56070Y172836D01*
X54736Y176057D01*
X54736Y179543D01*
X56070Y182764D01*
X58536Y185230D01*
X61757Y186564D01*
X65243Y186564D01*
X68464Y185230D01*
X70930Y182764D01*
X72264Y179543D01*
X72264Y176057D01*
X70930Y172836D01*
X68464Y170370D01*
X65243Y169036D01*
X61757Y169036D01*
G37*
%LPD*%
%LPC*%
G36*
X851957Y151936D02*
X851957Y151936D01*
X848736Y153270D01*
X846270Y155736D01*
X844936Y158957D01*
X844936Y162443D01*
X846270Y165664D01*
X848736Y168130D01*
X851957Y169464D01*
X855443Y169464D01*
X858664Y168130D01*
X861130Y165664D01*
X862464Y162443D01*
X862464Y158957D01*
X861130Y155736D01*
X858664Y153270D01*
X855443Y151936D01*
X851957Y151936D01*
G37*
%LPD*%
%LPC*%
G36*
X826557Y151936D02*
X826557Y151936D01*
X823336Y153270D01*
X820870Y155736D01*
X819536Y158957D01*
X819536Y162443D01*
X820870Y165664D01*
X823336Y168130D01*
X826557Y169464D01*
X830043Y169464D01*
X833264Y168130D01*
X835730Y165664D01*
X837064Y162443D01*
X837064Y158957D01*
X835730Y155736D01*
X833264Y153270D01*
X830043Y151936D01*
X826557Y151936D01*
G37*
%LPD*%
%LPC*%
G36*
X597957Y151936D02*
X597957Y151936D01*
X594736Y153270D01*
X592270Y155736D01*
X590936Y158957D01*
X590936Y162443D01*
X592270Y165664D01*
X594736Y168130D01*
X597957Y169464D01*
X601443Y169464D01*
X604664Y168130D01*
X607130Y165664D01*
X608464Y162443D01*
X608464Y158957D01*
X607130Y155736D01*
X604664Y153270D01*
X601443Y151936D01*
X597957Y151936D01*
G37*
%LPD*%
%LPC*%
G36*
X572557Y151936D02*
X572557Y151936D01*
X569336Y153270D01*
X566870Y155736D01*
X565536Y158957D01*
X565536Y162443D01*
X566870Y165664D01*
X569336Y168130D01*
X572557Y169464D01*
X576043Y169464D01*
X579264Y168130D01*
X581730Y165664D01*
X583064Y162443D01*
X583064Y158957D01*
X581730Y155736D01*
X579264Y153270D01*
X576043Y151936D01*
X572557Y151936D01*
G37*
%LPD*%
%LPC*%
G36*
X366557Y143636D02*
X366557Y143636D01*
X363336Y144970D01*
X360870Y147436D01*
X359536Y150657D01*
X359536Y154143D01*
X360870Y157364D01*
X363336Y159830D01*
X366557Y161164D01*
X370043Y161164D01*
X373264Y159830D01*
X375730Y157364D01*
X377064Y154143D01*
X377064Y150657D01*
X375730Y147436D01*
X373264Y144970D01*
X370043Y143636D01*
X366557Y143636D01*
G37*
%LPD*%
%LPC*%
G36*
X239557Y143636D02*
X239557Y143636D01*
X236336Y144970D01*
X233870Y147436D01*
X232536Y150657D01*
X232536Y154143D01*
X233870Y157364D01*
X236336Y159830D01*
X239557Y161164D01*
X243043Y161164D01*
X246264Y159830D01*
X248730Y157364D01*
X250064Y154143D01*
X250064Y150657D01*
X248730Y147436D01*
X246264Y144970D01*
X243043Y143636D01*
X239557Y143636D01*
G37*
%LPD*%
%LPC*%
G36*
X188757Y143636D02*
X188757Y143636D01*
X185536Y144970D01*
X183070Y147436D01*
X181736Y150657D01*
X181736Y154143D01*
X183070Y157364D01*
X185536Y159830D01*
X188757Y161164D01*
X192243Y161164D01*
X195464Y159830D01*
X197930Y157364D01*
X199264Y154143D01*
X199264Y150657D01*
X197930Y147436D01*
X195464Y144970D01*
X192243Y143636D01*
X188757Y143636D01*
G37*
%LPD*%
%LPC*%
G36*
X61757Y143636D02*
X61757Y143636D01*
X58536Y144970D01*
X56070Y147436D01*
X54736Y150657D01*
X54736Y154143D01*
X56070Y157364D01*
X58536Y159830D01*
X61757Y161164D01*
X65243Y161164D01*
X68464Y159830D01*
X70930Y157364D01*
X72264Y154143D01*
X72264Y150657D01*
X70930Y147436D01*
X68464Y144970D01*
X65243Y143636D01*
X61757Y143636D01*
G37*
%LPD*%
%LPC*%
G36*
X851957Y126536D02*
X851957Y126536D01*
X848736Y127870D01*
X846270Y130336D01*
X844936Y133557D01*
X844936Y137043D01*
X846270Y140264D01*
X848736Y142730D01*
X851957Y144064D01*
X855443Y144064D01*
X858664Y142730D01*
X861130Y140264D01*
X862464Y137043D01*
X862464Y133557D01*
X861130Y130336D01*
X858664Y127870D01*
X855443Y126536D01*
X851957Y126536D01*
G37*
%LPD*%
%LPC*%
G36*
X826557Y126536D02*
X826557Y126536D01*
X823336Y127870D01*
X820870Y130336D01*
X819536Y133557D01*
X819536Y137043D01*
X820870Y140264D01*
X823336Y142730D01*
X826557Y144064D01*
X830043Y144064D01*
X833264Y142730D01*
X835730Y140264D01*
X837064Y137043D01*
X837064Y133557D01*
X835730Y130336D01*
X833264Y127870D01*
X830043Y126536D01*
X826557Y126536D01*
G37*
%LPD*%
%LPC*%
G36*
X597957Y126536D02*
X597957Y126536D01*
X594736Y127870D01*
X592270Y130336D01*
X590936Y133557D01*
X590936Y137043D01*
X592270Y140264D01*
X594736Y142730D01*
X597957Y144064D01*
X601443Y144064D01*
X604664Y142730D01*
X607130Y140264D01*
X608464Y137043D01*
X608464Y133557D01*
X607130Y130336D01*
X604664Y127870D01*
X601443Y126536D01*
X597957Y126536D01*
G37*
%LPD*%
%LPC*%
G36*
X572557Y126536D02*
X572557Y126536D01*
X569336Y127870D01*
X566870Y130336D01*
X565536Y133557D01*
X565536Y137043D01*
X566870Y140264D01*
X569336Y142730D01*
X572557Y144064D01*
X576043Y144064D01*
X579264Y142730D01*
X581730Y140264D01*
X583064Y137043D01*
X583064Y133557D01*
X581730Y130336D01*
X579264Y127870D01*
X576043Y126536D01*
X572557Y126536D01*
G37*
%LPD*%
%LPC*%
G36*
X188757Y118236D02*
X188757Y118236D01*
X185536Y119570D01*
X183070Y122036D01*
X181736Y125257D01*
X181736Y128743D01*
X183070Y131964D01*
X185536Y134430D01*
X188757Y135764D01*
X192243Y135764D01*
X195464Y134430D01*
X197930Y131964D01*
X199264Y128743D01*
X199264Y125257D01*
X197930Y122036D01*
X195464Y119570D01*
X192243Y118236D01*
X188757Y118236D01*
G37*
%LPD*%
%LPC*%
G36*
X61757Y118236D02*
X61757Y118236D01*
X58536Y119570D01*
X56070Y122036D01*
X54736Y125257D01*
X54736Y128743D01*
X56070Y131964D01*
X58536Y134430D01*
X61757Y135764D01*
X65243Y135764D01*
X68464Y134430D01*
X70930Y131964D01*
X72264Y128743D01*
X72264Y125257D01*
X70930Y122036D01*
X68464Y119570D01*
X65243Y118236D01*
X61757Y118236D01*
G37*
%LPD*%
%LPC*%
G36*
X366557Y118236D02*
X366557Y118236D01*
X363336Y119570D01*
X360870Y122036D01*
X359536Y125257D01*
X359536Y128743D01*
X360870Y131964D01*
X363336Y134430D01*
X366557Y135764D01*
X370043Y135764D01*
X373264Y134430D01*
X375730Y131964D01*
X377064Y128743D01*
X377064Y125257D01*
X375730Y122036D01*
X373264Y119570D01*
X370043Y118236D01*
X366557Y118236D01*
G37*
%LPD*%
%LPC*%
G36*
X239557Y118236D02*
X239557Y118236D01*
X236336Y119570D01*
X233870Y122036D01*
X232536Y125257D01*
X232536Y128743D01*
X233870Y131964D01*
X236336Y134430D01*
X239557Y135764D01*
X243043Y135764D01*
X246264Y134430D01*
X248730Y131964D01*
X250064Y128743D01*
X250064Y125257D01*
X248730Y122036D01*
X246264Y119570D01*
X243043Y118236D01*
X239557Y118236D01*
G37*
%LPD*%
%LPC*%
G36*
X851957Y101136D02*
X851957Y101136D01*
X848736Y102470D01*
X846270Y104936D01*
X844936Y108157D01*
X844936Y111643D01*
X846270Y114864D01*
X848736Y117330D01*
X851957Y118664D01*
X855443Y118664D01*
X858664Y117330D01*
X861130Y114864D01*
X862464Y111643D01*
X862464Y108157D01*
X861130Y104936D01*
X858664Y102470D01*
X855443Y101136D01*
X851957Y101136D01*
G37*
%LPD*%
%LPC*%
G36*
X826557Y101136D02*
X826557Y101136D01*
X823336Y102470D01*
X820870Y104936D01*
X819536Y108157D01*
X819536Y111643D01*
X820870Y114864D01*
X823336Y117330D01*
X826557Y118664D01*
X830043Y118664D01*
X833264Y117330D01*
X835730Y114864D01*
X837064Y111643D01*
X837064Y108157D01*
X835730Y104936D01*
X833264Y102470D01*
X830043Y101136D01*
X826557Y101136D01*
G37*
%LPD*%
%LPC*%
G36*
X597957Y101136D02*
X597957Y101136D01*
X594736Y102470D01*
X592270Y104936D01*
X590936Y108157D01*
X590936Y111643D01*
X592270Y114864D01*
X594736Y117330D01*
X597957Y118664D01*
X601443Y118664D01*
X604664Y117330D01*
X607130Y114864D01*
X608464Y111643D01*
X608464Y108157D01*
X607130Y104936D01*
X604664Y102470D01*
X601443Y101136D01*
X597957Y101136D01*
G37*
%LPD*%
%LPC*%
G36*
X572557Y101136D02*
X572557Y101136D01*
X569336Y102470D01*
X566870Y104936D01*
X565536Y108157D01*
X565536Y111643D01*
X566870Y114864D01*
X569336Y117330D01*
X572557Y118664D01*
X576043Y118664D01*
X579264Y117330D01*
X581730Y114864D01*
X583064Y111643D01*
X583064Y108157D01*
X581730Y104936D01*
X579264Y102470D01*
X576043Y101136D01*
X572557Y101136D01*
G37*
%LPD*%
%LPC*%
G36*
X239557Y92836D02*
X239557Y92836D01*
X236336Y94170D01*
X233870Y96636D01*
X232536Y99857D01*
X232536Y103343D01*
X233870Y106564D01*
X236336Y109030D01*
X239557Y110364D01*
X243043Y110364D01*
X246264Y109030D01*
X248730Y106564D01*
X250064Y103343D01*
X250064Y99857D01*
X248730Y96636D01*
X246264Y94170D01*
X243043Y92836D01*
X239557Y92836D01*
G37*
%LPD*%
%LPC*%
G36*
X61757Y92836D02*
X61757Y92836D01*
X58536Y94170D01*
X56070Y96636D01*
X54736Y99857D01*
X54736Y103343D01*
X56070Y106564D01*
X58536Y109030D01*
X61757Y110364D01*
X65243Y110364D01*
X68464Y109030D01*
X70930Y106564D01*
X72264Y103343D01*
X72264Y99857D01*
X70930Y96636D01*
X68464Y94170D01*
X65243Y92836D01*
X61757Y92836D01*
G37*
%LPD*%
%LPC*%
G36*
X597957Y75736D02*
X597957Y75736D01*
X594736Y77070D01*
X592270Y79536D01*
X590936Y82757D01*
X590936Y86243D01*
X592270Y89464D01*
X594736Y91930D01*
X597957Y93264D01*
X601443Y93264D01*
X604664Y91930D01*
X607130Y89464D01*
X608464Y86243D01*
X608464Y82757D01*
X607130Y79536D01*
X604664Y77070D01*
X601443Y75736D01*
X597957Y75736D01*
G37*
%LPD*%
%LPC*%
G36*
X572557Y75736D02*
X572557Y75736D01*
X569336Y77070D01*
X566870Y79536D01*
X565536Y82757D01*
X565536Y86243D01*
X566870Y89464D01*
X569336Y91930D01*
X572557Y93264D01*
X576043Y93264D01*
X579264Y91930D01*
X581730Y89464D01*
X583064Y86243D01*
X583064Y82757D01*
X581730Y79536D01*
X579264Y77070D01*
X576043Y75736D01*
X572557Y75736D01*
G37*
%LPD*%
%LPC*%
G36*
X851957Y75736D02*
X851957Y75736D01*
X848736Y77070D01*
X846270Y79536D01*
X844936Y82757D01*
X844936Y86243D01*
X846270Y89464D01*
X848736Y91930D01*
X851957Y93264D01*
X855443Y93264D01*
X858664Y91930D01*
X861130Y89464D01*
X862464Y86243D01*
X862464Y82757D01*
X861130Y79536D01*
X858664Y77070D01*
X855443Y75736D01*
X851957Y75736D01*
G37*
%LPD*%
%LPC*%
G36*
X320611Y467759D02*
X320611Y467759D01*
X317490Y469052D01*
X315102Y471440D01*
X313809Y474561D01*
X313809Y477939D01*
X315102Y481060D01*
X317490Y483448D01*
X320611Y484741D01*
X323989Y484741D01*
X327110Y483448D01*
X329498Y481060D01*
X330791Y477939D01*
X330791Y474561D01*
X329498Y471440D01*
X327110Y469052D01*
X323989Y467759D01*
X320611Y467759D01*
G37*
%LPD*%
%LPC*%
G36*
X285611Y467759D02*
X285611Y467759D01*
X282490Y469052D01*
X280102Y471440D01*
X278809Y474561D01*
X278809Y477939D01*
X280102Y481060D01*
X282490Y483448D01*
X285611Y484741D01*
X288989Y484741D01*
X292110Y483448D01*
X294498Y481060D01*
X295791Y477939D01*
X295791Y474561D01*
X294498Y471440D01*
X292110Y469052D01*
X288989Y467759D01*
X285611Y467759D01*
G37*
%LPD*%
%LPC*%
G36*
X142811Y467759D02*
X142811Y467759D01*
X139690Y469052D01*
X137302Y471440D01*
X136009Y474561D01*
X136009Y477939D01*
X137302Y481060D01*
X139690Y483448D01*
X142811Y484741D01*
X146189Y484741D01*
X149310Y483448D01*
X151698Y481060D01*
X152991Y477939D01*
X152991Y474561D01*
X151698Y471440D01*
X149310Y469052D01*
X146189Y467759D01*
X142811Y467759D01*
G37*
%LPD*%
%LPC*%
G36*
X107811Y467759D02*
X107811Y467759D01*
X104690Y469052D01*
X102302Y471440D01*
X101009Y474561D01*
X101009Y477939D01*
X102302Y481060D01*
X104690Y483448D01*
X107811Y484741D01*
X111189Y484741D01*
X114310Y483448D01*
X116698Y481060D01*
X117991Y477939D01*
X117991Y474561D01*
X116698Y471440D01*
X114310Y469052D01*
X111189Y467759D01*
X107811Y467759D01*
G37*
%LPD*%
%LPC*%
G36*
X320611Y213759D02*
X320611Y213759D01*
X317490Y215052D01*
X315102Y217440D01*
X313809Y220561D01*
X313809Y223939D01*
X315102Y227060D01*
X317490Y229448D01*
X320611Y230741D01*
X323989Y230741D01*
X327110Y229448D01*
X329498Y227060D01*
X330791Y223939D01*
X330791Y220561D01*
X329498Y217440D01*
X327110Y215052D01*
X323989Y213759D01*
X320611Y213759D01*
G37*
%LPD*%
%LPC*%
G36*
X285611Y213759D02*
X285611Y213759D01*
X282490Y215052D01*
X280102Y217440D01*
X278809Y220561D01*
X278809Y223939D01*
X280102Y227060D01*
X282490Y229448D01*
X285611Y230741D01*
X288989Y230741D01*
X292110Y229448D01*
X294498Y227060D01*
X295791Y223939D01*
X295791Y220561D01*
X294498Y217440D01*
X292110Y215052D01*
X288989Y213759D01*
X285611Y213759D01*
G37*
%LPD*%
%LPC*%
G36*
X142811Y213759D02*
X142811Y213759D01*
X139690Y215052D01*
X137302Y217440D01*
X136009Y220561D01*
X136009Y223939D01*
X137302Y227060D01*
X139690Y229448D01*
X142811Y230741D01*
X146189Y230741D01*
X149310Y229448D01*
X151698Y227060D01*
X152991Y223939D01*
X152991Y220561D01*
X151698Y217440D01*
X149310Y215052D01*
X146189Y213759D01*
X142811Y213759D01*
G37*
%LPD*%
%LPC*%
G36*
X107811Y213759D02*
X107811Y213759D01*
X104690Y215052D01*
X102302Y217440D01*
X101009Y220561D01*
X101009Y223939D01*
X102302Y227060D01*
X104690Y229448D01*
X107811Y230741D01*
X111189Y230741D01*
X114310Y229448D01*
X116698Y227060D01*
X117991Y223939D01*
X117991Y220561D01*
X116698Y217440D01*
X114310Y215052D01*
X111189Y213759D01*
X107811Y213759D01*
G37*
%LPD*%
%LPC*%
G36*
X722889Y464819D02*
X722889Y464819D01*
X721022Y465593D01*
X719593Y467022D01*
X718819Y468889D01*
X718819Y470911D01*
X719593Y472778D01*
X721022Y474207D01*
X722889Y474981D01*
X724911Y474981D01*
X726778Y474207D01*
X728207Y472778D01*
X728981Y470911D01*
X728981Y468889D01*
X728207Y467022D01*
X726778Y465593D01*
X724911Y464819D01*
X722889Y464819D01*
G37*
%LPD*%
%LPC*%
G36*
X710189Y464819D02*
X710189Y464819D01*
X708322Y465593D01*
X706893Y467022D01*
X706119Y468889D01*
X706119Y470911D01*
X706893Y472778D01*
X708322Y474207D01*
X710189Y474981D01*
X712211Y474981D01*
X714078Y474207D01*
X715507Y472778D01*
X716281Y470911D01*
X716281Y468889D01*
X715507Y467022D01*
X714078Y465593D01*
X712211Y464819D01*
X710189Y464819D01*
G37*
%LPD*%
%LPC*%
G36*
X697489Y464819D02*
X697489Y464819D01*
X695622Y465593D01*
X694193Y467022D01*
X693419Y468889D01*
X693419Y470911D01*
X694193Y472778D01*
X695622Y474207D01*
X697489Y474981D01*
X699511Y474981D01*
X701378Y474207D01*
X702807Y472778D01*
X703581Y470911D01*
X703581Y468889D01*
X702807Y467022D01*
X701378Y465593D01*
X699511Y464819D01*
X697489Y464819D01*
G37*
%LPD*%
%LPC*%
G36*
X154939Y332739D02*
X154939Y332739D01*
X154939Y339524D01*
X156105Y339146D01*
X157459Y338456D01*
X158688Y337563D01*
X159763Y336488D01*
X160656Y335259D01*
X161346Y333905D01*
X161724Y332739D01*
X154939Y332739D01*
G37*
%LPD*%
%LPC*%
G36*
X307339Y332739D02*
X307339Y332739D01*
X307339Y339524D01*
X308505Y339146D01*
X309859Y338456D01*
X311088Y337563D01*
X312163Y336488D01*
X313056Y335259D01*
X313746Y333905D01*
X314124Y332739D01*
X307339Y332739D01*
G37*
%LPD*%
%LPC*%
G36*
X129539Y332739D02*
X129539Y332739D01*
X129539Y339524D01*
X130705Y339146D01*
X132059Y338456D01*
X133288Y337563D01*
X134363Y336488D01*
X135256Y335259D01*
X135946Y333905D01*
X136324Y332739D01*
X129539Y332739D01*
G37*
%LPD*%
%LPC*%
G36*
X104139Y332739D02*
X104139Y332739D01*
X104139Y339524D01*
X105305Y339146D01*
X106659Y338456D01*
X107888Y337563D01*
X108963Y336488D01*
X109856Y335259D01*
X110546Y333905D01*
X110924Y332739D01*
X104139Y332739D01*
G37*
%LPD*%
%LPC*%
G36*
X332739Y332739D02*
X332739Y332739D01*
X332739Y339524D01*
X333905Y339146D01*
X335259Y338456D01*
X336488Y337563D01*
X337563Y336488D01*
X338456Y335259D01*
X339146Y333905D01*
X339524Y332739D01*
X332739Y332739D01*
G37*
%LPD*%
%LPC*%
G36*
X281939Y332739D02*
X281939Y332739D01*
X281939Y339524D01*
X283105Y339146D01*
X284459Y338456D01*
X285688Y337563D01*
X286763Y336488D01*
X287656Y335259D01*
X288346Y333905D01*
X288724Y332739D01*
X281939Y332739D01*
G37*
%LPD*%
%LPC*%
G36*
X129539Y78739D02*
X129539Y78739D01*
X129539Y85524D01*
X130705Y85146D01*
X132059Y84456D01*
X133288Y83563D01*
X134363Y82488D01*
X135256Y81259D01*
X135946Y79905D01*
X136324Y78739D01*
X129539Y78739D01*
G37*
%LPD*%
%LPC*%
G36*
X154939Y78739D02*
X154939Y78739D01*
X154939Y85524D01*
X156105Y85146D01*
X157459Y84456D01*
X158688Y83563D01*
X159763Y82488D01*
X160656Y81259D01*
X161346Y79905D01*
X161724Y78739D01*
X154939Y78739D01*
G37*
%LPD*%
%LPC*%
G36*
X281939Y78739D02*
X281939Y78739D01*
X281939Y85524D01*
X283105Y85146D01*
X284459Y84456D01*
X285688Y83563D01*
X286763Y82488D01*
X287656Y81259D01*
X288346Y79905D01*
X288724Y78739D01*
X281939Y78739D01*
G37*
%LPD*%
%LPC*%
G36*
X307339Y78739D02*
X307339Y78739D01*
X307339Y85524D01*
X308505Y85146D01*
X309859Y84456D01*
X311088Y83563D01*
X312163Y82488D01*
X313056Y81259D01*
X313746Y79905D01*
X314124Y78739D01*
X307339Y78739D01*
G37*
%LPD*%
%LPC*%
G36*
X332739Y78739D02*
X332739Y78739D01*
X332739Y85524D01*
X333905Y85146D01*
X335259Y84456D01*
X336488Y83563D01*
X337563Y82488D01*
X338456Y81259D01*
X339146Y79905D01*
X339524Y78739D01*
X332739Y78739D01*
G37*
%LPD*%
%LPC*%
G36*
X104139Y78739D02*
X104139Y78739D01*
X104139Y85524D01*
X105305Y85146D01*
X106659Y84456D01*
X107888Y83563D01*
X108963Y82488D01*
X109856Y81259D01*
X110546Y79905D01*
X110924Y78739D01*
X104139Y78739D01*
G37*
%LPD*%
%LPC*%
G36*
X117676Y332739D02*
X117676Y332739D01*
X118054Y333905D01*
X118744Y335259D01*
X119637Y336488D01*
X120712Y337563D01*
X121941Y338456D01*
X123295Y339146D01*
X124461Y339524D01*
X124461Y332739D01*
X117676Y332739D01*
G37*
%LPD*%
%LPC*%
G36*
X92276Y332739D02*
X92276Y332739D01*
X92654Y333905D01*
X93344Y335259D01*
X94237Y336488D01*
X95312Y337563D01*
X96541Y338456D01*
X97895Y339146D01*
X99061Y339524D01*
X99061Y332739D01*
X92276Y332739D01*
G37*
%LPD*%
%LPC*%
G36*
X320876Y332739D02*
X320876Y332739D01*
X321254Y333905D01*
X321944Y335259D01*
X322837Y336488D01*
X323912Y337563D01*
X325141Y338456D01*
X326495Y339146D01*
X327661Y339524D01*
X327661Y332739D01*
X320876Y332739D01*
G37*
%LPD*%
%LPC*%
G36*
X295476Y332739D02*
X295476Y332739D01*
X295854Y333905D01*
X296544Y335259D01*
X297437Y336488D01*
X298512Y337563D01*
X299741Y338456D01*
X301095Y339146D01*
X302261Y339524D01*
X302261Y332739D01*
X295476Y332739D01*
G37*
%LPD*%
%LPC*%
G36*
X270076Y332739D02*
X270076Y332739D01*
X270454Y333905D01*
X271144Y335259D01*
X272037Y336488D01*
X273112Y337563D01*
X274341Y338456D01*
X275695Y339146D01*
X276861Y339524D01*
X276861Y332739D01*
X270076Y332739D01*
G37*
%LPD*%
%LPC*%
G36*
X143076Y332739D02*
X143076Y332739D01*
X143454Y333905D01*
X144144Y335259D01*
X145037Y336488D01*
X146112Y337563D01*
X147341Y338456D01*
X148695Y339146D01*
X149861Y339524D01*
X149861Y332739D01*
X143076Y332739D01*
G37*
%LPD*%
%LPC*%
G36*
X129539Y73661D02*
X129539Y73661D01*
X136324Y73661D01*
X135946Y72495D01*
X135256Y71141D01*
X134363Y69912D01*
X133288Y68837D01*
X132059Y67944D01*
X130705Y67254D01*
X129539Y66876D01*
X129539Y73661D01*
G37*
%LPD*%
%LPC*%
G36*
X92276Y78739D02*
X92276Y78739D01*
X92654Y79905D01*
X93344Y81259D01*
X94237Y82488D01*
X95312Y83563D01*
X96541Y84456D01*
X97895Y85146D01*
X99061Y85524D01*
X99061Y78739D01*
X92276Y78739D01*
G37*
%LPD*%
%LPC*%
G36*
X104139Y73661D02*
X104139Y73661D01*
X110924Y73661D01*
X110546Y72495D01*
X109856Y71141D01*
X108963Y69912D01*
X107888Y68837D01*
X106659Y67944D01*
X105305Y67254D01*
X104139Y66876D01*
X104139Y73661D01*
G37*
%LPD*%
%LPC*%
G36*
X320876Y78739D02*
X320876Y78739D01*
X321254Y79905D01*
X321944Y81259D01*
X322837Y82488D01*
X323912Y83563D01*
X325141Y84456D01*
X326495Y85146D01*
X327661Y85524D01*
X327661Y78739D01*
X320876Y78739D01*
G37*
%LPD*%
%LPC*%
G36*
X332739Y73661D02*
X332739Y73661D01*
X339524Y73661D01*
X339146Y72495D01*
X338456Y71141D01*
X337563Y69912D01*
X336488Y68837D01*
X335259Y67944D01*
X333905Y67254D01*
X332739Y66876D01*
X332739Y73661D01*
G37*
%LPD*%
%LPC*%
G36*
X295476Y78739D02*
X295476Y78739D01*
X295854Y79905D01*
X296544Y81259D01*
X297437Y82488D01*
X298512Y83563D01*
X299741Y84456D01*
X301095Y85146D01*
X302261Y85524D01*
X302261Y78739D01*
X295476Y78739D01*
G37*
%LPD*%
%LPC*%
G36*
X129539Y327661D02*
X129539Y327661D01*
X136324Y327661D01*
X135946Y326495D01*
X135256Y325141D01*
X134363Y323912D01*
X133288Y322837D01*
X132059Y321944D01*
X130705Y321254D01*
X129539Y320876D01*
X129539Y327661D01*
G37*
%LPD*%
%LPC*%
G36*
X117676Y78739D02*
X117676Y78739D01*
X118054Y79905D01*
X118744Y81259D01*
X119637Y82488D01*
X120712Y83563D01*
X121941Y84456D01*
X123295Y85146D01*
X124461Y85524D01*
X124461Y78739D01*
X117676Y78739D01*
G37*
%LPD*%
%LPC*%
G36*
X270076Y78739D02*
X270076Y78739D01*
X270454Y79905D01*
X271144Y81259D01*
X272037Y82488D01*
X273112Y83563D01*
X274341Y84456D01*
X275695Y85146D01*
X276861Y85524D01*
X276861Y78739D01*
X270076Y78739D01*
G37*
%LPD*%
%LPC*%
G36*
X307339Y73661D02*
X307339Y73661D01*
X314124Y73661D01*
X313746Y72495D01*
X313056Y71141D01*
X312163Y69912D01*
X311088Y68837D01*
X309859Y67944D01*
X308505Y67254D01*
X307339Y66876D01*
X307339Y73661D01*
G37*
%LPD*%
%LPC*%
G36*
X104139Y327661D02*
X104139Y327661D01*
X110924Y327661D01*
X110546Y326495D01*
X109856Y325141D01*
X108963Y323912D01*
X107888Y322837D01*
X106659Y321944D01*
X105305Y321254D01*
X104139Y320876D01*
X104139Y327661D01*
G37*
%LPD*%
%LPC*%
G36*
X281939Y73661D02*
X281939Y73661D01*
X288724Y73661D01*
X288346Y72495D01*
X287656Y71141D01*
X286763Y69912D01*
X285688Y68837D01*
X284459Y67944D01*
X283105Y67254D01*
X281939Y66876D01*
X281939Y73661D01*
G37*
%LPD*%
%LPC*%
G36*
X154939Y327661D02*
X154939Y327661D01*
X161724Y327661D01*
X161346Y326495D01*
X160656Y325141D01*
X159763Y323912D01*
X158688Y322837D01*
X157459Y321944D01*
X156105Y321254D01*
X154939Y320876D01*
X154939Y327661D01*
G37*
%LPD*%
%LPC*%
G36*
X281939Y327661D02*
X281939Y327661D01*
X288724Y327661D01*
X288346Y326495D01*
X287656Y325141D01*
X286763Y323912D01*
X285688Y322837D01*
X284459Y321944D01*
X283105Y321254D01*
X281939Y320876D01*
X281939Y327661D01*
G37*
%LPD*%
%LPC*%
G36*
X154939Y73661D02*
X154939Y73661D01*
X161724Y73661D01*
X161346Y72495D01*
X160656Y71141D01*
X159763Y69912D01*
X158688Y68837D01*
X157459Y67944D01*
X156105Y67254D01*
X154939Y66876D01*
X154939Y73661D01*
G37*
%LPD*%
%LPC*%
G36*
X332739Y327661D02*
X332739Y327661D01*
X339524Y327661D01*
X339146Y326495D01*
X338456Y325141D01*
X337563Y323912D01*
X336488Y322837D01*
X335259Y321944D01*
X333905Y321254D01*
X332739Y320876D01*
X332739Y327661D01*
G37*
%LPD*%
%LPC*%
G36*
X307339Y327661D02*
X307339Y327661D01*
X314124Y327661D01*
X313746Y326495D01*
X313056Y325141D01*
X312163Y323912D01*
X311088Y322837D01*
X309859Y321944D01*
X308505Y321254D01*
X307339Y320876D01*
X307339Y327661D01*
G37*
%LPD*%
%LPC*%
G36*
X143076Y78739D02*
X143076Y78739D01*
X143454Y79905D01*
X144144Y81259D01*
X145037Y82488D01*
X146112Y83563D01*
X147341Y84456D01*
X148695Y85146D01*
X149861Y85524D01*
X149861Y78739D01*
X143076Y78739D01*
G37*
%LPD*%
%LPC*%
G36*
X326495Y321254D02*
X326495Y321254D01*
X325141Y321944D01*
X323912Y322837D01*
X322837Y323912D01*
X321944Y325141D01*
X321254Y326495D01*
X320876Y327661D01*
X327661Y327661D01*
X327661Y320876D01*
X326495Y321254D01*
G37*
%LPD*%
%LPC*%
G36*
X97895Y321254D02*
X97895Y321254D01*
X96541Y321944D01*
X95312Y322837D01*
X94237Y323912D01*
X93344Y325141D01*
X92654Y326495D01*
X92276Y327661D01*
X99061Y327661D01*
X99061Y320876D01*
X97895Y321254D01*
G37*
%LPD*%
%LPC*%
G36*
X123295Y321254D02*
X123295Y321254D01*
X121941Y321944D01*
X120712Y322837D01*
X119637Y323912D01*
X118744Y325141D01*
X118054Y326495D01*
X117676Y327661D01*
X124461Y327661D01*
X124461Y320876D01*
X123295Y321254D01*
G37*
%LPD*%
%LPC*%
G36*
X275695Y67254D02*
X275695Y67254D01*
X274341Y67944D01*
X273112Y68837D01*
X272037Y69912D01*
X271144Y71141D01*
X270454Y72495D01*
X270076Y73661D01*
X276861Y73661D01*
X276861Y66876D01*
X275695Y67254D01*
G37*
%LPD*%
%LPC*%
G36*
X148695Y67254D02*
X148695Y67254D01*
X147341Y67944D01*
X146112Y68837D01*
X145037Y69912D01*
X144144Y71141D01*
X143454Y72495D01*
X143076Y73661D01*
X149861Y73661D01*
X149861Y66876D01*
X148695Y67254D01*
G37*
%LPD*%
%LPC*%
G36*
X326495Y67254D02*
X326495Y67254D01*
X325141Y67944D01*
X323912Y68837D01*
X322837Y69912D01*
X321944Y71141D01*
X321254Y72495D01*
X320876Y73661D01*
X327661Y73661D01*
X327661Y66876D01*
X326495Y67254D01*
G37*
%LPD*%
%LPC*%
G36*
X301095Y67254D02*
X301095Y67254D01*
X299741Y67944D01*
X298512Y68837D01*
X297437Y69912D01*
X296544Y71141D01*
X295854Y72495D01*
X295476Y73661D01*
X302261Y73661D01*
X302261Y66876D01*
X301095Y67254D01*
G37*
%LPD*%
%LPC*%
G36*
X97895Y67254D02*
X97895Y67254D01*
X96541Y67944D01*
X95312Y68837D01*
X94237Y69912D01*
X93344Y71141D01*
X92654Y72495D01*
X92276Y73661D01*
X99061Y73661D01*
X99061Y66876D01*
X97895Y67254D01*
G37*
%LPD*%
%LPC*%
G36*
X301095Y321254D02*
X301095Y321254D01*
X299741Y321944D01*
X298512Y322837D01*
X297437Y323912D01*
X296544Y325141D01*
X295854Y326495D01*
X295476Y327661D01*
X302261Y327661D01*
X302261Y320876D01*
X301095Y321254D01*
G37*
%LPD*%
%LPC*%
G36*
X123295Y67254D02*
X123295Y67254D01*
X121941Y67944D01*
X120712Y68837D01*
X119637Y69912D01*
X118744Y71141D01*
X118054Y72495D01*
X117676Y73661D01*
X124461Y73661D01*
X124461Y66876D01*
X123295Y67254D01*
G37*
%LPD*%
%LPC*%
G36*
X148695Y321254D02*
X148695Y321254D01*
X147341Y321944D01*
X146112Y322837D01*
X145037Y323912D01*
X144144Y325141D01*
X143454Y326495D01*
X143076Y327661D01*
X149861Y327661D01*
X149861Y320876D01*
X148695Y321254D01*
G37*
%LPD*%
%LPC*%
G36*
X275695Y321254D02*
X275695Y321254D01*
X274341Y321944D01*
X273112Y322837D01*
X272037Y323912D01*
X271144Y325141D01*
X270454Y326495D01*
X270076Y327661D01*
X276861Y327661D01*
X276861Y320876D01*
X275695Y321254D01*
G37*
%LPD*%
%LPC*%
G36*
X601922Y340722D02*
X601922Y340722D01*
X601922Y346993D01*
X602256Y346927D01*
X603851Y346266D01*
X605287Y345307D01*
X606507Y344087D01*
X607466Y342651D01*
X608127Y341056D01*
X608193Y340722D01*
X601922Y340722D01*
G37*
%LPD*%
%LPC*%
G36*
X192722Y103822D02*
X192722Y103822D01*
X192722Y110093D01*
X193056Y110027D01*
X194651Y109366D01*
X196087Y108407D01*
X197307Y107187D01*
X198266Y105751D01*
X198927Y104156D01*
X198993Y103822D01*
X192722Y103822D01*
G37*
%LPD*%
%LPC*%
G36*
X192722Y357822D02*
X192722Y357822D01*
X192722Y364093D01*
X193056Y364027D01*
X194651Y363366D01*
X196087Y362407D01*
X197307Y361187D01*
X198266Y359751D01*
X198927Y358156D01*
X198993Y357822D01*
X192722Y357822D01*
G37*
%LPD*%
%LPC*%
G36*
X370522Y103822D02*
X370522Y103822D01*
X370522Y110093D01*
X370856Y110027D01*
X372451Y109366D01*
X373887Y108407D01*
X375107Y107187D01*
X376066Y105751D01*
X376727Y104156D01*
X376793Y103822D01*
X370522Y103822D01*
G37*
%LPD*%
%LPC*%
G36*
X830522Y213722D02*
X830522Y213722D01*
X830522Y219993D01*
X830856Y219927D01*
X832451Y219266D01*
X833887Y218307D01*
X835107Y217087D01*
X836066Y215651D01*
X836727Y214056D01*
X836793Y213722D01*
X830522Y213722D01*
G37*
%LPD*%
%LPC*%
G36*
X370522Y357822D02*
X370522Y357822D01*
X370522Y364093D01*
X370856Y364027D01*
X372451Y363366D01*
X373887Y362407D01*
X375107Y361187D01*
X376066Y359751D01*
X376727Y358156D01*
X376793Y357822D01*
X370522Y357822D01*
G37*
%LPD*%
%LPC*%
G36*
X830522Y209278D02*
X830522Y209278D01*
X836793Y209278D01*
X836727Y208944D01*
X836066Y207349D01*
X835107Y205913D01*
X833887Y204693D01*
X832451Y203734D01*
X830856Y203073D01*
X830522Y203007D01*
X830522Y209278D01*
G37*
%LPD*%
%LPC*%
G36*
X601922Y336278D02*
X601922Y336278D01*
X608193Y336278D01*
X608127Y335944D01*
X607466Y334349D01*
X606507Y332913D01*
X605287Y331693D01*
X603851Y330734D01*
X602256Y330073D01*
X601922Y330007D01*
X601922Y336278D01*
G37*
%LPD*%
%LPC*%
G36*
X359807Y357822D02*
X359807Y357822D01*
X359873Y358156D01*
X360534Y359751D01*
X361493Y361187D01*
X362713Y362407D01*
X364149Y363366D01*
X365744Y364027D01*
X366078Y364093D01*
X366078Y357822D01*
X359807Y357822D01*
G37*
%LPD*%
%LPC*%
G36*
X182007Y103822D02*
X182007Y103822D01*
X182073Y104156D01*
X182734Y105751D01*
X183693Y107187D01*
X184913Y108407D01*
X186349Y109366D01*
X187944Y110027D01*
X188278Y110093D01*
X188278Y103822D01*
X182007Y103822D01*
G37*
%LPD*%
%LPC*%
G36*
X359807Y103822D02*
X359807Y103822D01*
X359873Y104156D01*
X360534Y105751D01*
X361493Y107187D01*
X362713Y108407D01*
X364149Y109366D01*
X365744Y110027D01*
X366078Y110093D01*
X366078Y103822D01*
X359807Y103822D01*
G37*
%LPD*%
%LPC*%
G36*
X182007Y357822D02*
X182007Y357822D01*
X182073Y358156D01*
X182734Y359751D01*
X183693Y361187D01*
X184913Y362407D01*
X186349Y363366D01*
X187944Y364027D01*
X188278Y364093D01*
X188278Y357822D01*
X182007Y357822D01*
G37*
%LPD*%
%LPC*%
G36*
X591207Y340722D02*
X591207Y340722D01*
X591273Y341056D01*
X591934Y342651D01*
X592893Y344087D01*
X594113Y345307D01*
X595549Y346266D01*
X597144Y346927D01*
X597478Y346993D01*
X597478Y340722D01*
X591207Y340722D01*
G37*
%LPD*%
%LPC*%
G36*
X192722Y353378D02*
X192722Y353378D01*
X198993Y353378D01*
X198927Y353044D01*
X198266Y351449D01*
X197307Y350013D01*
X196087Y348793D01*
X194651Y347834D01*
X193056Y347173D01*
X192722Y347107D01*
X192722Y353378D01*
G37*
%LPD*%
%LPC*%
G36*
X192722Y99378D02*
X192722Y99378D01*
X198993Y99378D01*
X198927Y99044D01*
X198266Y97449D01*
X197307Y96013D01*
X196087Y94793D01*
X194651Y93834D01*
X193056Y93173D01*
X192722Y93107D01*
X192722Y99378D01*
G37*
%LPD*%
%LPC*%
G36*
X370522Y353378D02*
X370522Y353378D01*
X376793Y353378D01*
X376727Y353044D01*
X376066Y351449D01*
X375107Y350013D01*
X373887Y348793D01*
X372451Y347834D01*
X370856Y347173D01*
X370522Y347107D01*
X370522Y353378D01*
G37*
%LPD*%
%LPC*%
G36*
X819807Y213722D02*
X819807Y213722D01*
X819873Y214056D01*
X820534Y215651D01*
X821493Y217087D01*
X822713Y218307D01*
X824149Y219266D01*
X825744Y219927D01*
X826078Y219993D01*
X826078Y213722D01*
X819807Y213722D01*
G37*
%LPD*%
%LPC*%
G36*
X370522Y99378D02*
X370522Y99378D01*
X376793Y99378D01*
X376727Y99044D01*
X376066Y97449D01*
X375107Y96013D01*
X373887Y94793D01*
X372451Y93834D01*
X370856Y93173D01*
X370522Y93107D01*
X370522Y99378D01*
G37*
%LPD*%
%LPC*%
G36*
X365744Y93173D02*
X365744Y93173D01*
X364149Y93834D01*
X362713Y94793D01*
X361493Y96013D01*
X360534Y97449D01*
X359873Y99044D01*
X359807Y99378D01*
X366078Y99378D01*
X366078Y93107D01*
X365744Y93173D01*
G37*
%LPD*%
%LPC*%
G36*
X597144Y330073D02*
X597144Y330073D01*
X595549Y330734D01*
X594113Y331693D01*
X592893Y332913D01*
X591934Y334349D01*
X591273Y335944D01*
X591207Y336278D01*
X597478Y336278D01*
X597478Y330007D01*
X597144Y330073D01*
G37*
%LPD*%
%LPC*%
G36*
X825744Y203073D02*
X825744Y203073D01*
X824149Y203734D01*
X822713Y204693D01*
X821493Y205913D01*
X820534Y207349D01*
X819873Y208944D01*
X819807Y209278D01*
X826078Y209278D01*
X826078Y203007D01*
X825744Y203073D01*
G37*
%LPD*%
%LPC*%
G36*
X187944Y93173D02*
X187944Y93173D01*
X186349Y93834D01*
X184913Y94793D01*
X183693Y96013D01*
X182734Y97449D01*
X182073Y99044D01*
X182007Y99378D01*
X188278Y99378D01*
X188278Y93107D01*
X187944Y93173D01*
G37*
%LPD*%
%LPC*%
G36*
X187944Y347173D02*
X187944Y347173D01*
X186349Y347834D01*
X184913Y348793D01*
X183693Y350013D01*
X182734Y351449D01*
X182073Y353044D01*
X182007Y353378D01*
X188278Y353378D01*
X188278Y347107D01*
X187944Y347173D01*
G37*
%LPD*%
%LPC*%
G36*
X365744Y347173D02*
X365744Y347173D01*
X364149Y347834D01*
X362713Y348793D01*
X361493Y350013D01*
X360534Y351449D01*
X359873Y353044D01*
X359807Y353378D01*
X366078Y353378D01*
X366078Y347107D01*
X365744Y347173D01*
G37*
%LPD*%
%LPC*%
G36*
X330199Y76199D02*
X330199Y76199D01*
X330199Y76201D01*
X330201Y76201D01*
X330201Y76199D01*
X330199Y76199D01*
G37*
%LPD*%
%LPC*%
G36*
X304799Y76199D02*
X304799Y76199D01*
X304799Y76201D01*
X304801Y76201D01*
X304801Y76199D01*
X304799Y76199D01*
G37*
%LPD*%
%LPC*%
G36*
X279399Y76199D02*
X279399Y76199D01*
X279399Y76201D01*
X279401Y76201D01*
X279401Y76199D01*
X279399Y76199D01*
G37*
%LPD*%
%LPC*%
G36*
X152399Y76199D02*
X152399Y76199D01*
X152399Y76201D01*
X152401Y76201D01*
X152401Y76199D01*
X152399Y76199D01*
G37*
%LPD*%
%LPC*%
G36*
X126999Y76199D02*
X126999Y76199D01*
X126999Y76201D01*
X127001Y76201D01*
X127001Y76199D01*
X126999Y76199D01*
G37*
%LPD*%
%LPC*%
G36*
X101599Y76199D02*
X101599Y76199D01*
X101599Y76201D01*
X101601Y76201D01*
X101601Y76199D01*
X101599Y76199D01*
G37*
%LPD*%
%LPC*%
G36*
X304799Y330199D02*
X304799Y330199D01*
X304799Y330201D01*
X304801Y330201D01*
X304801Y330199D01*
X304799Y330199D01*
G37*
%LPD*%
%LPC*%
G36*
X101599Y330199D02*
X101599Y330199D01*
X101599Y330201D01*
X101601Y330201D01*
X101601Y330199D01*
X101599Y330199D01*
G37*
%LPD*%
%LPC*%
G36*
X126999Y330199D02*
X126999Y330199D01*
X126999Y330201D01*
X127001Y330201D01*
X127001Y330199D01*
X126999Y330199D01*
G37*
%LPD*%
%LPC*%
G36*
X279399Y330199D02*
X279399Y330199D01*
X279399Y330201D01*
X279401Y330201D01*
X279401Y330199D01*
X279399Y330199D01*
G37*
%LPD*%
%LPC*%
G36*
X330199Y330199D02*
X330199Y330199D01*
X330199Y330201D01*
X330201Y330201D01*
X330201Y330199D01*
X330199Y330199D01*
G37*
%LPD*%
%LPC*%
G36*
X152399Y330199D02*
X152399Y330199D01*
X152399Y330201D01*
X152401Y330201D01*
X152401Y330199D01*
X152399Y330199D01*
G37*
%LPD*%
D10*
X63500Y508000D03*
X63500Y482600D03*
X63500Y457200D03*
X63500Y431800D03*
X63500Y406400D03*
X63500Y381000D03*
X63500Y355600D03*
X63500Y330200D03*
X190500Y330200D03*
X190500Y355600D03*
X190500Y381000D03*
X190500Y406400D03*
X190500Y431800D03*
X190500Y457200D03*
X190500Y482600D03*
X190500Y508000D03*
D11*
X144500Y476250D03*
X109500Y476250D03*
D12*
X88900Y292100D03*
X114300Y292100D03*
X139700Y292100D03*
X165100Y292100D03*
X101600Y330200D03*
X101600Y355600D03*
X127000Y330200D03*
X127000Y355600D03*
X152400Y330200D03*
X152400Y355600D03*
D10*
X241300Y508000D03*
X241300Y482600D03*
X241300Y457200D03*
X241300Y431800D03*
X241300Y406400D03*
X241300Y381000D03*
X241300Y355600D03*
X241300Y330200D03*
X368300Y330200D03*
X368300Y355600D03*
X368300Y381000D03*
X368300Y406400D03*
X368300Y431800D03*
X368300Y457200D03*
X368300Y482600D03*
X368300Y508000D03*
D11*
X322300Y476250D03*
X287300Y476250D03*
D12*
X266700Y292100D03*
X292100Y292100D03*
X317500Y292100D03*
X342900Y292100D03*
X279400Y330200D03*
X279400Y355600D03*
X304800Y330200D03*
X304800Y355600D03*
X330200Y330200D03*
X330200Y355600D03*
D10*
X63500Y254000D03*
X63500Y228600D03*
X63500Y203200D03*
X63500Y177800D03*
X63500Y152400D03*
X63500Y127000D03*
X63500Y101600D03*
X63500Y76200D03*
X190500Y76200D03*
X190500Y101600D03*
X190500Y127000D03*
X190500Y152400D03*
X190500Y177800D03*
X190500Y203200D03*
X190500Y228600D03*
X190500Y254000D03*
D11*
X144500Y222250D03*
X109500Y222250D03*
D12*
X88900Y38100D03*
X114300Y38100D03*
X139700Y38100D03*
X165100Y38100D03*
X101600Y76200D03*
X101600Y101600D03*
X127000Y76200D03*
X127000Y101600D03*
X152400Y76200D03*
X152400Y101600D03*
D10*
X241300Y254000D03*
X241300Y228600D03*
X241300Y203200D03*
X241300Y177800D03*
X241300Y152400D03*
X241300Y127000D03*
X241300Y101600D03*
X241300Y76200D03*
X368300Y76200D03*
X368300Y101600D03*
X368300Y127000D03*
X368300Y152400D03*
X368300Y177800D03*
X368300Y203200D03*
X368300Y228600D03*
X368300Y254000D03*
D11*
X322300Y222250D03*
X287300Y222250D03*
D12*
X266700Y38100D03*
X292100Y38100D03*
X317500Y38100D03*
X342900Y38100D03*
X279400Y76200D03*
X279400Y101600D03*
X304800Y76200D03*
X304800Y101600D03*
X330200Y76200D03*
X330200Y101600D03*
X520700Y381000D03*
X495300Y381000D03*
X520700Y355600D03*
X495300Y355600D03*
X520700Y330200D03*
X495300Y330200D03*
X520700Y304800D03*
X495300Y304800D03*
X520700Y279400D03*
X495300Y279400D03*
X520700Y254000D03*
X495300Y254000D03*
X520700Y228600D03*
X495300Y228600D03*
X520700Y203200D03*
X495300Y203200D03*
X520700Y177800D03*
X495300Y177800D03*
X520700Y152400D03*
X495300Y152400D03*
X417830Y127000D03*
X443230Y127000D03*
X417830Y101600D03*
X443230Y101600D03*
X417830Y76200D03*
X443230Y76200D03*
X417830Y50800D03*
X443230Y50800D03*
X495300Y50800D03*
X469900Y50800D03*
X495300Y76200D03*
X469900Y76200D03*
X495300Y101600D03*
X469900Y101600D03*
X495300Y127000D03*
X469900Y127000D03*
D13*
X25400Y533400D03*
X25400Y25400D03*
X863600Y25400D03*
X863600Y533400D03*
D10*
X853700Y59100D03*
X828300Y59100D03*
X853700Y84500D03*
X828300Y84500D03*
X853700Y109900D03*
X828300Y109900D03*
X853700Y135300D03*
X828300Y135300D03*
X853700Y160700D03*
X828300Y160700D03*
X853700Y186100D03*
X828300Y186100D03*
X853700Y211500D03*
X828300Y211500D03*
X853700Y236900D03*
X828300Y236900D03*
X853700Y262300D03*
X828300Y262300D03*
X853700Y287700D03*
X828300Y287700D03*
X853700Y313100D03*
X828300Y313100D03*
X853700Y338500D03*
X828300Y338500D03*
X853700Y363900D03*
X828300Y363900D03*
X853700Y389300D03*
X828300Y389300D03*
X853700Y414700D03*
X828300Y414700D03*
X853700Y440100D03*
X828300Y440100D03*
X853700Y465500D03*
X828300Y465500D03*
X853700Y490900D03*
X828300Y490900D03*
X599700Y59100D03*
X574300Y59100D03*
X599700Y84500D03*
X574300Y84500D03*
X599700Y109900D03*
X574300Y109900D03*
X599700Y135300D03*
X574300Y135300D03*
X599700Y160700D03*
X574300Y160700D03*
X599700Y186100D03*
X574300Y186100D03*
X599700Y211500D03*
X574300Y211500D03*
X599700Y236900D03*
X574300Y236900D03*
X599700Y262300D03*
X574300Y262300D03*
X599700Y287700D03*
X574300Y287700D03*
X599700Y313100D03*
X574300Y313100D03*
X599700Y338500D03*
X574300Y338500D03*
X599700Y363900D03*
X574300Y363900D03*
X599700Y389300D03*
X574300Y389300D03*
X599700Y414700D03*
X574300Y414700D03*
X599700Y440100D03*
X574300Y440100D03*
X599700Y465500D03*
X574300Y465500D03*
X599700Y490900D03*
X574300Y490900D03*
D14*
X480060Y418870D03*
X480060Y478870D03*
X433060Y448870D03*
D15*
X698500Y469900D03*
X711200Y469900D03*
X723900Y469900D03*
M02*
