M48
;GenerationSoftware,Autodesk,EAGLE,9.6.2*%
;CreationDate,2021-12-13T21:20:24Z*%
FMAT,2
ICI,OFF
METRIC,TZ,000.000
T6C0.305
T5C0.850
T4C0.889
T3C1.000
T2C1.016
T1C3.175
%
G90
M71
T1
X2540Y53340
X86360Y53340
X86360Y2540
X2540Y2540
T2
X12700Y35560
X44323Y12700
X8890Y3810
X11430Y3810
X13970Y3810
X16510Y3810
X10160Y7620
X10160Y10160
X12700Y7620
X12700Y10160
X15240Y7620
X15240Y10160
X52070Y38100
X41783Y10160
X44323Y10160
X41783Y7620
X44323Y7620
X41783Y5080
X44323Y5080
X46990Y5080
X49530Y7620
X8890Y29210
X11430Y29210
X13970Y29210
X16510Y29210
X10160Y33020
X10160Y35560
X12700Y33020
X30480Y35560
X15240Y33020
X15240Y35560
X46990Y7620
X49530Y10160
X46990Y10160
X49530Y12700
X46990Y12700
X26670Y3810
X29210Y3810
X31750Y3810
X34290Y3810
X27940Y7620
X27940Y10160
X30480Y7620
X30480Y10160
X33020Y7620
X33020Y10160
X49530Y5080
X49530Y38100
X52070Y35560
X26670Y29210
X29210Y29210
X31750Y29210
X34290Y29210
X27940Y33020
X27940Y35560
X30480Y33020
X49530Y35560
X33020Y33020
X33020Y35560
X52070Y33020
X49530Y33020
X52070Y30480
X49530Y30480
X52070Y27940
X49530Y27940
X52070Y25400
X49530Y25400
X52070Y22860
X49530Y22860
X52070Y20320
X49530Y20320
X52070Y17780
X49530Y17780
X52070Y15240
X49530Y15240
X41783Y12700
T3
X43306Y44887
X48006Y41887
X48006Y47887
T4
X57430Y41470
X59970Y44010
X6350Y50800
X6350Y48260
X6350Y45720
X6350Y43180
X6350Y40640
X6350Y38100
X6350Y35560
X6350Y33020
X19050Y33020
X19050Y35560
X19050Y38100
X19050Y40640
X19050Y43180
X19050Y45720
X19050Y48260
X19050Y50800
X24130Y22860
X57430Y44010
X24130Y50800
X24130Y48260
X24130Y45720
X24130Y43180
X24130Y40640
X24130Y38100
X24130Y35560
X24130Y33020
X36830Y33020
X36830Y35560
X36830Y38100
X36830Y40640
X36830Y43180
X36830Y45720
X36830Y48260
X36830Y50800
X59970Y46550
X57430Y46550
X59970Y49090
X6350Y25400
X6350Y22860
X6350Y20320
X6350Y17780
X6350Y15240
X6350Y12700
X6350Y10160
X6350Y7620
X19050Y7620
X19050Y10160
X19050Y12700
X19050Y15240
X19050Y17780
X19050Y20320
X19050Y22860
X19050Y25400
X57430Y49090
X59970Y18610
X24130Y20320
X24130Y17780
X24130Y15240
X24130Y12700
X24130Y10160
X24130Y7620
X36830Y7620
X36830Y10160
X36830Y12700
X36830Y15240
X36830Y17780
X36830Y20320
X24130Y25400
X36830Y25400
X36830Y22860
X59970Y31310
X82830Y5910
X85370Y8450
X82830Y8450
X85370Y10990
X82830Y10990
X85370Y13530
X82830Y13530
X85370Y16070
X82830Y16070
X85370Y18610
X82830Y18610
X85370Y21150
X82830Y21150
X85370Y23690
X82830Y23690
X85370Y26230
X82830Y26230
X85370Y5910
X82830Y28770
X85370Y31310
X82830Y31310
X85370Y33850
X82830Y33850
X85370Y36390
X82830Y36390
X85370Y38930
X82830Y38930
X85370Y41470
X82830Y41470
X85370Y44010
X82830Y44010
X85370Y46550
X82830Y46550
X85370Y49090
X82830Y49090
X59970Y5910
X57430Y5910
X59970Y8450
X57430Y8450
X59970Y10990
X57430Y10990
X59970Y13530
X57430Y13530
X59970Y16070
X57430Y16070
X85370Y28770
X57430Y18610
X59970Y21150
X57430Y21150
X59970Y23690
X57430Y23690
X59970Y26230
X57430Y26230
X59970Y28770
X57430Y28770
X57430Y31310
X59970Y33850
X57430Y33850
X59970Y36390
X57430Y36390
X59970Y38930
X57430Y38930
X59970Y41470
T5
X14450Y47625
X10950Y47625
X28730Y47625
X14450Y22225
X10950Y22225
X32230Y22225
X28730Y22225
X32230Y47625
T6
X72390Y46990
X71120Y46990
X69850Y46990
M30