G04 EAGLE Gerber RS-274X export*
G75*
%MOMM*%
%FSLAX34Y34*%
%LPD*%
%IN*%
%IPPOS*%
%AMOC8*
5,1,8,0,0,1.08239X$1,22.5*%
G01*
%ADD10C,0.254000*%


D10*
X0Y12700D02*
X48Y11593D01*
X193Y10495D01*
X433Y9413D01*
X766Y8356D01*
X1190Y7333D01*
X1701Y6350D01*
X2297Y5416D01*
X2971Y4537D01*
X3720Y3720D01*
X4537Y2971D01*
X5416Y2297D01*
X6350Y1701D01*
X7333Y1190D01*
X8356Y766D01*
X9413Y433D01*
X10495Y193D01*
X11593Y48D01*
X12700Y0D01*
X876300Y0D01*
X877407Y48D01*
X878505Y193D01*
X879587Y433D01*
X880644Y766D01*
X881667Y1190D01*
X882650Y1701D01*
X883584Y2297D01*
X884463Y2971D01*
X885280Y3720D01*
X886029Y4537D01*
X886703Y5416D01*
X887299Y6350D01*
X887810Y7333D01*
X888234Y8356D01*
X888567Y9413D01*
X888807Y10495D01*
X888952Y11593D01*
X889000Y12700D01*
X889000Y546100D01*
X888952Y547207D01*
X888807Y548305D01*
X888567Y549387D01*
X888234Y550444D01*
X887810Y551467D01*
X887299Y552450D01*
X886703Y553384D01*
X886029Y554263D01*
X885280Y555080D01*
X884463Y555829D01*
X883584Y556503D01*
X882650Y557099D01*
X881667Y557610D01*
X880644Y558034D01*
X879587Y558367D01*
X878505Y558607D01*
X877407Y558752D01*
X876300Y558800D01*
X12700Y558800D01*
X11593Y558752D01*
X10495Y558607D01*
X9413Y558367D01*
X8356Y558034D01*
X7333Y557610D01*
X6350Y557099D01*
X5416Y556503D01*
X4537Y555829D01*
X3720Y555080D01*
X2971Y554263D01*
X2297Y553384D01*
X1701Y552450D01*
X1190Y551467D01*
X766Y550444D01*
X433Y549387D01*
X193Y548305D01*
X48Y547207D01*
X0Y546100D01*
X0Y12700D01*
X428060Y440870D02*
X438060Y440870D01*
X438060Y456870D01*
X428060Y456870D01*
X428060Y440870D01*
X472060Y413870D02*
X488060Y413870D01*
X488060Y423870D01*
X472060Y423870D01*
X472060Y413870D01*
X472060Y473870D02*
X488060Y473870D01*
X488060Y483870D01*
X472060Y483870D01*
X472060Y473870D01*
M02*
