G04 EAGLE Gerber RS-274X export*
G75*
%MOMM*%
%FSLAX34Y34*%
%LPD*%
%INSilkscreen Bottom*%
%IPPOS*%
%AMOC8*
5,1,8,0,0,1.08239X$1,22.5*%
G01*
%ADD10C,0.152400*%
%ADD11C,0.203200*%
%ADD12C,0.127000*%


D10*
X800721Y515112D02*
X805688Y515112D01*
X805688Y526288D01*
X800721Y526288D01*
X801963Y521321D02*
X805688Y521321D01*
X795810Y526288D02*
X795810Y515112D01*
X789601Y515112D02*
X795810Y526288D01*
X789601Y526288D02*
X789601Y515112D01*
X779272Y521321D02*
X777409Y521321D01*
X777409Y515112D01*
X781135Y515112D01*
X781233Y515114D01*
X781330Y515120D01*
X781427Y515129D01*
X781524Y515143D01*
X781620Y515160D01*
X781715Y515181D01*
X781809Y515205D01*
X781903Y515234D01*
X781995Y515266D01*
X782086Y515301D01*
X782175Y515340D01*
X782263Y515383D01*
X782349Y515429D01*
X782433Y515478D01*
X782515Y515531D01*
X782595Y515586D01*
X782673Y515645D01*
X782748Y515707D01*
X782821Y515772D01*
X782891Y515840D01*
X782959Y515910D01*
X783024Y515983D01*
X783086Y516058D01*
X783145Y516136D01*
X783200Y516216D01*
X783253Y516298D01*
X783302Y516382D01*
X783348Y516468D01*
X783391Y516556D01*
X783430Y516645D01*
X783465Y516736D01*
X783497Y516828D01*
X783526Y516922D01*
X783550Y517016D01*
X783571Y517111D01*
X783588Y517207D01*
X783602Y517304D01*
X783611Y517401D01*
X783617Y517499D01*
X783619Y517596D01*
X783618Y517596D02*
X783618Y523804D01*
X783619Y523804D02*
X783617Y523902D01*
X783611Y523999D01*
X783602Y524096D01*
X783588Y524193D01*
X783571Y524289D01*
X783550Y524384D01*
X783526Y524478D01*
X783497Y524572D01*
X783465Y524664D01*
X783430Y524755D01*
X783391Y524844D01*
X783348Y524932D01*
X783302Y525018D01*
X783253Y525102D01*
X783200Y525184D01*
X783145Y525264D01*
X783086Y525342D01*
X783024Y525417D01*
X782959Y525490D01*
X782891Y525560D01*
X782821Y525628D01*
X782748Y525693D01*
X782673Y525755D01*
X782595Y525814D01*
X782515Y525869D01*
X782433Y525922D01*
X782349Y525971D01*
X782263Y526017D01*
X782175Y526060D01*
X782086Y526099D01*
X781995Y526134D01*
X781903Y526166D01*
X781809Y526195D01*
X781715Y526219D01*
X781620Y526240D01*
X781524Y526257D01*
X781427Y526271D01*
X781330Y526280D01*
X781233Y526286D01*
X781135Y526288D01*
X777409Y526288D01*
X770989Y526288D02*
X770989Y515112D01*
X772231Y515112D02*
X769747Y515112D01*
X769747Y526288D02*
X772231Y526288D01*
X764949Y515112D02*
X761845Y515112D01*
X761734Y515114D01*
X761624Y515120D01*
X761513Y515130D01*
X761403Y515144D01*
X761294Y515161D01*
X761185Y515183D01*
X761077Y515208D01*
X760971Y515238D01*
X760865Y515271D01*
X760760Y515308D01*
X760657Y515348D01*
X760556Y515393D01*
X760456Y515440D01*
X760357Y515492D01*
X760261Y515547D01*
X760167Y515605D01*
X760075Y515666D01*
X759985Y515731D01*
X759897Y515799D01*
X759812Y515870D01*
X759730Y515944D01*
X759650Y516021D01*
X759573Y516101D01*
X759499Y516183D01*
X759428Y516268D01*
X759360Y516356D01*
X759295Y516446D01*
X759234Y516538D01*
X759176Y516632D01*
X759121Y516728D01*
X759069Y516827D01*
X759022Y516927D01*
X758977Y517028D01*
X758937Y517131D01*
X758900Y517236D01*
X758867Y517342D01*
X758837Y517448D01*
X758812Y517556D01*
X758790Y517665D01*
X758773Y517774D01*
X758759Y517884D01*
X758749Y517995D01*
X758743Y518105D01*
X758741Y518216D01*
X758743Y518327D01*
X758749Y518437D01*
X758759Y518548D01*
X758773Y518658D01*
X758790Y518767D01*
X758812Y518876D01*
X758837Y518984D01*
X758867Y519090D01*
X758900Y519196D01*
X758937Y519301D01*
X758977Y519404D01*
X759022Y519505D01*
X759069Y519605D01*
X759121Y519704D01*
X759176Y519800D01*
X759234Y519894D01*
X759295Y519986D01*
X759360Y520076D01*
X759428Y520164D01*
X759499Y520249D01*
X759573Y520331D01*
X759650Y520411D01*
X759730Y520488D01*
X759812Y520562D01*
X759897Y520633D01*
X759985Y520701D01*
X760075Y520766D01*
X760167Y520827D01*
X760261Y520885D01*
X760357Y520940D01*
X760456Y520992D01*
X760556Y521039D01*
X760657Y521084D01*
X760760Y521124D01*
X760865Y521161D01*
X760971Y521194D01*
X761077Y521224D01*
X761185Y521249D01*
X761294Y521271D01*
X761403Y521288D01*
X761513Y521302D01*
X761624Y521312D01*
X761734Y521318D01*
X761845Y521320D01*
X761224Y526288D02*
X764949Y526288D01*
X761224Y526288D02*
X761125Y526286D01*
X761027Y526280D01*
X760928Y526270D01*
X760831Y526257D01*
X760733Y526239D01*
X760637Y526218D01*
X760541Y526192D01*
X760447Y526163D01*
X760354Y526131D01*
X760262Y526094D01*
X760172Y526054D01*
X760083Y526010D01*
X759996Y525963D01*
X759911Y525913D01*
X759829Y525859D01*
X759748Y525802D01*
X759670Y525742D01*
X759594Y525678D01*
X759521Y525612D01*
X759450Y525543D01*
X759382Y525471D01*
X759318Y525396D01*
X759256Y525319D01*
X759197Y525240D01*
X759142Y525158D01*
X759089Y525074D01*
X759041Y524989D01*
X758995Y524901D01*
X758953Y524811D01*
X758915Y524720D01*
X758881Y524628D01*
X758850Y524534D01*
X758823Y524439D01*
X758799Y524343D01*
X758780Y524246D01*
X758764Y524149D01*
X758752Y524051D01*
X758744Y523952D01*
X758740Y523853D01*
X758740Y523755D01*
X758744Y523656D01*
X758752Y523557D01*
X758764Y523459D01*
X758780Y523362D01*
X758799Y523265D01*
X758823Y523169D01*
X758850Y523074D01*
X758881Y522980D01*
X758915Y522888D01*
X758953Y522797D01*
X758995Y522707D01*
X759041Y522619D01*
X759089Y522534D01*
X759142Y522450D01*
X759197Y522368D01*
X759256Y522289D01*
X759318Y522212D01*
X759382Y522137D01*
X759450Y522065D01*
X759521Y521996D01*
X759594Y521930D01*
X759670Y521866D01*
X759748Y521806D01*
X759829Y521749D01*
X759911Y521695D01*
X759996Y521645D01*
X760083Y521598D01*
X760172Y521554D01*
X760262Y521514D01*
X760354Y521477D01*
X760447Y521445D01*
X760541Y521416D01*
X760637Y521390D01*
X760733Y521369D01*
X760831Y521351D01*
X760928Y521338D01*
X761027Y521328D01*
X761125Y521322D01*
X761224Y521320D01*
X761224Y521321D02*
X763708Y521321D01*
X753519Y520700D02*
X753516Y520920D01*
X753509Y521140D01*
X753495Y521359D01*
X753477Y521578D01*
X753453Y521797D01*
X753425Y522015D01*
X753391Y522232D01*
X753352Y522448D01*
X753307Y522664D01*
X753258Y522878D01*
X753203Y523091D01*
X753144Y523303D01*
X753079Y523513D01*
X753009Y523721D01*
X752935Y523928D01*
X752855Y524133D01*
X752771Y524336D01*
X752682Y524537D01*
X752588Y524736D01*
X752555Y524825D01*
X752519Y524913D01*
X752479Y524999D01*
X752436Y525084D01*
X752389Y525166D01*
X752338Y525247D01*
X752285Y525325D01*
X752228Y525401D01*
X752168Y525475D01*
X752105Y525546D01*
X752040Y525615D01*
X751971Y525681D01*
X751900Y525743D01*
X751826Y525803D01*
X751750Y525860D01*
X751672Y525914D01*
X751591Y525964D01*
X751509Y526011D01*
X751424Y526054D01*
X751338Y526094D01*
X751250Y526131D01*
X751161Y526163D01*
X751071Y526192D01*
X750979Y526218D01*
X750887Y526239D01*
X750793Y526257D01*
X750699Y526270D01*
X750605Y526280D01*
X750510Y526286D01*
X750415Y526288D01*
X750320Y526286D01*
X750225Y526280D01*
X750131Y526270D01*
X750037Y526257D01*
X749943Y526239D01*
X749851Y526218D01*
X749759Y526192D01*
X749669Y526163D01*
X749580Y526131D01*
X749492Y526094D01*
X749406Y526054D01*
X749321Y526011D01*
X749239Y525964D01*
X749158Y525914D01*
X749080Y525860D01*
X749004Y525803D01*
X748930Y525743D01*
X748859Y525681D01*
X748790Y525615D01*
X748725Y525546D01*
X748662Y525475D01*
X748602Y525401D01*
X748545Y525325D01*
X748492Y525247D01*
X748441Y525166D01*
X748394Y525084D01*
X748351Y524999D01*
X748311Y524913D01*
X748275Y524825D01*
X748242Y524736D01*
X748241Y524736D02*
X748147Y524537D01*
X748058Y524336D01*
X747974Y524133D01*
X747894Y523928D01*
X747820Y523721D01*
X747750Y523513D01*
X747685Y523303D01*
X747626Y523091D01*
X747571Y522878D01*
X747522Y522664D01*
X747477Y522448D01*
X747438Y522232D01*
X747404Y522015D01*
X747376Y521797D01*
X747352Y521578D01*
X747334Y521359D01*
X747320Y521140D01*
X747313Y520920D01*
X747310Y520700D01*
X753519Y520700D02*
X753516Y520480D01*
X753509Y520260D01*
X753495Y520041D01*
X753477Y519822D01*
X753453Y519603D01*
X753425Y519385D01*
X753391Y519168D01*
X753352Y518952D01*
X753307Y518736D01*
X753258Y518522D01*
X753203Y518309D01*
X753144Y518098D01*
X753079Y517887D01*
X753009Y517679D01*
X752935Y517472D01*
X752855Y517267D01*
X752771Y517064D01*
X752682Y516863D01*
X752588Y516664D01*
X752555Y516575D01*
X752519Y516487D01*
X752479Y516401D01*
X752436Y516316D01*
X752389Y516234D01*
X752338Y516153D01*
X752285Y516075D01*
X752228Y515999D01*
X752168Y515925D01*
X752105Y515854D01*
X752040Y515785D01*
X751971Y515719D01*
X751900Y515657D01*
X751826Y515597D01*
X751750Y515540D01*
X751672Y515486D01*
X751591Y515436D01*
X751509Y515389D01*
X751424Y515346D01*
X751338Y515306D01*
X751250Y515269D01*
X751161Y515237D01*
X751071Y515208D01*
X750979Y515182D01*
X750887Y515161D01*
X750793Y515143D01*
X750699Y515130D01*
X750605Y515120D01*
X750510Y515114D01*
X750415Y515112D01*
X748241Y516664D02*
X748147Y516863D01*
X748058Y517064D01*
X747974Y517267D01*
X747894Y517472D01*
X747820Y517679D01*
X747750Y517887D01*
X747685Y518097D01*
X747626Y518309D01*
X747571Y518522D01*
X747522Y518736D01*
X747477Y518952D01*
X747438Y519168D01*
X747404Y519385D01*
X747376Y519603D01*
X747352Y519822D01*
X747334Y520041D01*
X747320Y520260D01*
X747313Y520480D01*
X747310Y520700D01*
X748242Y516664D02*
X748275Y516575D01*
X748311Y516487D01*
X748351Y516401D01*
X748394Y516316D01*
X748441Y516234D01*
X748492Y516153D01*
X748545Y516075D01*
X748602Y515999D01*
X748662Y515925D01*
X748725Y515854D01*
X748790Y515785D01*
X748859Y515719D01*
X748930Y515657D01*
X749004Y515597D01*
X749080Y515540D01*
X749158Y515486D01*
X749239Y515436D01*
X749321Y515389D01*
X749406Y515346D01*
X749492Y515306D01*
X749580Y515269D01*
X749669Y515237D01*
X749759Y515208D01*
X749851Y515182D01*
X749943Y515161D01*
X750037Y515143D01*
X750131Y515130D01*
X750225Y515120D01*
X750320Y515114D01*
X750415Y515112D01*
X752898Y517596D02*
X747931Y523804D01*
X742089Y523804D02*
X738985Y526288D01*
X738985Y515112D01*
X742089Y515112D02*
X735880Y515112D01*
X805688Y534162D02*
X805688Y545338D01*
X805688Y534162D02*
X802584Y534162D01*
X802500Y534164D01*
X802417Y534169D01*
X802334Y534179D01*
X802251Y534192D01*
X802169Y534209D01*
X802088Y534229D01*
X802008Y534253D01*
X801929Y534281D01*
X801852Y534312D01*
X801776Y534346D01*
X801701Y534384D01*
X801628Y534426D01*
X801558Y534470D01*
X801489Y534518D01*
X801422Y534568D01*
X801358Y534622D01*
X801297Y534678D01*
X801237Y534738D01*
X801181Y534799D01*
X801127Y534863D01*
X801077Y534930D01*
X801029Y534999D01*
X800985Y535069D01*
X800943Y535142D01*
X800905Y535217D01*
X800871Y535293D01*
X800840Y535370D01*
X800812Y535449D01*
X800788Y535529D01*
X800768Y535610D01*
X800751Y535692D01*
X800738Y535775D01*
X800728Y535858D01*
X800723Y535941D01*
X800721Y536025D01*
X800721Y539750D01*
X800723Y539834D01*
X800729Y539917D01*
X800738Y540000D01*
X800751Y540083D01*
X800768Y540165D01*
X800788Y540246D01*
X800812Y540326D01*
X800840Y540405D01*
X800871Y540482D01*
X800905Y540558D01*
X800943Y540633D01*
X800985Y540706D01*
X801029Y540776D01*
X801077Y540845D01*
X801127Y540912D01*
X801181Y540976D01*
X801237Y541037D01*
X801297Y541097D01*
X801358Y541153D01*
X801422Y541207D01*
X801489Y541257D01*
X801558Y541305D01*
X801628Y541349D01*
X801701Y541391D01*
X801776Y541429D01*
X801852Y541463D01*
X801929Y541494D01*
X802008Y541522D01*
X802088Y541546D01*
X802169Y541566D01*
X802251Y541583D01*
X802334Y541596D01*
X802417Y541606D01*
X802500Y541611D01*
X802584Y541613D01*
X805688Y541613D01*
X793993Y534162D02*
X790889Y534162D01*
X793993Y534162D02*
X794077Y534164D01*
X794160Y534170D01*
X794243Y534179D01*
X794326Y534192D01*
X794408Y534209D01*
X794489Y534229D01*
X794569Y534253D01*
X794648Y534281D01*
X794725Y534312D01*
X794801Y534346D01*
X794876Y534384D01*
X794949Y534426D01*
X795019Y534470D01*
X795088Y534518D01*
X795155Y534568D01*
X795219Y534622D01*
X795280Y534678D01*
X795340Y534738D01*
X795396Y534799D01*
X795450Y534863D01*
X795500Y534930D01*
X795548Y534999D01*
X795592Y535069D01*
X795634Y535142D01*
X795672Y535217D01*
X795706Y535293D01*
X795737Y535370D01*
X795765Y535449D01*
X795789Y535529D01*
X795809Y535610D01*
X795826Y535692D01*
X795839Y535775D01*
X795849Y535858D01*
X795854Y535941D01*
X795856Y536025D01*
X795856Y539129D01*
X795854Y539228D01*
X795848Y539326D01*
X795838Y539425D01*
X795825Y539522D01*
X795807Y539620D01*
X795786Y539716D01*
X795760Y539812D01*
X795731Y539906D01*
X795699Y539999D01*
X795662Y540091D01*
X795622Y540181D01*
X795578Y540270D01*
X795531Y540357D01*
X795481Y540442D01*
X795427Y540524D01*
X795370Y540605D01*
X795310Y540683D01*
X795246Y540759D01*
X795180Y540832D01*
X795111Y540903D01*
X795039Y540971D01*
X794964Y541035D01*
X794887Y541097D01*
X794808Y541156D01*
X794726Y541211D01*
X794642Y541264D01*
X794557Y541312D01*
X794469Y541358D01*
X794379Y541400D01*
X794288Y541438D01*
X794196Y541472D01*
X794102Y541503D01*
X794007Y541530D01*
X793911Y541554D01*
X793814Y541573D01*
X793717Y541589D01*
X793619Y541601D01*
X793520Y541609D01*
X793421Y541613D01*
X793323Y541613D01*
X793224Y541609D01*
X793125Y541601D01*
X793027Y541589D01*
X792930Y541573D01*
X792833Y541554D01*
X792737Y541530D01*
X792642Y541503D01*
X792548Y541472D01*
X792456Y541438D01*
X792365Y541400D01*
X792275Y541358D01*
X792187Y541312D01*
X792102Y541264D01*
X792018Y541211D01*
X791936Y541156D01*
X791857Y541097D01*
X791780Y541035D01*
X791705Y540971D01*
X791633Y540903D01*
X791564Y540832D01*
X791498Y540759D01*
X791434Y540683D01*
X791374Y540605D01*
X791317Y540524D01*
X791263Y540442D01*
X791213Y540357D01*
X791166Y540270D01*
X791122Y540181D01*
X791082Y540091D01*
X791045Y539999D01*
X791013Y539906D01*
X790984Y539812D01*
X790958Y539716D01*
X790937Y539620D01*
X790919Y539522D01*
X790906Y539425D01*
X790896Y539326D01*
X790890Y539228D01*
X790888Y539129D01*
X790889Y539129D02*
X790889Y537887D01*
X795856Y537887D01*
X783850Y538508D02*
X781056Y538508D01*
X783850Y538508D02*
X783942Y538506D01*
X784034Y538500D01*
X784126Y538490D01*
X784217Y538477D01*
X784308Y538459D01*
X784398Y538438D01*
X784486Y538413D01*
X784574Y538384D01*
X784660Y538351D01*
X784745Y538315D01*
X784828Y538275D01*
X784910Y538232D01*
X784989Y538185D01*
X785067Y538135D01*
X785142Y538082D01*
X785215Y538026D01*
X785286Y537966D01*
X785354Y537904D01*
X785419Y537839D01*
X785481Y537771D01*
X785541Y537700D01*
X785597Y537627D01*
X785650Y537552D01*
X785700Y537474D01*
X785747Y537395D01*
X785790Y537313D01*
X785830Y537230D01*
X785866Y537145D01*
X785899Y537059D01*
X785928Y536971D01*
X785953Y536883D01*
X785974Y536793D01*
X785992Y536702D01*
X786005Y536611D01*
X786015Y536519D01*
X786021Y536427D01*
X786023Y536335D01*
X786021Y536243D01*
X786015Y536151D01*
X786005Y536059D01*
X785992Y535968D01*
X785974Y535877D01*
X785953Y535787D01*
X785928Y535699D01*
X785899Y535611D01*
X785866Y535525D01*
X785830Y535440D01*
X785790Y535357D01*
X785747Y535275D01*
X785700Y535196D01*
X785650Y535118D01*
X785597Y535043D01*
X785541Y534970D01*
X785481Y534899D01*
X785419Y534831D01*
X785354Y534766D01*
X785286Y534704D01*
X785215Y534644D01*
X785142Y534588D01*
X785067Y534535D01*
X784989Y534485D01*
X784910Y534438D01*
X784828Y534395D01*
X784745Y534355D01*
X784660Y534319D01*
X784574Y534286D01*
X784486Y534257D01*
X784398Y534232D01*
X784308Y534211D01*
X784217Y534193D01*
X784126Y534180D01*
X784034Y534170D01*
X783942Y534164D01*
X783850Y534162D01*
X781056Y534162D01*
X781056Y539750D01*
X781058Y539834D01*
X781064Y539917D01*
X781073Y540000D01*
X781086Y540083D01*
X781103Y540165D01*
X781123Y540246D01*
X781147Y540326D01*
X781175Y540405D01*
X781206Y540482D01*
X781240Y540558D01*
X781278Y540633D01*
X781320Y540706D01*
X781364Y540776D01*
X781412Y540845D01*
X781462Y540912D01*
X781516Y540976D01*
X781572Y541037D01*
X781632Y541097D01*
X781693Y541153D01*
X781757Y541207D01*
X781824Y541257D01*
X781893Y541305D01*
X781963Y541349D01*
X782036Y541391D01*
X782111Y541429D01*
X782187Y541463D01*
X782264Y541494D01*
X782343Y541522D01*
X782423Y541546D01*
X782504Y541566D01*
X782586Y541583D01*
X782669Y541596D01*
X782752Y541606D01*
X782835Y541611D01*
X782919Y541613D01*
X785402Y541613D01*
X773874Y534162D02*
X770769Y534162D01*
X773874Y534162D02*
X773958Y534164D01*
X774041Y534170D01*
X774124Y534179D01*
X774207Y534192D01*
X774289Y534209D01*
X774370Y534229D01*
X774450Y534253D01*
X774529Y534281D01*
X774606Y534312D01*
X774682Y534346D01*
X774757Y534384D01*
X774830Y534426D01*
X774900Y534470D01*
X774969Y534518D01*
X775036Y534568D01*
X775100Y534622D01*
X775161Y534678D01*
X775221Y534738D01*
X775277Y534799D01*
X775331Y534863D01*
X775381Y534930D01*
X775429Y534999D01*
X775473Y535069D01*
X775515Y535142D01*
X775553Y535217D01*
X775587Y535293D01*
X775618Y535370D01*
X775646Y535449D01*
X775670Y535529D01*
X775690Y535610D01*
X775707Y535692D01*
X775720Y535775D01*
X775730Y535858D01*
X775735Y535941D01*
X775737Y536025D01*
X775736Y536025D02*
X775736Y539750D01*
X775737Y539750D02*
X775735Y539834D01*
X775730Y539917D01*
X775720Y540000D01*
X775707Y540083D01*
X775690Y540165D01*
X775670Y540246D01*
X775646Y540326D01*
X775618Y540405D01*
X775587Y540482D01*
X775553Y540558D01*
X775515Y540633D01*
X775473Y540706D01*
X775429Y540776D01*
X775381Y540845D01*
X775331Y540912D01*
X775277Y540976D01*
X775221Y541037D01*
X775161Y541097D01*
X775100Y541153D01*
X775036Y541207D01*
X774969Y541257D01*
X774900Y541305D01*
X774830Y541349D01*
X774757Y541391D01*
X774682Y541429D01*
X774606Y541463D01*
X774529Y541494D01*
X774450Y541522D01*
X774370Y541546D01*
X774289Y541566D01*
X774207Y541583D01*
X774124Y541596D01*
X774041Y541606D01*
X773958Y541611D01*
X773874Y541613D01*
X770769Y541613D01*
X770769Y532299D01*
X770771Y532215D01*
X770776Y532132D01*
X770786Y532049D01*
X770799Y531966D01*
X770816Y531884D01*
X770836Y531803D01*
X770860Y531723D01*
X770888Y531644D01*
X770919Y531567D01*
X770953Y531491D01*
X770991Y531416D01*
X771033Y531343D01*
X771077Y531273D01*
X771125Y531204D01*
X771175Y531137D01*
X771229Y531073D01*
X771285Y531012D01*
X771345Y530952D01*
X771406Y530896D01*
X771470Y530842D01*
X771537Y530792D01*
X771606Y530744D01*
X771676Y530700D01*
X771749Y530658D01*
X771824Y530620D01*
X771900Y530586D01*
X771977Y530555D01*
X772056Y530527D01*
X772136Y530503D01*
X772217Y530483D01*
X772299Y530466D01*
X772382Y530453D01*
X772465Y530443D01*
X772548Y530438D01*
X772632Y530436D01*
X772632Y530437D02*
X775115Y530437D01*
X765284Y536025D02*
X765284Y545338D01*
X765284Y536025D02*
X765282Y535939D01*
X765276Y535853D01*
X765266Y535768D01*
X765252Y535683D01*
X765235Y535598D01*
X765213Y535515D01*
X765187Y535433D01*
X765158Y535352D01*
X765125Y535273D01*
X765089Y535195D01*
X765049Y535118D01*
X765005Y535044D01*
X764958Y534972D01*
X764908Y534902D01*
X764854Y534835D01*
X764798Y534770D01*
X764738Y534708D01*
X764676Y534648D01*
X764611Y534592D01*
X764544Y534538D01*
X764474Y534488D01*
X764402Y534441D01*
X764328Y534397D01*
X764251Y534357D01*
X764174Y534321D01*
X764094Y534288D01*
X764013Y534259D01*
X763931Y534233D01*
X763848Y534211D01*
X763763Y534194D01*
X763678Y534180D01*
X763593Y534170D01*
X763507Y534164D01*
X763421Y534162D01*
X757417Y534162D02*
X754313Y534162D01*
X757417Y534162D02*
X757501Y534164D01*
X757584Y534170D01*
X757667Y534179D01*
X757750Y534192D01*
X757832Y534209D01*
X757913Y534229D01*
X757993Y534253D01*
X758072Y534281D01*
X758149Y534312D01*
X758225Y534346D01*
X758300Y534384D01*
X758373Y534426D01*
X758443Y534470D01*
X758512Y534518D01*
X758579Y534568D01*
X758643Y534622D01*
X758704Y534678D01*
X758764Y534738D01*
X758820Y534799D01*
X758874Y534863D01*
X758924Y534930D01*
X758972Y534999D01*
X759016Y535069D01*
X759058Y535142D01*
X759096Y535217D01*
X759130Y535293D01*
X759161Y535370D01*
X759189Y535449D01*
X759213Y535529D01*
X759233Y535610D01*
X759250Y535692D01*
X759263Y535775D01*
X759273Y535858D01*
X759278Y535941D01*
X759280Y536025D01*
X759280Y539129D01*
X759278Y539228D01*
X759272Y539326D01*
X759262Y539425D01*
X759249Y539522D01*
X759231Y539620D01*
X759210Y539716D01*
X759184Y539812D01*
X759155Y539906D01*
X759123Y539999D01*
X759086Y540091D01*
X759046Y540181D01*
X759002Y540270D01*
X758955Y540357D01*
X758905Y540442D01*
X758851Y540524D01*
X758794Y540605D01*
X758734Y540683D01*
X758670Y540759D01*
X758604Y540832D01*
X758535Y540903D01*
X758463Y540971D01*
X758388Y541035D01*
X758311Y541097D01*
X758232Y541156D01*
X758150Y541211D01*
X758066Y541264D01*
X757981Y541312D01*
X757893Y541358D01*
X757803Y541400D01*
X757712Y541438D01*
X757620Y541472D01*
X757526Y541503D01*
X757431Y541530D01*
X757335Y541554D01*
X757238Y541573D01*
X757141Y541589D01*
X757043Y541601D01*
X756944Y541609D01*
X756845Y541613D01*
X756747Y541613D01*
X756648Y541609D01*
X756549Y541601D01*
X756451Y541589D01*
X756354Y541573D01*
X756257Y541554D01*
X756161Y541530D01*
X756066Y541503D01*
X755972Y541472D01*
X755880Y541438D01*
X755789Y541400D01*
X755699Y541358D01*
X755611Y541312D01*
X755526Y541264D01*
X755442Y541211D01*
X755360Y541156D01*
X755281Y541097D01*
X755204Y541035D01*
X755129Y540971D01*
X755057Y540903D01*
X754988Y540832D01*
X754922Y540759D01*
X754858Y540683D01*
X754798Y540605D01*
X754741Y540524D01*
X754687Y540442D01*
X754637Y540357D01*
X754590Y540270D01*
X754546Y540181D01*
X754506Y540091D01*
X754469Y539999D01*
X754437Y539906D01*
X754408Y539812D01*
X754382Y539716D01*
X754361Y539620D01*
X754343Y539522D01*
X754330Y539425D01*
X754320Y539326D01*
X754314Y539228D01*
X754312Y539129D01*
X754313Y539129D02*
X754313Y537887D01*
X759280Y537887D01*
X747495Y534162D02*
X745011Y534162D01*
X747495Y534162D02*
X747579Y534164D01*
X747662Y534170D01*
X747745Y534179D01*
X747828Y534192D01*
X747910Y534209D01*
X747991Y534229D01*
X748071Y534253D01*
X748150Y534281D01*
X748227Y534312D01*
X748303Y534346D01*
X748378Y534384D01*
X748451Y534426D01*
X748521Y534470D01*
X748590Y534518D01*
X748657Y534568D01*
X748721Y534622D01*
X748782Y534678D01*
X748842Y534738D01*
X748898Y534799D01*
X748952Y534863D01*
X749002Y534930D01*
X749050Y534999D01*
X749094Y535069D01*
X749136Y535142D01*
X749174Y535217D01*
X749208Y535293D01*
X749239Y535370D01*
X749267Y535449D01*
X749291Y535529D01*
X749311Y535610D01*
X749328Y535692D01*
X749341Y535775D01*
X749351Y535858D01*
X749356Y535941D01*
X749358Y536025D01*
X749357Y536025D02*
X749357Y539750D01*
X749358Y539750D02*
X749356Y539834D01*
X749351Y539917D01*
X749341Y540000D01*
X749328Y540083D01*
X749311Y540165D01*
X749291Y540246D01*
X749267Y540326D01*
X749239Y540405D01*
X749208Y540482D01*
X749174Y540558D01*
X749136Y540633D01*
X749094Y540706D01*
X749050Y540776D01*
X749002Y540845D01*
X748952Y540912D01*
X748898Y540976D01*
X748842Y541037D01*
X748782Y541097D01*
X748721Y541153D01*
X748657Y541207D01*
X748590Y541257D01*
X748521Y541305D01*
X748451Y541349D01*
X748378Y541391D01*
X748303Y541429D01*
X748227Y541463D01*
X748150Y541494D01*
X748071Y541522D01*
X747991Y541546D01*
X747910Y541566D01*
X747828Y541583D01*
X747745Y541596D01*
X747662Y541606D01*
X747579Y541611D01*
X747495Y541613D01*
X745011Y541613D01*
X740230Y541613D02*
X740230Y534162D01*
X740230Y541613D02*
X737125Y541613D01*
X737039Y541611D01*
X736953Y541605D01*
X736868Y541595D01*
X736783Y541581D01*
X736698Y541564D01*
X736615Y541542D01*
X736533Y541516D01*
X736452Y541487D01*
X736373Y541454D01*
X736295Y541418D01*
X736218Y541378D01*
X736144Y541334D01*
X736072Y541287D01*
X736002Y541237D01*
X735935Y541183D01*
X735870Y541127D01*
X735808Y541067D01*
X735748Y541005D01*
X735692Y540940D01*
X735638Y540873D01*
X735588Y540803D01*
X735541Y540731D01*
X735497Y540657D01*
X735457Y540580D01*
X735421Y540503D01*
X735388Y540423D01*
X735359Y540342D01*
X735333Y540260D01*
X735311Y540177D01*
X735294Y540092D01*
X735280Y540007D01*
X735270Y539922D01*
X735264Y539836D01*
X735262Y539750D01*
X735263Y539750D02*
X735263Y534162D01*
X728064Y534162D02*
X725580Y534162D01*
X728064Y534162D02*
X728148Y534164D01*
X728231Y534170D01*
X728314Y534179D01*
X728397Y534192D01*
X728479Y534209D01*
X728560Y534229D01*
X728640Y534253D01*
X728719Y534281D01*
X728796Y534312D01*
X728872Y534346D01*
X728947Y534384D01*
X729020Y534426D01*
X729090Y534470D01*
X729159Y534518D01*
X729226Y534568D01*
X729290Y534622D01*
X729351Y534678D01*
X729411Y534738D01*
X729467Y534799D01*
X729521Y534863D01*
X729571Y534930D01*
X729619Y534999D01*
X729663Y535069D01*
X729705Y535142D01*
X729743Y535217D01*
X729777Y535293D01*
X729808Y535370D01*
X729836Y535449D01*
X729860Y535529D01*
X729880Y535610D01*
X729897Y535692D01*
X729910Y535775D01*
X729920Y535858D01*
X729925Y535941D01*
X729927Y536025D01*
X729926Y536025D02*
X729926Y539750D01*
X729927Y539750D02*
X729925Y539834D01*
X729920Y539917D01*
X729910Y540000D01*
X729897Y540083D01*
X729880Y540165D01*
X729860Y540246D01*
X729836Y540326D01*
X729808Y540405D01*
X729777Y540482D01*
X729743Y540558D01*
X729705Y540633D01*
X729663Y540706D01*
X729619Y540776D01*
X729571Y540845D01*
X729521Y540912D01*
X729467Y540976D01*
X729411Y541037D01*
X729351Y541097D01*
X729290Y541153D01*
X729226Y541207D01*
X729159Y541257D01*
X729090Y541305D01*
X729020Y541349D01*
X728947Y541391D01*
X728872Y541429D01*
X728796Y541463D01*
X728719Y541494D01*
X728640Y541522D01*
X728560Y541546D01*
X728479Y541566D01*
X728397Y541583D01*
X728314Y541596D01*
X728231Y541606D01*
X728148Y541611D01*
X728064Y541613D01*
X725580Y541613D01*
X805688Y488188D02*
X805688Y477012D01*
X805688Y488188D02*
X802584Y488188D01*
X802473Y488186D01*
X802363Y488180D01*
X802252Y488170D01*
X802142Y488156D01*
X802033Y488139D01*
X801924Y488117D01*
X801816Y488092D01*
X801710Y488062D01*
X801604Y488029D01*
X801499Y487992D01*
X801396Y487952D01*
X801295Y487907D01*
X801195Y487860D01*
X801096Y487808D01*
X801000Y487753D01*
X800906Y487695D01*
X800814Y487634D01*
X800724Y487569D01*
X800636Y487501D01*
X800551Y487430D01*
X800469Y487356D01*
X800389Y487279D01*
X800312Y487199D01*
X800238Y487117D01*
X800167Y487032D01*
X800099Y486944D01*
X800034Y486854D01*
X799973Y486762D01*
X799915Y486668D01*
X799860Y486572D01*
X799808Y486473D01*
X799761Y486373D01*
X799716Y486272D01*
X799676Y486169D01*
X799639Y486064D01*
X799606Y485958D01*
X799576Y485852D01*
X799551Y485744D01*
X799529Y485635D01*
X799512Y485526D01*
X799498Y485416D01*
X799488Y485305D01*
X799482Y485195D01*
X799480Y485084D01*
X799479Y485084D02*
X799479Y480116D01*
X799480Y480116D02*
X799482Y480005D01*
X799488Y479895D01*
X799498Y479784D01*
X799512Y479674D01*
X799529Y479565D01*
X799551Y479456D01*
X799576Y479348D01*
X799606Y479242D01*
X799639Y479136D01*
X799676Y479031D01*
X799716Y478928D01*
X799761Y478827D01*
X799808Y478727D01*
X799860Y478628D01*
X799915Y478532D01*
X799973Y478438D01*
X800034Y478346D01*
X800099Y478256D01*
X800167Y478168D01*
X800238Y478083D01*
X800312Y478001D01*
X800389Y477921D01*
X800469Y477844D01*
X800551Y477770D01*
X800636Y477699D01*
X800724Y477631D01*
X800814Y477566D01*
X800906Y477505D01*
X801000Y477447D01*
X801096Y477392D01*
X801195Y477340D01*
X801295Y477293D01*
X801396Y477248D01*
X801499Y477208D01*
X801604Y477171D01*
X801710Y477138D01*
X801816Y477108D01*
X801924Y477083D01*
X802033Y477061D01*
X802142Y477044D01*
X802252Y477030D01*
X802363Y477020D01*
X802473Y477014D01*
X802584Y477012D01*
X805688Y477012D01*
X794512Y477012D02*
X794512Y477633D01*
X793891Y477633D01*
X793891Y477012D01*
X794512Y477012D01*
X782828Y477012D02*
X782828Y488188D01*
X782828Y483221D02*
X776619Y483221D01*
X776619Y488188D02*
X776619Y477012D01*
X769296Y477012D02*
X766191Y477012D01*
X769296Y477012D02*
X769380Y477014D01*
X769463Y477020D01*
X769546Y477029D01*
X769629Y477042D01*
X769711Y477059D01*
X769792Y477079D01*
X769872Y477103D01*
X769951Y477131D01*
X770028Y477162D01*
X770104Y477196D01*
X770179Y477234D01*
X770252Y477276D01*
X770322Y477320D01*
X770391Y477368D01*
X770458Y477418D01*
X770522Y477472D01*
X770583Y477528D01*
X770643Y477588D01*
X770699Y477649D01*
X770753Y477713D01*
X770803Y477780D01*
X770851Y477849D01*
X770895Y477919D01*
X770937Y477992D01*
X770975Y478067D01*
X771009Y478143D01*
X771040Y478220D01*
X771068Y478299D01*
X771092Y478379D01*
X771112Y478460D01*
X771129Y478542D01*
X771142Y478625D01*
X771152Y478708D01*
X771157Y478791D01*
X771159Y478875D01*
X771158Y478875D02*
X771158Y481979D01*
X771159Y481979D02*
X771157Y482078D01*
X771151Y482176D01*
X771141Y482275D01*
X771128Y482372D01*
X771110Y482470D01*
X771089Y482566D01*
X771063Y482662D01*
X771034Y482756D01*
X771002Y482849D01*
X770965Y482941D01*
X770925Y483031D01*
X770881Y483120D01*
X770834Y483207D01*
X770784Y483292D01*
X770730Y483374D01*
X770673Y483455D01*
X770613Y483533D01*
X770549Y483609D01*
X770483Y483682D01*
X770414Y483753D01*
X770342Y483821D01*
X770267Y483885D01*
X770190Y483947D01*
X770111Y484006D01*
X770029Y484061D01*
X769945Y484114D01*
X769860Y484162D01*
X769772Y484208D01*
X769682Y484250D01*
X769591Y484288D01*
X769499Y484322D01*
X769405Y484353D01*
X769310Y484380D01*
X769214Y484404D01*
X769117Y484423D01*
X769020Y484439D01*
X768922Y484451D01*
X768823Y484459D01*
X768724Y484463D01*
X768626Y484463D01*
X768527Y484459D01*
X768428Y484451D01*
X768330Y484439D01*
X768233Y484423D01*
X768136Y484404D01*
X768040Y484380D01*
X767945Y484353D01*
X767851Y484322D01*
X767759Y484288D01*
X767668Y484250D01*
X767578Y484208D01*
X767490Y484162D01*
X767405Y484114D01*
X767321Y484061D01*
X767239Y484006D01*
X767160Y483947D01*
X767083Y483885D01*
X767008Y483821D01*
X766936Y483753D01*
X766867Y483682D01*
X766801Y483609D01*
X766737Y483533D01*
X766677Y483455D01*
X766620Y483374D01*
X766566Y483292D01*
X766516Y483207D01*
X766469Y483120D01*
X766425Y483031D01*
X766385Y482941D01*
X766348Y482849D01*
X766316Y482756D01*
X766287Y482662D01*
X766261Y482566D01*
X766240Y482470D01*
X766222Y482372D01*
X766209Y482275D01*
X766199Y482176D01*
X766193Y482078D01*
X766191Y481979D01*
X766191Y480737D01*
X771158Y480737D01*
X760798Y477012D02*
X760798Y488188D01*
X760798Y477012D02*
X757693Y477012D01*
X757609Y477014D01*
X757526Y477019D01*
X757443Y477029D01*
X757360Y477042D01*
X757278Y477059D01*
X757197Y477079D01*
X757117Y477103D01*
X757038Y477131D01*
X756961Y477162D01*
X756885Y477196D01*
X756810Y477234D01*
X756737Y477276D01*
X756667Y477320D01*
X756598Y477368D01*
X756531Y477418D01*
X756467Y477472D01*
X756406Y477528D01*
X756346Y477588D01*
X756290Y477649D01*
X756236Y477713D01*
X756186Y477780D01*
X756138Y477849D01*
X756094Y477919D01*
X756052Y477992D01*
X756014Y478067D01*
X755980Y478143D01*
X755949Y478220D01*
X755921Y478299D01*
X755897Y478379D01*
X755877Y478460D01*
X755860Y478542D01*
X755847Y478625D01*
X755837Y478708D01*
X755832Y478791D01*
X755830Y478875D01*
X755830Y482600D01*
X755832Y482684D01*
X755838Y482767D01*
X755847Y482850D01*
X755860Y482933D01*
X755877Y483015D01*
X755897Y483096D01*
X755921Y483176D01*
X755949Y483255D01*
X755980Y483332D01*
X756014Y483408D01*
X756052Y483483D01*
X756094Y483556D01*
X756138Y483626D01*
X756186Y483695D01*
X756236Y483762D01*
X756290Y483826D01*
X756346Y483887D01*
X756406Y483947D01*
X756467Y484003D01*
X756531Y484057D01*
X756598Y484107D01*
X756667Y484155D01*
X756737Y484199D01*
X756810Y484241D01*
X756885Y484279D01*
X756961Y484313D01*
X757038Y484344D01*
X757117Y484372D01*
X757197Y484396D01*
X757278Y484416D01*
X757360Y484433D01*
X757443Y484446D01*
X757526Y484456D01*
X757609Y484461D01*
X757693Y484463D01*
X760798Y484463D01*
X746072Y488188D02*
X746072Y477012D01*
X749176Y477012D01*
X749260Y477014D01*
X749343Y477020D01*
X749426Y477029D01*
X749509Y477042D01*
X749591Y477059D01*
X749672Y477079D01*
X749752Y477103D01*
X749831Y477131D01*
X749908Y477162D01*
X749984Y477196D01*
X750059Y477234D01*
X750132Y477276D01*
X750202Y477320D01*
X750271Y477368D01*
X750338Y477418D01*
X750402Y477472D01*
X750463Y477528D01*
X750523Y477588D01*
X750579Y477649D01*
X750633Y477713D01*
X750683Y477780D01*
X750731Y477849D01*
X750775Y477919D01*
X750817Y477992D01*
X750855Y478067D01*
X750889Y478143D01*
X750920Y478220D01*
X750948Y478299D01*
X750972Y478379D01*
X750992Y478460D01*
X751009Y478542D01*
X751022Y478625D01*
X751032Y478708D01*
X751037Y478791D01*
X751039Y478875D01*
X751039Y482600D01*
X751037Y482684D01*
X751032Y482767D01*
X751022Y482850D01*
X751009Y482933D01*
X750992Y483015D01*
X750972Y483096D01*
X750948Y483176D01*
X750920Y483255D01*
X750889Y483332D01*
X750855Y483408D01*
X750817Y483483D01*
X750775Y483556D01*
X750731Y483626D01*
X750683Y483695D01*
X750633Y483762D01*
X750579Y483826D01*
X750523Y483887D01*
X750463Y483947D01*
X750402Y484003D01*
X750338Y484057D01*
X750271Y484107D01*
X750202Y484155D01*
X750132Y484199D01*
X750059Y484241D01*
X749984Y484279D01*
X749908Y484313D01*
X749831Y484344D01*
X749752Y484372D01*
X749672Y484396D01*
X749591Y484416D01*
X749509Y484433D01*
X749426Y484446D01*
X749343Y484456D01*
X749260Y484461D01*
X749176Y484463D01*
X746072Y484463D01*
X738579Y481358D02*
X735785Y481358D01*
X738579Y481358D02*
X738671Y481356D01*
X738763Y481350D01*
X738855Y481340D01*
X738946Y481327D01*
X739037Y481309D01*
X739127Y481288D01*
X739215Y481263D01*
X739303Y481234D01*
X739389Y481201D01*
X739474Y481165D01*
X739557Y481125D01*
X739639Y481082D01*
X739718Y481035D01*
X739796Y480985D01*
X739871Y480932D01*
X739944Y480876D01*
X740015Y480816D01*
X740083Y480754D01*
X740148Y480689D01*
X740210Y480621D01*
X740270Y480550D01*
X740326Y480477D01*
X740379Y480402D01*
X740429Y480324D01*
X740476Y480245D01*
X740519Y480163D01*
X740559Y480080D01*
X740595Y479995D01*
X740628Y479909D01*
X740657Y479821D01*
X740682Y479733D01*
X740703Y479643D01*
X740721Y479552D01*
X740734Y479461D01*
X740744Y479369D01*
X740750Y479277D01*
X740752Y479185D01*
X740750Y479093D01*
X740744Y479001D01*
X740734Y478909D01*
X740721Y478818D01*
X740703Y478727D01*
X740682Y478637D01*
X740657Y478549D01*
X740628Y478461D01*
X740595Y478375D01*
X740559Y478290D01*
X740519Y478207D01*
X740476Y478125D01*
X740429Y478046D01*
X740379Y477968D01*
X740326Y477893D01*
X740270Y477820D01*
X740210Y477749D01*
X740148Y477681D01*
X740083Y477616D01*
X740015Y477554D01*
X739944Y477494D01*
X739871Y477438D01*
X739796Y477385D01*
X739718Y477335D01*
X739639Y477288D01*
X739557Y477245D01*
X739474Y477205D01*
X739389Y477169D01*
X739303Y477136D01*
X739215Y477107D01*
X739127Y477082D01*
X739037Y477061D01*
X738946Y477043D01*
X738855Y477030D01*
X738763Y477020D01*
X738671Y477014D01*
X738579Y477012D01*
X735785Y477012D01*
X735785Y482600D01*
X735784Y482600D02*
X735786Y482684D01*
X735792Y482767D01*
X735801Y482850D01*
X735814Y482933D01*
X735831Y483015D01*
X735851Y483096D01*
X735875Y483176D01*
X735903Y483255D01*
X735934Y483332D01*
X735968Y483408D01*
X736006Y483483D01*
X736048Y483556D01*
X736092Y483626D01*
X736140Y483695D01*
X736190Y483762D01*
X736244Y483826D01*
X736300Y483887D01*
X736360Y483947D01*
X736421Y484003D01*
X736485Y484057D01*
X736552Y484107D01*
X736621Y484155D01*
X736691Y484199D01*
X736764Y484241D01*
X736839Y484279D01*
X736915Y484313D01*
X736992Y484344D01*
X737071Y484372D01*
X737151Y484396D01*
X737232Y484416D01*
X737314Y484433D01*
X737397Y484446D01*
X737480Y484456D01*
X737563Y484461D01*
X737647Y484463D01*
X740131Y484463D01*
X805688Y496062D02*
X805688Y507238D01*
X802584Y507238D01*
X802473Y507236D01*
X802363Y507230D01*
X802252Y507220D01*
X802142Y507206D01*
X802033Y507189D01*
X801924Y507167D01*
X801816Y507142D01*
X801710Y507112D01*
X801604Y507079D01*
X801499Y507042D01*
X801396Y507002D01*
X801295Y506957D01*
X801195Y506910D01*
X801096Y506858D01*
X801000Y506803D01*
X800906Y506745D01*
X800814Y506684D01*
X800724Y506619D01*
X800636Y506551D01*
X800551Y506480D01*
X800469Y506406D01*
X800389Y506329D01*
X800312Y506249D01*
X800238Y506167D01*
X800167Y506082D01*
X800099Y505994D01*
X800034Y505904D01*
X799973Y505812D01*
X799915Y505718D01*
X799860Y505622D01*
X799808Y505523D01*
X799761Y505423D01*
X799716Y505322D01*
X799676Y505219D01*
X799639Y505114D01*
X799606Y505008D01*
X799576Y504902D01*
X799551Y504794D01*
X799529Y504685D01*
X799512Y504576D01*
X799498Y504466D01*
X799488Y504355D01*
X799482Y504245D01*
X799480Y504134D01*
X799482Y504023D01*
X799488Y503913D01*
X799498Y503802D01*
X799512Y503692D01*
X799529Y503583D01*
X799551Y503474D01*
X799576Y503366D01*
X799606Y503260D01*
X799639Y503154D01*
X799676Y503049D01*
X799716Y502946D01*
X799761Y502845D01*
X799808Y502745D01*
X799860Y502646D01*
X799915Y502550D01*
X799973Y502456D01*
X800034Y502364D01*
X800099Y502274D01*
X800167Y502186D01*
X800238Y502101D01*
X800312Y502019D01*
X800389Y501939D01*
X800469Y501862D01*
X800551Y501788D01*
X800636Y501717D01*
X800724Y501649D01*
X800814Y501584D01*
X800906Y501523D01*
X801000Y501465D01*
X801096Y501410D01*
X801195Y501358D01*
X801295Y501311D01*
X801396Y501266D01*
X801499Y501226D01*
X801604Y501189D01*
X801710Y501156D01*
X801816Y501126D01*
X801924Y501101D01*
X802033Y501079D01*
X802142Y501062D01*
X802252Y501048D01*
X802363Y501038D01*
X802473Y501032D01*
X802584Y501030D01*
X802584Y501029D02*
X805688Y501029D01*
X801963Y501029D02*
X799479Y496062D01*
X792629Y496062D02*
X789524Y496062D01*
X792629Y496062D02*
X792713Y496064D01*
X792796Y496070D01*
X792879Y496079D01*
X792962Y496092D01*
X793044Y496109D01*
X793125Y496129D01*
X793205Y496153D01*
X793284Y496181D01*
X793361Y496212D01*
X793437Y496246D01*
X793512Y496284D01*
X793585Y496326D01*
X793655Y496370D01*
X793724Y496418D01*
X793791Y496468D01*
X793855Y496522D01*
X793916Y496578D01*
X793976Y496638D01*
X794032Y496699D01*
X794086Y496763D01*
X794136Y496830D01*
X794184Y496899D01*
X794228Y496969D01*
X794270Y497042D01*
X794308Y497117D01*
X794342Y497193D01*
X794373Y497270D01*
X794401Y497349D01*
X794425Y497429D01*
X794445Y497510D01*
X794462Y497592D01*
X794475Y497675D01*
X794485Y497758D01*
X794490Y497841D01*
X794492Y497925D01*
X794491Y497925D02*
X794491Y501029D01*
X794492Y501029D02*
X794490Y501128D01*
X794484Y501226D01*
X794474Y501325D01*
X794461Y501422D01*
X794443Y501520D01*
X794422Y501616D01*
X794396Y501712D01*
X794367Y501806D01*
X794335Y501899D01*
X794298Y501991D01*
X794258Y502081D01*
X794214Y502170D01*
X794167Y502257D01*
X794117Y502342D01*
X794063Y502424D01*
X794006Y502505D01*
X793946Y502583D01*
X793882Y502659D01*
X793816Y502732D01*
X793747Y502803D01*
X793675Y502871D01*
X793600Y502935D01*
X793523Y502997D01*
X793444Y503056D01*
X793362Y503111D01*
X793278Y503164D01*
X793193Y503212D01*
X793105Y503258D01*
X793015Y503300D01*
X792924Y503338D01*
X792832Y503372D01*
X792738Y503403D01*
X792643Y503430D01*
X792547Y503454D01*
X792450Y503473D01*
X792353Y503489D01*
X792255Y503501D01*
X792156Y503509D01*
X792057Y503513D01*
X791959Y503513D01*
X791860Y503509D01*
X791761Y503501D01*
X791663Y503489D01*
X791566Y503473D01*
X791469Y503454D01*
X791373Y503430D01*
X791278Y503403D01*
X791184Y503372D01*
X791092Y503338D01*
X791001Y503300D01*
X790911Y503258D01*
X790823Y503212D01*
X790738Y503164D01*
X790654Y503111D01*
X790572Y503056D01*
X790493Y502997D01*
X790416Y502935D01*
X790341Y502871D01*
X790269Y502803D01*
X790200Y502732D01*
X790134Y502659D01*
X790070Y502583D01*
X790010Y502505D01*
X789953Y502424D01*
X789899Y502342D01*
X789849Y502257D01*
X789802Y502170D01*
X789758Y502081D01*
X789718Y501991D01*
X789681Y501899D01*
X789649Y501806D01*
X789620Y501712D01*
X789594Y501616D01*
X789573Y501520D01*
X789555Y501422D01*
X789542Y501325D01*
X789532Y501226D01*
X789526Y501128D01*
X789524Y501029D01*
X789524Y499787D01*
X794491Y499787D01*
X784966Y503513D02*
X782483Y496062D01*
X779999Y503513D01*
X769204Y504754D02*
X766100Y507238D01*
X766100Y496062D01*
X769204Y496062D02*
X762995Y496062D01*
X758409Y496062D02*
X758409Y496683D01*
X757788Y496683D01*
X757788Y496062D01*
X758409Y496062D01*
X753202Y501650D02*
X753199Y501870D01*
X753192Y502090D01*
X753178Y502309D01*
X753160Y502528D01*
X753136Y502747D01*
X753108Y502965D01*
X753074Y503182D01*
X753035Y503398D01*
X752990Y503614D01*
X752941Y503828D01*
X752886Y504041D01*
X752827Y504253D01*
X752762Y504463D01*
X752692Y504671D01*
X752618Y504878D01*
X752538Y505083D01*
X752454Y505286D01*
X752365Y505487D01*
X752271Y505686D01*
X752238Y505775D01*
X752202Y505863D01*
X752162Y505949D01*
X752119Y506034D01*
X752072Y506116D01*
X752021Y506197D01*
X751968Y506275D01*
X751911Y506351D01*
X751851Y506425D01*
X751788Y506496D01*
X751723Y506565D01*
X751654Y506631D01*
X751583Y506693D01*
X751509Y506753D01*
X751433Y506810D01*
X751355Y506864D01*
X751274Y506914D01*
X751192Y506961D01*
X751107Y507004D01*
X751021Y507044D01*
X750933Y507081D01*
X750844Y507113D01*
X750754Y507142D01*
X750662Y507168D01*
X750570Y507189D01*
X750476Y507207D01*
X750382Y507220D01*
X750288Y507230D01*
X750193Y507236D01*
X750098Y507238D01*
X750003Y507236D01*
X749908Y507230D01*
X749814Y507220D01*
X749720Y507207D01*
X749626Y507189D01*
X749534Y507168D01*
X749442Y507142D01*
X749352Y507113D01*
X749263Y507081D01*
X749175Y507044D01*
X749089Y507004D01*
X749004Y506961D01*
X748922Y506914D01*
X748841Y506864D01*
X748763Y506810D01*
X748687Y506753D01*
X748613Y506693D01*
X748542Y506631D01*
X748473Y506565D01*
X748408Y506496D01*
X748345Y506425D01*
X748285Y506351D01*
X748228Y506275D01*
X748175Y506197D01*
X748124Y506116D01*
X748077Y506034D01*
X748034Y505949D01*
X747994Y505863D01*
X747958Y505775D01*
X747925Y505686D01*
X747924Y505686D02*
X747830Y505487D01*
X747741Y505286D01*
X747657Y505083D01*
X747577Y504878D01*
X747503Y504671D01*
X747433Y504463D01*
X747368Y504253D01*
X747309Y504041D01*
X747254Y503828D01*
X747205Y503614D01*
X747160Y503398D01*
X747121Y503182D01*
X747087Y502965D01*
X747059Y502747D01*
X747035Y502528D01*
X747017Y502309D01*
X747003Y502090D01*
X746996Y501870D01*
X746993Y501650D01*
X753202Y501650D02*
X753199Y501430D01*
X753192Y501210D01*
X753178Y500991D01*
X753160Y500772D01*
X753136Y500553D01*
X753108Y500335D01*
X753074Y500118D01*
X753035Y499902D01*
X752990Y499686D01*
X752941Y499472D01*
X752886Y499259D01*
X752827Y499048D01*
X752762Y498837D01*
X752692Y498629D01*
X752618Y498422D01*
X752538Y498217D01*
X752454Y498014D01*
X752365Y497813D01*
X752271Y497614D01*
X752238Y497525D01*
X752202Y497437D01*
X752162Y497351D01*
X752119Y497266D01*
X752072Y497184D01*
X752021Y497103D01*
X751968Y497025D01*
X751911Y496949D01*
X751851Y496875D01*
X751788Y496804D01*
X751723Y496735D01*
X751654Y496669D01*
X751583Y496607D01*
X751509Y496547D01*
X751433Y496490D01*
X751355Y496436D01*
X751274Y496386D01*
X751192Y496339D01*
X751107Y496296D01*
X751021Y496256D01*
X750933Y496219D01*
X750844Y496187D01*
X750754Y496158D01*
X750662Y496132D01*
X750570Y496111D01*
X750476Y496093D01*
X750382Y496080D01*
X750288Y496070D01*
X750193Y496064D01*
X750098Y496062D01*
X747924Y497614D02*
X747830Y497813D01*
X747741Y498014D01*
X747657Y498217D01*
X747577Y498422D01*
X747503Y498629D01*
X747433Y498837D01*
X747368Y499047D01*
X747309Y499259D01*
X747254Y499472D01*
X747205Y499686D01*
X747160Y499902D01*
X747121Y500118D01*
X747087Y500335D01*
X747059Y500553D01*
X747035Y500772D01*
X747017Y500991D01*
X747003Y501210D01*
X746996Y501430D01*
X746993Y501650D01*
X747925Y497614D02*
X747958Y497525D01*
X747994Y497437D01*
X748034Y497351D01*
X748077Y497266D01*
X748124Y497184D01*
X748175Y497103D01*
X748228Y497025D01*
X748285Y496949D01*
X748345Y496875D01*
X748408Y496804D01*
X748473Y496735D01*
X748542Y496669D01*
X748613Y496607D01*
X748687Y496547D01*
X748763Y496490D01*
X748841Y496436D01*
X748922Y496386D01*
X749004Y496339D01*
X749089Y496296D01*
X749175Y496256D01*
X749263Y496219D01*
X749352Y496187D01*
X749442Y496158D01*
X749534Y496132D01*
X749626Y496111D01*
X749720Y496093D01*
X749814Y496080D01*
X749908Y496070D01*
X750003Y496064D01*
X750098Y496062D01*
X752581Y498546D02*
X747614Y504754D01*
D11*
X107950Y314150D02*
X95250Y314150D01*
X273050Y314150D02*
X285750Y314150D01*
X107950Y60150D02*
X95250Y60150D01*
X273050Y60150D02*
X285750Y60150D01*
X527050Y368300D02*
X533400Y374650D01*
X527050Y368300D02*
X533400Y361950D01*
X533400Y349250D02*
X527050Y342900D01*
X533400Y336550D01*
X533400Y323850D02*
X527050Y317500D01*
X533400Y311150D01*
X533400Y298450D02*
X527050Y292100D01*
X533400Y285750D01*
X533400Y273050D02*
X527050Y266700D01*
X533400Y260350D01*
X533400Y247650D02*
X527050Y241300D01*
X482600Y374650D02*
X482600Y387350D01*
X482600Y374650D02*
X488950Y368300D01*
X482600Y361950D01*
X482600Y349250D01*
X488950Y342900D01*
X482600Y336550D01*
X482600Y323850D01*
X488950Y317500D01*
X482600Y311150D01*
X482600Y298450D01*
X488950Y292100D01*
X482600Y285750D01*
X482600Y273050D01*
X488950Y266700D01*
X482600Y260350D01*
X482600Y247650D01*
X488950Y241300D01*
X482600Y234950D01*
X482600Y222250D01*
X488950Y215900D01*
X482600Y209550D01*
X482600Y196850D01*
X488950Y190500D01*
X482600Y184150D01*
X482600Y171450D01*
X488950Y165100D01*
X527050Y165100D02*
X533400Y171450D01*
X533400Y184150D02*
X527050Y190500D01*
X533400Y196850D01*
X533400Y209550D02*
X527050Y215900D01*
X533400Y222250D01*
X533400Y234950D02*
X527050Y241300D01*
X527050Y368300D02*
X488950Y368300D01*
X488950Y342900D02*
X527050Y342900D01*
X527050Y317500D02*
X488950Y317500D01*
X488950Y292100D02*
X527050Y292100D01*
X527050Y266700D02*
X488950Y266700D01*
X488950Y241300D02*
X527050Y241300D01*
X527050Y215900D02*
X488950Y215900D01*
X488950Y190500D02*
X527050Y190500D01*
X527050Y165100D02*
X488950Y165100D01*
X533400Y171450D02*
X533400Y184150D01*
X533400Y196850D02*
X533400Y209550D01*
X533400Y222250D02*
X533400Y234950D01*
X533400Y247650D02*
X533400Y260350D01*
X533400Y273050D02*
X533400Y285750D01*
X533400Y298450D02*
X533400Y311150D01*
X533400Y323850D02*
X533400Y336550D01*
X533400Y349250D02*
X533400Y361950D01*
X533400Y374650D02*
X533400Y387350D01*
X488950Y165100D02*
X482600Y158750D01*
X482600Y146050D01*
X488950Y139700D01*
X527050Y139700D02*
X533400Y146050D01*
X533400Y158750D02*
X527050Y165100D01*
X527050Y139700D02*
X488950Y139700D01*
X533400Y146050D02*
X533400Y158750D01*
X537210Y374650D02*
X537210Y387350D01*
X533400Y387350D02*
X527050Y393700D01*
X488950Y393700D01*
X482600Y387350D01*
D12*
X479425Y387436D02*
X475671Y387436D01*
X475606Y387434D01*
X475542Y387428D01*
X475478Y387418D01*
X475414Y387405D01*
X475352Y387387D01*
X475291Y387366D01*
X475231Y387342D01*
X475173Y387313D01*
X475116Y387281D01*
X475062Y387246D01*
X475010Y387208D01*
X474960Y387166D01*
X474913Y387122D01*
X474869Y387075D01*
X474827Y387025D01*
X474789Y386973D01*
X474754Y386919D01*
X474722Y386862D01*
X474693Y386804D01*
X474669Y386744D01*
X474648Y386683D01*
X474630Y386621D01*
X474617Y386557D01*
X474607Y386493D01*
X474601Y386429D01*
X474599Y386364D01*
X474599Y385827D01*
X474599Y390384D02*
X474599Y391993D01*
X474601Y392058D01*
X474607Y392122D01*
X474617Y392186D01*
X474630Y392250D01*
X474648Y392312D01*
X474669Y392373D01*
X474693Y392433D01*
X474722Y392491D01*
X474754Y392548D01*
X474789Y392602D01*
X474827Y392654D01*
X474869Y392704D01*
X474913Y392751D01*
X474960Y392795D01*
X475010Y392837D01*
X475062Y392875D01*
X475116Y392910D01*
X475173Y392942D01*
X475231Y392971D01*
X475291Y392995D01*
X475352Y393016D01*
X475414Y393034D01*
X475478Y393047D01*
X475542Y393057D01*
X475606Y393063D01*
X475671Y393065D01*
X476208Y393065D01*
X476273Y393063D01*
X476337Y393057D01*
X476401Y393047D01*
X476465Y393034D01*
X476527Y393016D01*
X476588Y392995D01*
X476648Y392971D01*
X476706Y392942D01*
X476763Y392910D01*
X476817Y392875D01*
X476869Y392837D01*
X476919Y392795D01*
X476966Y392751D01*
X477010Y392704D01*
X477052Y392654D01*
X477090Y392602D01*
X477125Y392548D01*
X477157Y392491D01*
X477186Y392433D01*
X477210Y392373D01*
X477231Y392312D01*
X477249Y392250D01*
X477262Y392186D01*
X477272Y392122D01*
X477278Y392058D01*
X477280Y391993D01*
X477280Y390384D01*
X479425Y390384D01*
X479425Y393065D01*
D11*
X402590Y133350D02*
X402590Y120650D01*
X510540Y57150D02*
X510540Y44450D01*
M02*
