G04 EAGLE Gerber RS-274X export*
G75*
%MOMM*%
%FSLAX34Y34*%
%LPD*%
%INSoldermask Bottom*%
%IPPOS*%
%AMOC8*
5,1,8,0,0,1.08239X$1,22.5*%
G01*
%ADD10R,1.397000X1.397000*%
%ADD11C,1.397000*%
%ADD12R,1.352400X1.352400*%
%ADD13C,1.352400*%
%ADD14C,2.032000*%
%ADD15C,4.597400*%
%ADD16R,1.676400X1.676400*%
%ADD17P,1.814519X8X112.500000*%
%ADD18C,1.552400*%


D10*
X63500Y508000D03*
D11*
X63500Y482600D03*
X63500Y457200D03*
X63500Y431800D03*
X63500Y406400D03*
X63500Y381000D03*
X63500Y355600D03*
X63500Y330200D03*
X190500Y330200D03*
X190500Y355600D03*
X190500Y381000D03*
X190500Y406400D03*
X190500Y431800D03*
X190500Y457200D03*
X190500Y482600D03*
X190500Y508000D03*
D12*
X144500Y476250D03*
D13*
X109500Y476250D03*
D14*
X88900Y292100D03*
X114300Y292100D03*
X139700Y292100D03*
X165100Y292100D03*
X101600Y330200D03*
X101600Y355600D03*
X127000Y330200D03*
X127000Y355600D03*
X152400Y330200D03*
X152400Y355600D03*
D10*
X241300Y508000D03*
D11*
X241300Y482600D03*
X241300Y457200D03*
X241300Y431800D03*
X241300Y406400D03*
X241300Y381000D03*
X241300Y355600D03*
X241300Y330200D03*
X368300Y330200D03*
X368300Y355600D03*
X368300Y381000D03*
X368300Y406400D03*
X368300Y431800D03*
X368300Y457200D03*
X368300Y482600D03*
X368300Y508000D03*
D12*
X322300Y476250D03*
D13*
X287300Y476250D03*
D14*
X266700Y292100D03*
X292100Y292100D03*
X317500Y292100D03*
X342900Y292100D03*
X279400Y330200D03*
X279400Y355600D03*
X304800Y330200D03*
X304800Y355600D03*
X330200Y330200D03*
X330200Y355600D03*
D10*
X63500Y254000D03*
D11*
X63500Y228600D03*
X63500Y203200D03*
X63500Y177800D03*
X63500Y152400D03*
X63500Y127000D03*
X63500Y101600D03*
X63500Y76200D03*
X190500Y76200D03*
X190500Y101600D03*
X190500Y127000D03*
X190500Y152400D03*
X190500Y177800D03*
X190500Y203200D03*
X190500Y228600D03*
X190500Y254000D03*
D12*
X144500Y222250D03*
D13*
X109500Y222250D03*
D14*
X88900Y38100D03*
X114300Y38100D03*
X139700Y38100D03*
X165100Y38100D03*
X101600Y76200D03*
X101600Y101600D03*
X127000Y76200D03*
X127000Y101600D03*
X152400Y76200D03*
X152400Y101600D03*
D10*
X241300Y254000D03*
D11*
X241300Y228600D03*
X241300Y203200D03*
X241300Y177800D03*
X241300Y152400D03*
X241300Y127000D03*
X241300Y101600D03*
X241300Y76200D03*
X368300Y76200D03*
X368300Y101600D03*
X368300Y127000D03*
X368300Y152400D03*
X368300Y177800D03*
X368300Y203200D03*
X368300Y228600D03*
X368300Y254000D03*
D12*
X322300Y222250D03*
D13*
X287300Y222250D03*
D14*
X266700Y38100D03*
X292100Y38100D03*
X317500Y38100D03*
X342900Y38100D03*
X279400Y76200D03*
X279400Y101600D03*
X304800Y76200D03*
X304800Y101600D03*
X330200Y76200D03*
X330200Y101600D03*
X520700Y381000D03*
X495300Y381000D03*
X520700Y355600D03*
X495300Y355600D03*
X520700Y330200D03*
X495300Y330200D03*
X520700Y304800D03*
X495300Y304800D03*
X520700Y279400D03*
X495300Y279400D03*
X520700Y254000D03*
X495300Y254000D03*
X520700Y228600D03*
X495300Y228600D03*
X520700Y203200D03*
X495300Y203200D03*
X520700Y177800D03*
X495300Y177800D03*
X520700Y152400D03*
X495300Y152400D03*
X417830Y127000D03*
X443230Y127000D03*
X417830Y101600D03*
X443230Y101600D03*
X417830Y76200D03*
X443230Y76200D03*
X417830Y50800D03*
X443230Y50800D03*
X495300Y50800D03*
X469900Y50800D03*
X495300Y76200D03*
X469900Y76200D03*
X495300Y101600D03*
X469900Y101600D03*
X495300Y127000D03*
X469900Y127000D03*
D15*
X25400Y533400D03*
X25400Y25400D03*
X863600Y25400D03*
X863600Y533400D03*
D16*
X853700Y59100D03*
D17*
X828300Y59100D03*
X853700Y84500D03*
X828300Y84500D03*
X853700Y109900D03*
X828300Y109900D03*
X853700Y135300D03*
X828300Y135300D03*
X853700Y160700D03*
X828300Y160700D03*
X853700Y186100D03*
X828300Y186100D03*
X853700Y211500D03*
X828300Y211500D03*
X853700Y236900D03*
X828300Y236900D03*
X853700Y262300D03*
X828300Y262300D03*
X853700Y287700D03*
X828300Y287700D03*
X853700Y313100D03*
X828300Y313100D03*
X853700Y338500D03*
X828300Y338500D03*
X853700Y363900D03*
X828300Y363900D03*
X853700Y389300D03*
X828300Y389300D03*
X853700Y414700D03*
X828300Y414700D03*
X853700Y440100D03*
X828300Y440100D03*
X853700Y465500D03*
X828300Y465500D03*
X853700Y490900D03*
X828300Y490900D03*
D16*
X599700Y59100D03*
D17*
X574300Y59100D03*
X599700Y84500D03*
X574300Y84500D03*
X599700Y109900D03*
X574300Y109900D03*
X599700Y135300D03*
X574300Y135300D03*
X599700Y160700D03*
X574300Y160700D03*
X599700Y186100D03*
X574300Y186100D03*
X599700Y211500D03*
X574300Y211500D03*
X599700Y236900D03*
X574300Y236900D03*
X599700Y262300D03*
X574300Y262300D03*
X599700Y287700D03*
X574300Y287700D03*
X599700Y313100D03*
X574300Y313100D03*
X599700Y338500D03*
X574300Y338500D03*
X599700Y363900D03*
X574300Y363900D03*
X599700Y389300D03*
X574300Y389300D03*
X599700Y414700D03*
X574300Y414700D03*
X599700Y440100D03*
X574300Y440100D03*
X599700Y465500D03*
X574300Y465500D03*
X599700Y490900D03*
X574300Y490900D03*
D18*
X487060Y418870D02*
X473060Y418870D01*
X473060Y478870D02*
X487060Y478870D01*
X433060Y455870D02*
X433060Y441870D01*
M02*
