G04 EAGLE Gerber RS-274X export*
G75*
%MOMM*%
%FSLAX34Y34*%
%LPD*%
%INSoldermask Top*%
%IPPOS*%
%AMOC8*
5,1,8,0,0,1.08239X$1,22.5*%
G01*
%ADD10R,1.397000X1.397000*%
%ADD11C,1.397000*%
%ADD12R,1.352400X1.352400*%
%ADD13C,1.352400*%
%ADD14C,2.032000*%
%ADD15C,0.609600*%
%ADD16C,1.168400*%
%ADD17C,4.597400*%
%ADD18R,1.422400X1.295400*%
%ADD19R,1.676400X1.676400*%
%ADD20P,1.814519X8X112.500000*%
%ADD21C,1.552400*%


D10*
X63500Y508000D03*
D11*
X63500Y482600D03*
X63500Y457200D03*
X63500Y431800D03*
X63500Y406400D03*
X63500Y381000D03*
X63500Y355600D03*
X63500Y330200D03*
X190500Y330200D03*
X190500Y355600D03*
X190500Y381000D03*
X190500Y406400D03*
X190500Y431800D03*
X190500Y457200D03*
X190500Y482600D03*
X190500Y508000D03*
D12*
X144500Y476250D03*
D13*
X109500Y476250D03*
D14*
X88900Y292100D03*
X114300Y292100D03*
X139700Y292100D03*
X165100Y292100D03*
X101600Y330200D03*
X101600Y355600D03*
X127000Y330200D03*
X127000Y355600D03*
X152400Y330200D03*
X152400Y355600D03*
D10*
X241300Y508000D03*
D11*
X241300Y482600D03*
X241300Y457200D03*
X241300Y431800D03*
X241300Y406400D03*
X241300Y381000D03*
X241300Y355600D03*
X241300Y330200D03*
X368300Y330200D03*
X368300Y355600D03*
X368300Y381000D03*
X368300Y406400D03*
X368300Y431800D03*
X368300Y457200D03*
X368300Y482600D03*
X368300Y508000D03*
D12*
X322300Y476250D03*
D13*
X287300Y476250D03*
D14*
X266700Y292100D03*
X292100Y292100D03*
X317500Y292100D03*
X342900Y292100D03*
X279400Y330200D03*
X279400Y355600D03*
X304800Y330200D03*
X304800Y355600D03*
X330200Y330200D03*
X330200Y355600D03*
D10*
X63500Y254000D03*
D11*
X63500Y228600D03*
X63500Y203200D03*
X63500Y177800D03*
X63500Y152400D03*
X63500Y127000D03*
X63500Y101600D03*
X63500Y76200D03*
X190500Y76200D03*
X190500Y101600D03*
X190500Y127000D03*
X190500Y152400D03*
X190500Y177800D03*
X190500Y203200D03*
X190500Y228600D03*
X190500Y254000D03*
D12*
X144500Y222250D03*
D13*
X109500Y222250D03*
D14*
X88900Y38100D03*
X114300Y38100D03*
X139700Y38100D03*
X165100Y38100D03*
X101600Y76200D03*
X101600Y101600D03*
X127000Y76200D03*
X127000Y101600D03*
X152400Y76200D03*
X152400Y101600D03*
D10*
X241300Y254000D03*
D11*
X241300Y228600D03*
X241300Y203200D03*
X241300Y177800D03*
X241300Y152400D03*
X241300Y127000D03*
X241300Y101600D03*
X241300Y76200D03*
X368300Y76200D03*
X368300Y101600D03*
X368300Y127000D03*
X368300Y152400D03*
X368300Y177800D03*
X368300Y203200D03*
X368300Y228600D03*
X368300Y254000D03*
D12*
X322300Y222250D03*
D13*
X287300Y222250D03*
D14*
X266700Y38100D03*
X292100Y38100D03*
X317500Y38100D03*
X342900Y38100D03*
X279400Y76200D03*
X279400Y101600D03*
X304800Y76200D03*
X304800Y101600D03*
X330200Y76200D03*
X330200Y101600D03*
X520700Y381000D03*
X495300Y381000D03*
X520700Y355600D03*
X495300Y355600D03*
X520700Y330200D03*
X495300Y330200D03*
X520700Y304800D03*
X495300Y304800D03*
X520700Y279400D03*
X495300Y279400D03*
X520700Y254000D03*
X495300Y254000D03*
X520700Y228600D03*
X495300Y228600D03*
X520700Y203200D03*
X495300Y203200D03*
X520700Y177800D03*
X495300Y177800D03*
X520700Y152400D03*
X495300Y152400D03*
X417830Y127000D03*
X443230Y127000D03*
X417830Y101600D03*
X443230Y101600D03*
X417830Y76200D03*
X443230Y76200D03*
X417830Y50800D03*
X443230Y50800D03*
X495300Y50800D03*
X469900Y50800D03*
X495300Y76200D03*
X469900Y76200D03*
X495300Y101600D03*
X469900Y101600D03*
X495300Y127000D03*
X469900Y127000D03*
D15*
X703580Y406400D02*
X703582Y406587D01*
X703589Y406774D01*
X703601Y406961D01*
X703617Y407147D01*
X703637Y407333D01*
X703662Y407518D01*
X703692Y407703D01*
X703726Y407887D01*
X703765Y408070D01*
X703808Y408252D01*
X703856Y408432D01*
X703908Y408612D01*
X703965Y408790D01*
X704025Y408967D01*
X704091Y409142D01*
X704160Y409316D01*
X704234Y409488D01*
X704312Y409658D01*
X704394Y409826D01*
X704480Y409992D01*
X704570Y410156D01*
X704664Y410317D01*
X704762Y410477D01*
X704864Y410633D01*
X704970Y410788D01*
X705080Y410939D01*
X705193Y411088D01*
X705310Y411234D01*
X705430Y411377D01*
X705554Y411517D01*
X705681Y411654D01*
X705812Y411788D01*
X705946Y411919D01*
X706083Y412046D01*
X706223Y412170D01*
X706366Y412290D01*
X706512Y412407D01*
X706661Y412520D01*
X706812Y412630D01*
X706967Y412736D01*
X707123Y412838D01*
X707283Y412936D01*
X707444Y413030D01*
X707608Y413120D01*
X707774Y413206D01*
X707942Y413288D01*
X708112Y413366D01*
X708284Y413440D01*
X708458Y413509D01*
X708633Y413575D01*
X708810Y413635D01*
X708988Y413692D01*
X709168Y413744D01*
X709348Y413792D01*
X709530Y413835D01*
X709713Y413874D01*
X709897Y413908D01*
X710082Y413938D01*
X710267Y413963D01*
X710453Y413983D01*
X710639Y413999D01*
X710826Y414011D01*
X711013Y414018D01*
X711200Y414020D01*
X711387Y414018D01*
X711574Y414011D01*
X711761Y413999D01*
X711947Y413983D01*
X712133Y413963D01*
X712318Y413938D01*
X712503Y413908D01*
X712687Y413874D01*
X712870Y413835D01*
X713052Y413792D01*
X713232Y413744D01*
X713412Y413692D01*
X713590Y413635D01*
X713767Y413575D01*
X713942Y413509D01*
X714116Y413440D01*
X714288Y413366D01*
X714458Y413288D01*
X714626Y413206D01*
X714792Y413120D01*
X714956Y413030D01*
X715117Y412936D01*
X715277Y412838D01*
X715433Y412736D01*
X715588Y412630D01*
X715739Y412520D01*
X715888Y412407D01*
X716034Y412290D01*
X716177Y412170D01*
X716317Y412046D01*
X716454Y411919D01*
X716588Y411788D01*
X716719Y411654D01*
X716846Y411517D01*
X716970Y411377D01*
X717090Y411234D01*
X717207Y411088D01*
X717320Y410939D01*
X717430Y410788D01*
X717536Y410633D01*
X717638Y410477D01*
X717736Y410317D01*
X717830Y410156D01*
X717920Y409992D01*
X718006Y409826D01*
X718088Y409658D01*
X718166Y409488D01*
X718240Y409316D01*
X718309Y409142D01*
X718375Y408967D01*
X718435Y408790D01*
X718492Y408612D01*
X718544Y408432D01*
X718592Y408252D01*
X718635Y408070D01*
X718674Y407887D01*
X718708Y407703D01*
X718738Y407518D01*
X718763Y407333D01*
X718783Y407147D01*
X718799Y406961D01*
X718811Y406774D01*
X718818Y406587D01*
X718820Y406400D01*
X718818Y406213D01*
X718811Y406026D01*
X718799Y405839D01*
X718783Y405653D01*
X718763Y405467D01*
X718738Y405282D01*
X718708Y405097D01*
X718674Y404913D01*
X718635Y404730D01*
X718592Y404548D01*
X718544Y404368D01*
X718492Y404188D01*
X718435Y404010D01*
X718375Y403833D01*
X718309Y403658D01*
X718240Y403484D01*
X718166Y403312D01*
X718088Y403142D01*
X718006Y402974D01*
X717920Y402808D01*
X717830Y402644D01*
X717736Y402483D01*
X717638Y402323D01*
X717536Y402167D01*
X717430Y402012D01*
X717320Y401861D01*
X717207Y401712D01*
X717090Y401566D01*
X716970Y401423D01*
X716846Y401283D01*
X716719Y401146D01*
X716588Y401012D01*
X716454Y400881D01*
X716317Y400754D01*
X716177Y400630D01*
X716034Y400510D01*
X715888Y400393D01*
X715739Y400280D01*
X715588Y400170D01*
X715433Y400064D01*
X715277Y399962D01*
X715117Y399864D01*
X714956Y399770D01*
X714792Y399680D01*
X714626Y399594D01*
X714458Y399512D01*
X714288Y399434D01*
X714116Y399360D01*
X713942Y399291D01*
X713767Y399225D01*
X713590Y399165D01*
X713412Y399108D01*
X713232Y399056D01*
X713052Y399008D01*
X712870Y398965D01*
X712687Y398926D01*
X712503Y398892D01*
X712318Y398862D01*
X712133Y398837D01*
X711947Y398817D01*
X711761Y398801D01*
X711574Y398789D01*
X711387Y398782D01*
X711200Y398780D01*
X711013Y398782D01*
X710826Y398789D01*
X710639Y398801D01*
X710453Y398817D01*
X710267Y398837D01*
X710082Y398862D01*
X709897Y398892D01*
X709713Y398926D01*
X709530Y398965D01*
X709348Y399008D01*
X709168Y399056D01*
X708988Y399108D01*
X708810Y399165D01*
X708633Y399225D01*
X708458Y399291D01*
X708284Y399360D01*
X708112Y399434D01*
X707942Y399512D01*
X707774Y399594D01*
X707608Y399680D01*
X707444Y399770D01*
X707283Y399864D01*
X707123Y399962D01*
X706967Y400064D01*
X706812Y400170D01*
X706661Y400280D01*
X706512Y400393D01*
X706366Y400510D01*
X706223Y400630D01*
X706083Y400754D01*
X705946Y400881D01*
X705812Y401012D01*
X705681Y401146D01*
X705554Y401283D01*
X705430Y401423D01*
X705310Y401566D01*
X705193Y401712D01*
X705080Y401861D01*
X704970Y402012D01*
X704864Y402167D01*
X704762Y402323D01*
X704664Y402483D01*
X704570Y402644D01*
X704480Y402808D01*
X704394Y402974D01*
X704312Y403142D01*
X704234Y403312D01*
X704160Y403484D01*
X704091Y403658D01*
X704025Y403833D01*
X703965Y404010D01*
X703908Y404188D01*
X703856Y404368D01*
X703808Y404548D01*
X703765Y404730D01*
X703726Y404913D01*
X703692Y405097D01*
X703662Y405282D01*
X703637Y405467D01*
X703617Y405653D01*
X703601Y405839D01*
X703589Y406026D01*
X703582Y406213D01*
X703580Y406400D01*
D16*
X711200Y406400D03*
D15*
X703580Y76200D02*
X703582Y76387D01*
X703589Y76574D01*
X703601Y76761D01*
X703617Y76947D01*
X703637Y77133D01*
X703662Y77318D01*
X703692Y77503D01*
X703726Y77687D01*
X703765Y77870D01*
X703808Y78052D01*
X703856Y78232D01*
X703908Y78412D01*
X703965Y78590D01*
X704025Y78767D01*
X704091Y78942D01*
X704160Y79116D01*
X704234Y79288D01*
X704312Y79458D01*
X704394Y79626D01*
X704480Y79792D01*
X704570Y79956D01*
X704664Y80117D01*
X704762Y80277D01*
X704864Y80433D01*
X704970Y80588D01*
X705080Y80739D01*
X705193Y80888D01*
X705310Y81034D01*
X705430Y81177D01*
X705554Y81317D01*
X705681Y81454D01*
X705812Y81588D01*
X705946Y81719D01*
X706083Y81846D01*
X706223Y81970D01*
X706366Y82090D01*
X706512Y82207D01*
X706661Y82320D01*
X706812Y82430D01*
X706967Y82536D01*
X707123Y82638D01*
X707283Y82736D01*
X707444Y82830D01*
X707608Y82920D01*
X707774Y83006D01*
X707942Y83088D01*
X708112Y83166D01*
X708284Y83240D01*
X708458Y83309D01*
X708633Y83375D01*
X708810Y83435D01*
X708988Y83492D01*
X709168Y83544D01*
X709348Y83592D01*
X709530Y83635D01*
X709713Y83674D01*
X709897Y83708D01*
X710082Y83738D01*
X710267Y83763D01*
X710453Y83783D01*
X710639Y83799D01*
X710826Y83811D01*
X711013Y83818D01*
X711200Y83820D01*
X711387Y83818D01*
X711574Y83811D01*
X711761Y83799D01*
X711947Y83783D01*
X712133Y83763D01*
X712318Y83738D01*
X712503Y83708D01*
X712687Y83674D01*
X712870Y83635D01*
X713052Y83592D01*
X713232Y83544D01*
X713412Y83492D01*
X713590Y83435D01*
X713767Y83375D01*
X713942Y83309D01*
X714116Y83240D01*
X714288Y83166D01*
X714458Y83088D01*
X714626Y83006D01*
X714792Y82920D01*
X714956Y82830D01*
X715117Y82736D01*
X715277Y82638D01*
X715433Y82536D01*
X715588Y82430D01*
X715739Y82320D01*
X715888Y82207D01*
X716034Y82090D01*
X716177Y81970D01*
X716317Y81846D01*
X716454Y81719D01*
X716588Y81588D01*
X716719Y81454D01*
X716846Y81317D01*
X716970Y81177D01*
X717090Y81034D01*
X717207Y80888D01*
X717320Y80739D01*
X717430Y80588D01*
X717536Y80433D01*
X717638Y80277D01*
X717736Y80117D01*
X717830Y79956D01*
X717920Y79792D01*
X718006Y79626D01*
X718088Y79458D01*
X718166Y79288D01*
X718240Y79116D01*
X718309Y78942D01*
X718375Y78767D01*
X718435Y78590D01*
X718492Y78412D01*
X718544Y78232D01*
X718592Y78052D01*
X718635Y77870D01*
X718674Y77687D01*
X718708Y77503D01*
X718738Y77318D01*
X718763Y77133D01*
X718783Y76947D01*
X718799Y76761D01*
X718811Y76574D01*
X718818Y76387D01*
X718820Y76200D01*
X718818Y76013D01*
X718811Y75826D01*
X718799Y75639D01*
X718783Y75453D01*
X718763Y75267D01*
X718738Y75082D01*
X718708Y74897D01*
X718674Y74713D01*
X718635Y74530D01*
X718592Y74348D01*
X718544Y74168D01*
X718492Y73988D01*
X718435Y73810D01*
X718375Y73633D01*
X718309Y73458D01*
X718240Y73284D01*
X718166Y73112D01*
X718088Y72942D01*
X718006Y72774D01*
X717920Y72608D01*
X717830Y72444D01*
X717736Y72283D01*
X717638Y72123D01*
X717536Y71967D01*
X717430Y71812D01*
X717320Y71661D01*
X717207Y71512D01*
X717090Y71366D01*
X716970Y71223D01*
X716846Y71083D01*
X716719Y70946D01*
X716588Y70812D01*
X716454Y70681D01*
X716317Y70554D01*
X716177Y70430D01*
X716034Y70310D01*
X715888Y70193D01*
X715739Y70080D01*
X715588Y69970D01*
X715433Y69864D01*
X715277Y69762D01*
X715117Y69664D01*
X714956Y69570D01*
X714792Y69480D01*
X714626Y69394D01*
X714458Y69312D01*
X714288Y69234D01*
X714116Y69160D01*
X713942Y69091D01*
X713767Y69025D01*
X713590Y68965D01*
X713412Y68908D01*
X713232Y68856D01*
X713052Y68808D01*
X712870Y68765D01*
X712687Y68726D01*
X712503Y68692D01*
X712318Y68662D01*
X712133Y68637D01*
X711947Y68617D01*
X711761Y68601D01*
X711574Y68589D01*
X711387Y68582D01*
X711200Y68580D01*
X711013Y68582D01*
X710826Y68589D01*
X710639Y68601D01*
X710453Y68617D01*
X710267Y68637D01*
X710082Y68662D01*
X709897Y68692D01*
X709713Y68726D01*
X709530Y68765D01*
X709348Y68808D01*
X709168Y68856D01*
X708988Y68908D01*
X708810Y68965D01*
X708633Y69025D01*
X708458Y69091D01*
X708284Y69160D01*
X708112Y69234D01*
X707942Y69312D01*
X707774Y69394D01*
X707608Y69480D01*
X707444Y69570D01*
X707283Y69664D01*
X707123Y69762D01*
X706967Y69864D01*
X706812Y69970D01*
X706661Y70080D01*
X706512Y70193D01*
X706366Y70310D01*
X706223Y70430D01*
X706083Y70554D01*
X705946Y70681D01*
X705812Y70812D01*
X705681Y70946D01*
X705554Y71083D01*
X705430Y71223D01*
X705310Y71366D01*
X705193Y71512D01*
X705080Y71661D01*
X704970Y71812D01*
X704864Y71967D01*
X704762Y72123D01*
X704664Y72283D01*
X704570Y72444D01*
X704480Y72608D01*
X704394Y72774D01*
X704312Y72942D01*
X704234Y73112D01*
X704160Y73284D01*
X704091Y73458D01*
X704025Y73633D01*
X703965Y73810D01*
X703908Y73988D01*
X703856Y74168D01*
X703808Y74348D01*
X703765Y74530D01*
X703726Y74713D01*
X703692Y74897D01*
X703662Y75082D01*
X703637Y75267D01*
X703617Y75453D01*
X703601Y75639D01*
X703589Y75826D01*
X703582Y76013D01*
X703580Y76200D01*
D16*
X711200Y76200D03*
D15*
X30480Y76200D02*
X30482Y76387D01*
X30489Y76574D01*
X30501Y76761D01*
X30517Y76947D01*
X30537Y77133D01*
X30562Y77318D01*
X30592Y77503D01*
X30626Y77687D01*
X30665Y77870D01*
X30708Y78052D01*
X30756Y78232D01*
X30808Y78412D01*
X30865Y78590D01*
X30925Y78767D01*
X30991Y78942D01*
X31060Y79116D01*
X31134Y79288D01*
X31212Y79458D01*
X31294Y79626D01*
X31380Y79792D01*
X31470Y79956D01*
X31564Y80117D01*
X31662Y80277D01*
X31764Y80433D01*
X31870Y80588D01*
X31980Y80739D01*
X32093Y80888D01*
X32210Y81034D01*
X32330Y81177D01*
X32454Y81317D01*
X32581Y81454D01*
X32712Y81588D01*
X32846Y81719D01*
X32983Y81846D01*
X33123Y81970D01*
X33266Y82090D01*
X33412Y82207D01*
X33561Y82320D01*
X33712Y82430D01*
X33867Y82536D01*
X34023Y82638D01*
X34183Y82736D01*
X34344Y82830D01*
X34508Y82920D01*
X34674Y83006D01*
X34842Y83088D01*
X35012Y83166D01*
X35184Y83240D01*
X35358Y83309D01*
X35533Y83375D01*
X35710Y83435D01*
X35888Y83492D01*
X36068Y83544D01*
X36248Y83592D01*
X36430Y83635D01*
X36613Y83674D01*
X36797Y83708D01*
X36982Y83738D01*
X37167Y83763D01*
X37353Y83783D01*
X37539Y83799D01*
X37726Y83811D01*
X37913Y83818D01*
X38100Y83820D01*
X38287Y83818D01*
X38474Y83811D01*
X38661Y83799D01*
X38847Y83783D01*
X39033Y83763D01*
X39218Y83738D01*
X39403Y83708D01*
X39587Y83674D01*
X39770Y83635D01*
X39952Y83592D01*
X40132Y83544D01*
X40312Y83492D01*
X40490Y83435D01*
X40667Y83375D01*
X40842Y83309D01*
X41016Y83240D01*
X41188Y83166D01*
X41358Y83088D01*
X41526Y83006D01*
X41692Y82920D01*
X41856Y82830D01*
X42017Y82736D01*
X42177Y82638D01*
X42333Y82536D01*
X42488Y82430D01*
X42639Y82320D01*
X42788Y82207D01*
X42934Y82090D01*
X43077Y81970D01*
X43217Y81846D01*
X43354Y81719D01*
X43488Y81588D01*
X43619Y81454D01*
X43746Y81317D01*
X43870Y81177D01*
X43990Y81034D01*
X44107Y80888D01*
X44220Y80739D01*
X44330Y80588D01*
X44436Y80433D01*
X44538Y80277D01*
X44636Y80117D01*
X44730Y79956D01*
X44820Y79792D01*
X44906Y79626D01*
X44988Y79458D01*
X45066Y79288D01*
X45140Y79116D01*
X45209Y78942D01*
X45275Y78767D01*
X45335Y78590D01*
X45392Y78412D01*
X45444Y78232D01*
X45492Y78052D01*
X45535Y77870D01*
X45574Y77687D01*
X45608Y77503D01*
X45638Y77318D01*
X45663Y77133D01*
X45683Y76947D01*
X45699Y76761D01*
X45711Y76574D01*
X45718Y76387D01*
X45720Y76200D01*
X45718Y76013D01*
X45711Y75826D01*
X45699Y75639D01*
X45683Y75453D01*
X45663Y75267D01*
X45638Y75082D01*
X45608Y74897D01*
X45574Y74713D01*
X45535Y74530D01*
X45492Y74348D01*
X45444Y74168D01*
X45392Y73988D01*
X45335Y73810D01*
X45275Y73633D01*
X45209Y73458D01*
X45140Y73284D01*
X45066Y73112D01*
X44988Y72942D01*
X44906Y72774D01*
X44820Y72608D01*
X44730Y72444D01*
X44636Y72283D01*
X44538Y72123D01*
X44436Y71967D01*
X44330Y71812D01*
X44220Y71661D01*
X44107Y71512D01*
X43990Y71366D01*
X43870Y71223D01*
X43746Y71083D01*
X43619Y70946D01*
X43488Y70812D01*
X43354Y70681D01*
X43217Y70554D01*
X43077Y70430D01*
X42934Y70310D01*
X42788Y70193D01*
X42639Y70080D01*
X42488Y69970D01*
X42333Y69864D01*
X42177Y69762D01*
X42017Y69664D01*
X41856Y69570D01*
X41692Y69480D01*
X41526Y69394D01*
X41358Y69312D01*
X41188Y69234D01*
X41016Y69160D01*
X40842Y69091D01*
X40667Y69025D01*
X40490Y68965D01*
X40312Y68908D01*
X40132Y68856D01*
X39952Y68808D01*
X39770Y68765D01*
X39587Y68726D01*
X39403Y68692D01*
X39218Y68662D01*
X39033Y68637D01*
X38847Y68617D01*
X38661Y68601D01*
X38474Y68589D01*
X38287Y68582D01*
X38100Y68580D01*
X37913Y68582D01*
X37726Y68589D01*
X37539Y68601D01*
X37353Y68617D01*
X37167Y68637D01*
X36982Y68662D01*
X36797Y68692D01*
X36613Y68726D01*
X36430Y68765D01*
X36248Y68808D01*
X36068Y68856D01*
X35888Y68908D01*
X35710Y68965D01*
X35533Y69025D01*
X35358Y69091D01*
X35184Y69160D01*
X35012Y69234D01*
X34842Y69312D01*
X34674Y69394D01*
X34508Y69480D01*
X34344Y69570D01*
X34183Y69664D01*
X34023Y69762D01*
X33867Y69864D01*
X33712Y69970D01*
X33561Y70080D01*
X33412Y70193D01*
X33266Y70310D01*
X33123Y70430D01*
X32983Y70554D01*
X32846Y70681D01*
X32712Y70812D01*
X32581Y70946D01*
X32454Y71083D01*
X32330Y71223D01*
X32210Y71366D01*
X32093Y71512D01*
X31980Y71661D01*
X31870Y71812D01*
X31764Y71967D01*
X31662Y72123D01*
X31564Y72283D01*
X31470Y72444D01*
X31380Y72608D01*
X31294Y72774D01*
X31212Y72942D01*
X31134Y73112D01*
X31060Y73284D01*
X30991Y73458D01*
X30925Y73633D01*
X30865Y73810D01*
X30808Y73988D01*
X30756Y74168D01*
X30708Y74348D01*
X30665Y74530D01*
X30626Y74713D01*
X30592Y74897D01*
X30562Y75082D01*
X30537Y75267D01*
X30517Y75453D01*
X30501Y75639D01*
X30489Y75826D01*
X30482Y76013D01*
X30480Y76200D01*
D16*
X38100Y76200D03*
D17*
X25400Y533400D03*
X25400Y25400D03*
X863600Y25400D03*
X863600Y533400D03*
D18*
X711200Y486410D03*
X711200Y504190D03*
D19*
X853700Y59100D03*
D20*
X828300Y59100D03*
X853700Y84500D03*
X828300Y84500D03*
X853700Y109900D03*
X828300Y109900D03*
X853700Y135300D03*
X828300Y135300D03*
X853700Y160700D03*
X828300Y160700D03*
X853700Y186100D03*
X828300Y186100D03*
X853700Y211500D03*
X828300Y211500D03*
X853700Y236900D03*
X828300Y236900D03*
X853700Y262300D03*
X828300Y262300D03*
X853700Y287700D03*
X828300Y287700D03*
X853700Y313100D03*
X828300Y313100D03*
X853700Y338500D03*
X828300Y338500D03*
X853700Y363900D03*
X828300Y363900D03*
X853700Y389300D03*
X828300Y389300D03*
X853700Y414700D03*
X828300Y414700D03*
X853700Y440100D03*
X828300Y440100D03*
X853700Y465500D03*
X828300Y465500D03*
X853700Y490900D03*
X828300Y490900D03*
D19*
X599700Y59100D03*
D20*
X574300Y59100D03*
X599700Y84500D03*
X574300Y84500D03*
X599700Y109900D03*
X574300Y109900D03*
X599700Y135300D03*
X574300Y135300D03*
X599700Y160700D03*
X574300Y160700D03*
X599700Y186100D03*
X574300Y186100D03*
X599700Y211500D03*
X574300Y211500D03*
X599700Y236900D03*
X574300Y236900D03*
X599700Y262300D03*
X574300Y262300D03*
X599700Y287700D03*
X574300Y287700D03*
X599700Y313100D03*
X574300Y313100D03*
X599700Y338500D03*
X574300Y338500D03*
X599700Y363900D03*
X574300Y363900D03*
X599700Y389300D03*
X574300Y389300D03*
X599700Y414700D03*
X574300Y414700D03*
X599700Y440100D03*
X574300Y440100D03*
X599700Y465500D03*
X574300Y465500D03*
X599700Y490900D03*
X574300Y490900D03*
D21*
X487060Y418870D02*
X473060Y418870D01*
X473060Y478870D02*
X487060Y478870D01*
X433060Y455870D02*
X433060Y441870D01*
M02*
